NotoSansTamil-Regular.ufo
<glyph name="exclam.tamil" format="2">
  <advance width="269"/>
  <unicode hex="0021"/>
  <outline>
    <contour>
      <point x="106" y="201" type="line"/>
      <point x="163" y="201" type="line"/>
      <point x="188" y="714" type="line"/>
      <point x="81" y="714" type="line"/>
    </contour>
    <contour>
      <point x="134" y="-12" type="curve" smooth="yes"/>
      <point x="171" y="-12"/>
      <point x="196" y="12"/>
      <point x="196" y="56" type="curve" smooth="yes"/>
      <point x="196" y="99"/>
      <point x="173" y="124"/>
      <point x="134" y="124" type="curve" smooth="yes"/>
      <point x="94" y="124"/>
      <point x="72" y="99"/>
      <point x="72" y="56" type="curve" smooth="yes"/>
      <point x="72" y="11"/>
      <point x="96" y="-12"/>
    </contour>
  </outline>
</glyph>
<glyph name="quotedbl.tamil" format="2">
  <advance width="426"/>
  <unicode hex="0022"/>
  <outline>
    <contour>
      <point x="95" y="542" type="line"/>
      <point x="156" y="542" type="line"/>
      <point x="181" y="800" type="line"/>
      <point x="70" y="800" type="line"/>
    </contour>
    <contour>
      <point x="270" y="542" type="line"/>
      <point x="331" y="542" type="line"/>
      <point x="356" y="800" type="line"/>
      <point x="245" y="800" type="line"/>
    </contour>
  </outline>
</glyph>
<glyph name="percent.tamil" format="2">
  <advance width="831"/>
  <unicode hex="0025"/>
  <outline>
    <contour>
      <point x="179" y="0" type="line"/>
      <point x="256" y="0" type="line"/>
      <point x="652" y="714" type="line"/>
      <point x="575" y="714" type="line"/>
    </contour>
    <contour>
      <point x="195" y="276" type="curve" smooth="yes"/>
      <point x="293" y="276"/>
      <point x="345" y="353"/>
      <point x="345" y="501" type="curve" smooth="yes"/>
      <point x="345" y="645"/>
      <point x="291" y="725"/>
      <point x="195" y="725" type="curve" smooth="yes"/>
      <point x="98" y="725"/>
      <point x="49" y="650"/>
      <point x="49" y="501" type="curve" smooth="yes"/>
      <point x="49" y="356"/>
      <point x="102" y="276"/>
    </contour>
    <contour>
      <point x="195" y="339" type="curve" smooth="yes"/>
      <point x="144" y="339"/>
      <point x="122" y="394"/>
      <point x="122" y="501" type="curve" smooth="yes"/>
      <point x="122" y="608"/>
      <point x="144" y="662"/>
      <point x="195" y="662" type="curve" smooth="yes"/>
      <point x="247" y="662"/>
      <point x="272" y="608"/>
      <point x="272" y="501" type="curve" smooth="yes"/>
      <point x="272" y="393"/>
      <point x="247" y="339"/>
    </contour>
    <contour>
      <point x="632" y="-12" type="curve" smooth="yes"/>
      <point x="730" y="-12"/>
      <point x="782" y="64"/>
      <point x="782" y="213" type="curve" smooth="yes"/>
      <point x="782" y="356"/>
      <point x="728" y="436"/>
      <point x="632" y="436" type="curve" smooth="yes"/>
      <point x="535" y="436"/>
      <point x="486" y="362"/>
      <point x="486" y="213" type="curve" smooth="yes"/>
      <point x="486" y="68"/>
      <point x="540" y="-12"/>
    </contour>
    <contour>
      <point x="632" y="51" type="curve" smooth="yes"/>
      <point x="581" y="51"/>
      <point x="559" y="104"/>
      <point x="559" y="213" type="curve" smooth="yes"/>
      <point x="559" y="320"/>
      <point x="581" y="373"/>
      <point x="632" y="373" type="curve" smooth="yes"/>
      <point x="684" y="373"/>
      <point x="709" y="320"/>
      <point x="709" y="213" type="curve" smooth="yes"/>
      <point x="709" y="104"/>
      <point x="684" y="51"/>
    </contour>
  </outline>
</glyph>
<glyph name="quotesingle.tamil" format="2">
  <advance width="250"/>
  <unicode hex="0027"/>
  <outline>
    <contour>
      <point x="95" y="542" type="line"/>
      <point x="156" y="542" type="line"/>
      <point x="181" y="800" type="line"/>
      <point x="70" y="800" type="line"/>
    </contour>
  </outline>
</glyph>
<glyph name="parenleft.tamil" format="2">
  <advance width="321"/>
  <unicode hex="0028"/>
  <outline>
    <contour>
      <point x="61" y="283" type="curve" smooth="yes"/>
      <point x="61" y="88"/>
      <point x="109" y="-100"/>
      <point x="208" y="-244" type="curve"/>
      <point x="290" y="-244" type="line"/>
      <point x="195" y="-90"/>
      <point x="150" y="95"/>
      <point x="150" y="282" type="curve" smooth="yes"/>
      <point x="150" y="468"/>
      <point x="198" y="653"/>
      <point x="290" y="800" type="curve"/>
      <point x="208" y="800" type="line"/>
      <point x="109" y="659"/>
      <point x="61" y="475"/>
    </contour>
  </outline>
</glyph>
<glyph name="plus.tamil" format="2">
  <advance width="572"/>
  <unicode hex="002B"/>
  <outline>
    <contour>
      <point x="250" y="111" type="line"/>
      <point x="322" y="111" type="line"/>
      <point x="322" y="317" type="line"/>
      <point x="521" y="317" type="line"/>
      <point x="521" y="388" type="line"/>
      <point x="322" y="388" type="line"/>
      <point x="322" y="595" type="line"/>
      <point x="250" y="595" type="line"/>
      <point x="250" y="388" type="line"/>
      <point x="51" y="388" type="line"/>
      <point x="51" y="317" type="line"/>
      <point x="250" y="317" type="line"/>
    </contour>
  </outline>
</glyph>
<glyph name="comma.tamil" format="2">
  <advance width="250"/>
  <unicode hex="002C"/>
  <outline>
    <contour>
      <point x="177" y="116" type="line"/>
      <point x="80" y="116" type="line"/>
      <point x="70" y="47"/>
      <point x="50" y="-50"/>
      <point x="31" y="-129" type="curve"/>
      <point x="98" y="-129" type="line"/>
      <point x="131" y="-56"/>
      <point x="166" y="34"/>
      <point x="184" y="105" type="curve"/>
    </contour>
  </outline>
</glyph>
<glyph name="hyphen.tamil" format="2">
  <advance width="322"/>
  <unicode hex="002D"/>
  <outline>
    <contour>
      <point x="40" y="262" type="line"/>
      <point x="282" y="262" type="line"/>
      <point x="282" y="344" type="line"/>
      <point x="40" y="344" type="line"/>
    </contour>
  </outline>
</glyph>
<glyph name="zero.tamil" format="2">
  <advance width="572"/>
  <unicode hex="0030"/>
  <outline>
    <contour>
      <point x="286" y="-12" type="curve" smooth="yes"/>
      <point x="446" y="-12"/>
      <point x="523" y="109"/>
      <point x="523" y="357" type="curve" smooth="yes"/>
      <point x="523" y="598"/>
      <point x="440" y="725"/>
      <point x="286" y="725" type="curve" smooth="yes"/>
      <point x="126" y="725"/>
      <point x="50" y="607"/>
      <point x="50" y="357" type="curve" smooth="yes"/>
      <point x="50" y="116"/>
      <point x="131" y="-12"/>
    </contour>
    <contour>
      <point x="286" y="63" type="curve" smooth="yes"/>
      <point x="159" y="63"/>
      <point x="138" y="201"/>
      <point x="138" y="357" type="curve" smooth="yes"/>
      <point x="138" y="490"/>
      <point x="151" y="650"/>
      <point x="286" y="650" type="curve" smooth="yes"/>
      <point x="417" y="650"/>
      <point x="435" y="489"/>
      <point x="435" y="357" type="curve" smooth="yes"/>
      <point x="435" y="221"/>
      <point x="420" y="63"/>
    </contour>
  </outline>
</glyph>
<glyph name="one.tamil" format="2">
  <advance width="572"/>
  <unicode hex="0031"/>
  <outline>
    <contour>
      <point x="356" y="0" type="line"/>
      <point x="356" y="714" type="line"/>
      <point x="283" y="714" type="line"/>
      <point x="90" y="564" type="line"/>
      <point x="136" y="505" type="line"/>
      <point x="235" y="587" type="line" smooth="yes"/>
      <point x="251" y="600"/>
      <point x="264" y="612"/>
      <point x="273" y="622" type="curve"/>
      <point x="271" y="594"/>
      <point x="270" y="553"/>
      <point x="270" y="499" type="curve" smooth="yes"/>
      <point x="270" y="0" type="line"/>
    </contour>
  </outline>
</glyph>
<glyph name="five.tamil" format="2">
  <advance width="572"/>
  <unicode hex="0035"/>
  <outline>
    <contour>
      <point x="249" y="-12" type="curve" smooth="yes"/>
      <point x="408" y="-12"/>
      <point x="516" y="68"/>
      <point x="516" y="227" type="curve" smooth="yes"/>
      <point x="516" y="367"/>
      <point x="412" y="438"/>
      <point x="275" y="438" type="curve" smooth="yes"/>
      <point x="243" y="438"/>
      <point x="206" y="435"/>
      <point x="166" y="427" type="curve"/>
      <point x="183" y="634" type="line"/>
      <point x="466" y="634" type="line"/>
      <point x="466" y="714" type="line"/>
      <point x="107" y="714" type="line"/>
      <point x="81" y="377" type="line"/>
      <point x="125" y="349" type="line"/>
      <point x="171" y="359"/>
      <point x="211" y="364"/>
      <point x="247" y="364" type="curve" smooth="yes"/>
      <point x="366" y="364"/>
      <point x="426" y="315"/>
      <point x="426" y="218" type="curve" smooth="yes"/>
      <point x="426" y="119"/>
      <point x="361" y="63"/>
      <point x="250" y="63" type="curve" smooth="yes"/>
      <point x="193" y="63"/>
      <point x="117" y="79"/>
      <point x="63" y="110" type="curve"/>
      <point x="63" y="27" type="line"/>
      <point x="105" y="2"/>
      <point x="172" y="-12"/>
    </contour>
  </outline>
</glyph>
<glyph name="eight.tamil" format="2">
  <advance width="572"/>
  <unicode hex="0038"/>
  <outline>
    <contour>
      <point x="289" y="-12" type="curve" smooth="yes"/>
      <point x="416" y="-12"/>
      <point x="522" y="53"/>
      <point x="522" y="184" type="curve" smooth="yes"/>
      <point x="522" y="282"/>
      <point x="451" y="333"/>
      <point x="364" y="378" type="curve"/>
      <point x="457" y="425"/>
      <point x="500" y="482"/>
      <point x="500" y="554" type="curve" smooth="yes"/>
      <point x="500" y="673"/>
      <point x="398" y="725"/>
      <point x="286" y="725" type="curve" smooth="yes"/>
      <point x="175" y="725"/>
      <point x="73" y="673"/>
      <point x="73" y="555" type="curve" smooth="yes"/>
      <point x="73" y="480"/>
      <point x="111" y="422"/>
      <point x="198" y="373" type="curve"/>
      <point x="99" y="328"/>
      <point x="50" y="263"/>
      <point x="50" y="181" type="curve" smooth="yes"/>
      <point x="50" y="43"/>
      <point x="155" y="-12"/>
    </contour>
    <contour>
      <point x="287" y="59" type="curve" smooth="yes"/>
      <point x="190" y="59"/>
      <point x="136" y="106"/>
      <point x="136" y="180" type="curve" smooth="yes"/>
      <point x="136" y="249"/>
      <point x="176" y="296"/>
      <point x="271" y="337" type="curve"/>
      <point x="290" y="330" type="line" smooth="yes"/>
      <point x="396" y="289"/>
      <point x="436" y="244"/>
      <point x="436" y="183" type="curve" smooth="yes"/>
      <point x="436" y="98"/>
      <point x="369" y="59"/>
    </contour>
    <contour>
      <point x="290" y="412" type="curve"/>
      <point x="214" y="448"/>
      <point x="159" y="474"/>
      <point x="159" y="551" type="curve" smooth="yes"/>
      <point x="159" y="614"/>
      <point x="208" y="654"/>
      <point x="285" y="654" type="curve" smooth="yes"/>
      <point x="354" y="654"/>
      <point x="414" y="623"/>
      <point x="414" y="551" type="curve" smooth="yes"/>
      <point x="414" y="491"/>
      <point x="377" y="448"/>
    </contour>
  </outline>
</glyph>
<glyph name="nine.tamil" format="2">
  <advance width="572"/>
  <unicode hex="0039"/>
  <outline>
    <contour>
      <point x="190" y="-12" type="curve" smooth="yes"/>
      <point x="409" y="-12"/>
      <point x="518" y="127"/>
      <point x="518" y="415" type="curve" smooth="yes"/>
      <point x="518" y="575"/>
      <point x="445" y="725"/>
      <point x="276" y="725" type="curve" smooth="yes"/>
      <point x="133" y="725"/>
      <point x="48" y="626"/>
      <point x="48" y="483" type="curve" smooth="yes"/>
      <point x="48" y="354"/>
      <point x="123" y="267"/>
      <point x="253" y="267" type="curve" smooth="yes"/>
      <point x="330" y="267"/>
      <point x="387" y="295"/>
      <point x="423" y="350" type="curve"/>
      <point x="429" y="350" type="line"/>
      <point x="422" y="151"/>
      <point x="344" y="60"/>
      <point x="188" y="60" type="curve" smooth="yes"/>
      <point x="156" y="60"/>
      <point x="127" y="64"/>
      <point x="100" y="73" type="curve"/>
      <point x="100" y="-2" type="line"/>
      <point x="122" y="-8"/>
      <point x="167" y="-12"/>
    </contour>
    <contour>
      <point x="272" y="337" type="curve" smooth="yes"/>
      <point x="183" y="337"/>
      <point x="135" y="389"/>
      <point x="135" y="484" type="curve" smooth="yes"/>
      <point x="135" y="589"/>
      <point x="187" y="651"/>
      <point x="276" y="651" type="curve" smooth="yes"/>
      <point x="373" y="651"/>
      <point x="429" y="558"/>
      <point x="429" y="467" type="curve" smooth="yes"/>
      <point x="429" y="399"/>
      <point x="362" y="337"/>
    </contour>
  </outline>
</glyph>
<glyph name="equal.tamil" format="2">
  <advance width="572"/>
  <unicode hex="003D"/>
  <outline>
    <contour>
      <point x="57" y="217" type="line"/>
      <point x="515" y="217" type="line"/>
      <point x="515" y="288" type="line"/>
      <point x="57" y="288" type="line"/>
    </contour>
    <contour>
      <point x="57" y="416" type="line"/>
      <point x="515" y="416" type="line"/>
      <point x="515" y="487" type="line"/>
      <point x="57" y="487" type="line"/>
    </contour>
  </outline>
</glyph>
<glyph name="bracketleft.tamil" format="2">
  <advance width="318"/>
  <unicode hex="005B"/>
  <outline>
    <contour>
      <point x="80" y="-244" type="line"/>
      <point x="278" y="-244" type="line"/>
      <point x="278" y="-176" type="line"/>
      <point x="167" y="-176" type="line"/>
      <point x="167" y="732" type="line"/>
      <point x="278" y="732" type="line"/>
      <point x="278" y="800" type="line"/>
      <point x="80" y="800" type="line"/>
    </contour>
  </outline>
</glyph>
<glyph name="bar.tamil" format="2">
  <advance width="551"/>
  <unicode hex="007C"/>
  <outline>
    <contour>
      <point x="239" y="-244" type="line"/>
      <point x="312" y="-244" type="line"/>
      <point x="312" y="800" type="line"/>
      <point x="239" y="800" type="line"/>
    </contour>
  </outline>
</glyph>
<glyph name="braceright.tamil" format="2">
  <advance width="369"/>
  <unicode hex="007D"/>
  <outline>
    <contour>
      <point x="40" y="800" type="curve"/>
      <point x="40" y="727" type="line"/>
      <point x="93" y="726"/>
      <point x="125" y="709"/>
      <point x="125" y="631" type="curve" smooth="yes"/>
      <point x="125" y="431" type="line" smooth="yes"/>
      <point x="125" y="346"/>
      <point x="165" y="297"/>
      <point x="239" y="281" type="curve"/>
      <point x="239" y="275" type="line"/>
      <point x="165" y="259"/>
      <point x="125" y="210"/>
      <point x="125" y="125" type="curve" smooth="yes"/>
      <point x="125" y="-75" type="line" smooth="yes"/>
      <point x="125" y="-153"/>
      <point x="93" y="-169"/>
      <point x="40" y="-171" type="curve"/>
      <point x="40" y="-244" type="line"/>
      <point x="140" y="-243"/>
      <point x="214" y="-193"/>
      <point x="214" y="-70" type="curve" smooth="yes"/>
      <point x="214" y="128" type="line" smooth="yes"/>
      <point x="214" y="209"/>
      <point x="258" y="240"/>
      <point x="339" y="240" type="curve"/>
      <point x="339" y="316" type="line"/>
      <point x="258" y="316"/>
      <point x="214" y="346"/>
      <point x="214" y="428" type="curve" smooth="yes"/>
      <point x="214" y="626" type="line" smooth="yes"/>
      <point x="214" y="749"/>
      <point x="140" y="798"/>
    </contour>
  </outline>
</glyph>
<glyph name="asciitilde.tamil" format="2">
  <advance width="572"/>
  <unicode hex="007E"/>
  <outline>
    <contour>
      <point x="270" y="319" type="curve" smooth="yes"/>
      <point x="330" y="293"/>
      <point x="363" y="287"/>
      <point x="401" y="287" type="curve" smooth="yes"/>
      <point x="450" y="287"/>
      <point x="488" y="305"/>
      <point x="521" y="339" type="curve"/>
      <point x="521" y="418" type="line"/>
      <point x="486" y="383"/>
      <point x="450" y="359"/>
      <point x="410" y="359" type="curve" smooth="yes"/>
      <point x="372" y="359"/>
      <point x="351" y="365"/>
      <point x="298" y="388" type="curve" smooth="yes"/>
      <point x="242" y="412"/>
      <point x="208" y="418"/>
      <point x="170" y="418" type="curve" smooth="yes"/>
      <point x="123" y="418"/>
      <point x="83" y="400"/>
      <point x="50" y="365" type="curve"/>
      <point x="50" y="287" type="line"/>
      <point x="83" y="320"/>
      <point x="127" y="347"/>
      <point x="167" y="347" type="curve" smooth="yes"/>
      <point x="197" y="347"/>
      <point x="222" y="340"/>
    </contour>
  </outline>
</glyph>
<glyph name="uni00B2" format="2">
  <advance width="312"/>
  <unicode hex="00B2"/>
  <outline>
    <contour>
      <point x="15" y="369" type="line"/>
      <point x="297" y="369" type="line"/>
      <point x="297" y="431" type="line"/>
      <point x="102" y="431" type="line"/>
      <point x="183" y="508" type="line" smooth="yes"/>
      <point x="257" y="578"/>
      <point x="298" y="622"/>
      <point x="298" y="688" type="curve" smooth="yes"/>
      <point x="298" y="761"/>
      <point x="246" y="806"/>
      <point x="161" y="806" type="curve" smooth="yes"/>
      <point x="104" y="806"/>
      <point x="59" y="784"/>
      <point x="20" y="751" type="curve"/>
      <point x="55" y="705" type="line"/>
      <point x="89" y="731"/>
      <point x="120" y="748"/>
      <point x="160" y="748" type="curve" smooth="yes"/>
      <point x="200" y="748"/>
      <point x="227" y="726"/>
      <point x="227" y="684" type="curve" smooth="yes"/>
      <point x="227" y="639"/>
      <point x="210" y="613"/>
      <point x="130" y="535" type="curve" smooth="yes"/>
      <point x="15" y="423" type="line"/>
    </contour>
  </outline>
</glyph>
<glyph name="uni00B3" format="2">
  <advance width="329"/>
  <unicode hex="00B3"/>
  <outline>
    <contour>
      <point x="146" y="361" type="curve" smooth="yes"/>
      <point x="264" y="361"/>
      <point x="318" y="415"/>
      <point x="318" y="492" type="curve" smooth="yes"/>
      <point x="318" y="545"/>
      <point x="288" y="580"/>
      <point x="232" y="593" type="curve"/>
      <point x="232" y="595" type="line"/>
      <point x="277" y="611"/>
      <point x="306" y="644"/>
      <point x="306" y="696" type="curve" smooth="yes"/>
      <point x="306" y="760"/>
      <point x="257" y="806"/>
      <point x="163" y="806" type="curve" smooth="yes"/>
      <point x="101" y="806"/>
      <point x="58" y="787"/>
      <point x="17" y="757" type="curve"/>
      <point x="53" y="711" type="line"/>
      <point x="88" y="734"/>
      <point x="123" y="749"/>
      <point x="164" y="749" type="curve" smooth="yes"/>
      <point x="204" y="749"/>
      <point x="234" y="730"/>
      <point x="234" y="688" type="curve" smooth="yes"/>
      <point x="234" y="646"/>
      <point x="204" y="618"/>
      <point x="137" y="618" type="curve" smooth="yes"/>
      <point x="80" y="618" type="line"/>
      <point x="80" y="563" type="line"/>
      <point x="137" y="563" type="line" smooth="yes"/>
      <point x="206" y="563"/>
      <point x="246" y="542"/>
      <point x="246" y="494" type="curve" smooth="yes"/>
      <point x="246" y="447"/>
      <point x="215" y="418"/>
      <point x="146" y="418" type="curve" smooth="yes"/>
      <point x="106" y="418"/>
      <point x="60" y="430"/>
      <point x="15" y="452" type="curve"/>
      <point x="15" y="389" type="line"/>
      <point x="55" y="369"/>
      <point x="97" y="361"/>
    </contour>
  </outline>
</glyph>
<glyph name="multiply.tamil" format="2">
  <advance width="572"/>
  <unicode hex="00D7"/>
  <outline>
    <contour>
      <point x="457" y="574" type="line"/>
      <point x="286" y="402" type="line"/>
      <point x="117" y="574" type="line"/>
      <point x="65" y="522" type="line"/>
      <point x="237" y="352" type="line"/>
      <point x="66" y="183" type="line"/>
      <point x="118" y="132" type="line"/>
      <point x="286" y="303" type="line"/>
      <point x="456" y="132" type="line"/>
      <point x="506" y="183" type="line"/>
      <point x="336" y="352" type="line"/>
      <point x="507" y="523" type="line"/>
    </contour>
  </outline>
</glyph>
<glyph name="divide.tamil" format="2">
  <advance width="572"/>
  <unicode hex="00F7"/>
  <outline>
    <contour>
      <point x="51" y="317" type="line"/>
      <point x="521" y="317" type="line"/>
      <point x="521" y="388" type="line"/>
      <point x="51" y="388" type="line"/>
    </contour>
    <contour>
      <point x="286" y="121" type="curve" smooth="yes"/>
      <point x="319" y="121"/>
      <point x="341" y="143"/>
      <point x="341" y="182" type="curve" smooth="yes"/>
      <point x="341" y="222"/>
      <point x="321" y="242"/>
      <point x="286" y="242" type="curve" smooth="yes"/>
      <point x="248" y="242"/>
      <point x="229" y="222"/>
      <point x="229" y="182" type="curve" smooth="yes"/>
      <point x="229" y="143"/>
      <point x="250" y="121"/>
    </contour>
    <contour>
      <point x="286" y="462" type="curve" smooth="yes"/>
      <point x="319" y="462"/>
      <point x="340" y="483"/>
      <point x="341" y="523" type="curve" smooth="yes"/>
      <point x="341" y="562"/>
      <point x="321" y="583"/>
      <point x="286" y="583" type="curve" smooth="yes"/>
      <point x="248" y="583"/>
      <point x="229" y="563"/>
      <point x="229" y="523" type="curve" smooth="yes"/>
      <point x="229" y="484"/>
      <point x="251" y="462"/>
    </contour>
  </outline>
</glyph>
<glyph name="uni0951" format="2">
  <unicode hex="0951"/>
  <outline>
    <contour>
      <point x="-314" y="870" type="line"/>
      <point x="-314" y="659" type="line"/>
      <point x="-242" y="659" type="line"/>
      <point x="-242" y="870" type="line"/>
    </contour>
  </outline>
</glyph>
<glyph name="uni0952" format="2">
  <unicode hex="0952"/>
  <outline>
    <contour>
      <point x="-65" y="-182" type="line"/>
      <point x="-65" y="-111" type="line"/>
      <point x="-491" y="-111" type="line"/>
      <point x="-491" y="-182" type="line"/>
    </contour>
  </outline>
</glyph>
<glyph name="anusvaratamil" format="2">
  <advance width="352"/>
  <unicode hex="0B82"/>
  <outline>
    <contour>
      <point x="56" y="722" type="curve" smooth="yes"/>
      <point x="56" y="651"/>
      <point x="105" y="602"/>
      <point x="176" y="602" type="curve" smooth="yes"/>
      <point x="247" y="602"/>
      <point x="296" y="651"/>
      <point x="296" y="722" type="curve" smooth="yes"/>
      <point x="296" y="793"/>
      <point x="247" y="843"/>
      <point x="176" y="843" type="curve" smooth="yes"/>
      <point x="105" y="843"/>
      <point x="56" y="793"/>
    </contour>
    <contour>
      <point x="116" y="722" type="curve" smooth="yes"/>
      <point x="116" y="759"/>
      <point x="140" y="785"/>
      <point x="176" y="785" type="curve" smooth="yes"/>
      <point x="211" y="785"/>
      <point x="236" y="759"/>
      <point x="236" y="722" type="curve" smooth="yes"/>
      <point x="236" y="686"/>
      <point x="211" y="660"/>
      <point x="176" y="660" type="curve" smooth="yes"/>
      <point x="140" y="660"/>
      <point x="116" y="686"/>
    </contour>
  </outline>
</glyph>
<glyph name="visargatamil" format="2">
  <advance width="896"/>
  <unicode hex="0B83"/>
  <outline>
    <contour>
      <point x="222" y="-11" type="curve" smooth="yes"/>
      <point x="322" y="-11"/>
      <point x="394" y="61"/>
      <point x="394" y="173" type="curve" smooth="yes"/>
      <point x="394" y="283"/>
      <point x="324" y="355"/>
      <point x="220" y="355" type="curve" smooth="yes"/>
      <point x="117" y="355"/>
      <point x="45" y="284"/>
      <point x="45" y="173" type="curve" smooth="yes"/>
      <point x="45" y="62"/>
      <point x="113" y="-11"/>
    </contour>
    <contour>
      <point x="221" y="60" type="curve" smooth="yes"/>
      <point x="168" y="60"/>
      <point x="127" y="96"/>
      <point x="127" y="172" type="curve" smooth="yes"/>
      <point x="127" y="246"/>
      <point x="167" y="284"/>
      <point x="220" y="284" type="curve" smooth="yes"/>
      <point x="270" y="284"/>
      <point x="312" y="248"/>
      <point x="312" y="174" type="curve" smooth="yes"/>
      <point x="312" y="98"/>
      <point x="272" y="60"/>
    </contour>
    <contour>
      <point x="679" y="-11" type="curve" smooth="yes"/>
      <point x="779" y="-11"/>
      <point x="851" y="61"/>
      <point x="851" y="173" type="curve" smooth="yes"/>
      <point x="851" y="283"/>
      <point x="781" y="355"/>
      <point x="677" y="355" type="curve" smooth="yes"/>
      <point x="574" y="355"/>
      <point x="502" y="284"/>
      <point x="502" y="173" type="curve" smooth="yes"/>
      <point x="502" y="61"/>
      <point x="571" y="-11"/>
    </contour>
    <contour>
      <point x="678" y="60" type="curve" smooth="yes"/>
      <point x="625" y="60"/>
      <point x="584" y="96"/>
      <point x="584" y="172" type="curve" smooth="yes"/>
      <point x="584" y="246"/>
      <point x="624" y="284"/>
      <point x="677" y="284" type="curve" smooth="yes"/>
      <point x="726" y="284"/>
      <point x="769" y="248"/>
      <point x="769" y="174" type="curve" smooth="yes"/>
      <point x="769" y="98"/>
      <point x="729" y="60"/>
    </contour>
    <contour>
      <point x="450" y="477" type="curve" smooth="yes"/>
      <point x="550" y="477"/>
      <point x="622" y="549"/>
      <point x="622" y="661" type="curve" smooth="yes"/>
      <point x="622" y="771"/>
      <point x="552" y="843"/>
      <point x="448" y="843" type="curve" smooth="yes"/>
      <point x="345" y="843"/>
      <point x="273" y="772"/>
      <point x="273" y="661" type="curve" smooth="yes"/>
      <point x="273" y="549"/>
      <point x="342" y="477"/>
    </contour>
    <contour>
      <point x="449" y="548" type="curve" smooth="yes"/>
      <point x="396" y="548"/>
      <point x="355" y="584"/>
      <point x="355" y="660" type="curve" smooth="yes"/>
      <point x="355" y="734"/>
      <point x="395" y="772"/>
      <point x="448" y="772" type="curve" smooth="yes"/>
      <point x="498" y="772"/>
      <point x="540" y="736"/>
      <point x="540" y="662" type="curve" smooth="yes"/>
      <point x="540" y="586"/>
      <point x="500" y="548"/>
    </contour>
  </outline>
</glyph>
<glyph name="atamil" format="2">
  <advance width="1121"/>
  <unicode hex="0B85"/>
  <outline>
    <contour>
      <point x="321" y="-124" type="curve" smooth="yes"/>
      <point x="342" y="-124" type="line"/>
      <point x="565" y="-124"/>
      <point x="741" y="-36"/>
      <point x="798" y="128" type="curve"/>
      <point x="804" y="150" type="line"/>
      <point x="812" y="182"/>
      <point x="816" y="216"/>
      <point x="816" y="252" type="curve" smooth="yes"/>
      <point x="816" y="412"/>
      <point x="708" y="566"/>
      <point x="503" y="566" type="curve" smooth="yes"/>
      <point x="399" y="566"/>
      <point x="300" y="517"/>
      <point x="300" y="393" type="curve" smooth="yes"/>
      <point x="300" y="292"/>
      <point x="372" y="241"/>
      <point x="463" y="241" type="curve" smooth="yes"/>
      <point x="568" y="241"/>
      <point x="626" y="302"/>
      <point x="626" y="396" type="curve" smooth="yes"/>
      <point x="626" y="450"/>
      <point x="593" y="497"/>
      <point x="558" y="527" type="curve"/>
      <point x="501" y="510" type="line"/>
      <point x="536" y="478"/>
      <point x="548" y="444"/>
      <point x="548" y="400" type="curve" smooth="yes"/>
      <point x="548" y="341"/>
      <point x="515" y="309"/>
      <point x="465" y="309" type="curve" smooth="yes"/>
      <point x="410" y="309"/>
      <point x="379" y="347"/>
      <point x="379" y="397" type="curve" smooth="yes"/>
      <point x="379" y="464"/>
      <point x="430" y="497"/>
      <point x="493" y="497" type="curve" smooth="yes"/>
      <point x="510" y="497"/>
      <point x="525" y="496"/>
      <point x="542" y="494" type="curve"/>
      <point x="672" y="474"/>
      <point x="730" y="367"/>
      <point x="730" y="251" type="curve" smooth="yes"/>
      <point x="730" y="216"/>
      <point x="725" y="182"/>
      <point x="713" y="149" type="curve"/>
      <point x="709" y="130" type="line"/>
      <point x="661" y="26"/>
      <point x="545" y="-51"/>
      <point x="344" y="-51" type="curve" smooth="yes"/>
      <point x="327" y="-51" type="line" smooth="yes"/>
      <point x="184" y="-51"/>
      <point x="114" y="-9"/>
      <point x="114" y="56" type="curve" smooth="yes"/>
      <point x="114" y="71"/>
      <point x="120" y="83"/>
      <point x="129" y="90" type="curve" smooth="yes"/>
      <point x="144" y="101"/>
      <point x="154" y="104"/>
      <point x="217" y="104" type="curve" smooth="yes"/>
      <point x="956" y="104" type="line"/>
      <point x="953" y="176" type="line"/>
      <point x="206" y="176" type="line" smooth="yes"/>
      <point x="125" y="176"/>
      <point x="99" y="166"/>
      <point x="74" y="149" type="curve" smooth="yes"/>
      <point x="43" y="128"/>
      <point x="29" y="93"/>
      <point x="29" y="60" type="curve" smooth="yes"/>
      <point x="29" y="-48"/>
      <point x="127" y="-124"/>
    </contour>
    <contour>
      <point x="947" y="-154" type="line"/>
      <point x="1033" y="-154" type="line"/>
      <point x="1033" y="554" type="line"/>
      <point x="947" y="554" type="line"/>
    </contour>
  </outline>
</glyph>
<glyph name="aatamil" format="2">
  <advance width="1313"/>
  <unicode hex="0B86"/>
  <outline>
    <contour>
      <point x="321" y="-124" type="curve" smooth="yes"/>
      <point x="342" y="-124" type="line" smooth="yes"/>
      <point x="565" y="-124"/>
      <point x="741" y="-36"/>
      <point x="798" y="128" type="curve"/>
      <point x="804" y="150" type="line"/>
      <point x="812" y="182"/>
      <point x="816" y="216"/>
      <point x="816" y="252" type="curve" smooth="yes"/>
      <point x="816" y="412"/>
      <point x="708" y="566"/>
      <point x="503" y="566" type="curve" smooth="yes"/>
      <point x="399" y="566"/>
      <point x="300" y="517"/>
      <point x="300" y="393" type="curve" smooth="yes"/>
      <point x="300" y="292"/>
      <point x="372" y="241"/>
      <point x="463" y="241" type="curve" smooth="yes"/>
      <point x="568" y="241"/>
      <point x="626" y="302"/>
      <point x="626" y="396" type="curve" smooth="yes"/>
      <point x="626" y="450"/>
      <point x="593" y="497"/>
      <point x="558" y="527" type="curve"/>
      <point x="501" y="510" type="line"/>
      <point x="536" y="478"/>
      <point x="548" y="444"/>
      <point x="548" y="400" type="curve" smooth="yes"/>
      <point x="548" y="341"/>
      <point x="515" y="309"/>
      <point x="465" y="309" type="curve" smooth="yes"/>
      <point x="410" y="309"/>
      <point x="379" y="347"/>
      <point x="379" y="397" type="curve" smooth="yes"/>
      <point x="379" y="464"/>
      <point x="430" y="497"/>
      <point x="493" y="497" type="curve" smooth="yes"/>
      <point x="510" y="497"/>
      <point x="525" y="496"/>
      <point x="542" y="494" type="curve" smooth="yes"/>
      <point x="672" y="474"/>
      <point x="730" y="367"/>
      <point x="730" y="251" type="curve" smooth="yes"/>
      <point x="730" y="216"/>
      <point x="725" y="182"/>
      <point x="713" y="149" type="curve"/>
      <point x="709" y="130" type="line"/>
      <point x="661" y="26"/>
      <point x="545" y="-51"/>
      <point x="344" y="-51" type="curve" smooth="yes"/>
      <point x="327" y="-51" type="line" smooth="yes"/>
      <point x="184" y="-51"/>
      <point x="114" y="-9"/>
      <point x="114" y="56" type="curve" smooth="yes"/>
      <point x="114" y="71"/>
      <point x="120" y="83"/>
      <point x="129" y="90" type="curve" smooth="yes"/>
      <point x="144" y="101"/>
      <point x="154" y="104"/>
      <point x="217" y="104" type="curve" smooth="yes"/>
      <point x="956" y="104" type="line"/>
      <point x="953" y="176" type="line"/>
      <point x="206" y="176" type="line" smooth="yes"/>
      <point x="125" y="176"/>
      <point x="99" y="166"/>
      <point x="74" y="149" type="curve" smooth="yes"/>
      <point x="43" y="128"/>
      <point x="29" y="93"/>
      <point x="29" y="60" type="curve" smooth="yes"/>
      <point x="29" y="-48"/>
      <point x="127" y="-124"/>
    </contour>
    <contour>
      <point x="922" y="-321" type="curve" smooth="yes"/>
      <point x="928" y="-321" type="line" smooth="yes"/>
      <point x="1164" y="-321"/>
      <point x="1309" y="-218"/>
      <point x="1309" y="-65" type="curve" smooth="yes"/>
      <point x="1309" y="47"/>
      <point x="1227" y="100"/>
      <point x="1145" y="100" type="curve" smooth="yes"/>
      <point x="1094" y="100"/>
      <point x="1059" y="86"/>
      <point x="1033" y="70" type="curve"/>
      <point x="1033" y="1" type="line"/>
      <point x="1056" y="18"/>
      <point x="1088" y="31"/>
      <point x="1131" y="31" type="curve" smooth="yes"/>
      <point x="1190" y="31"/>
      <point x="1225" y="-5"/>
      <point x="1225" y="-63" type="curve" smooth="yes"/>
      <point x="1225" y="-182"/>
      <point x="1104" y="-249"/>
      <point x="933" y="-249" type="curve" smooth="yes"/>
      <point x="926" y="-249" type="line" smooth="yes"/>
      <point x="774" y="-249"/>
      <point x="725" y="-205"/>
      <point x="725" y="-157" type="curve" smooth="yes"/>
      <point x="725" y="-126"/>
      <point x="749" y="-110"/>
      <point x="790" y="-110" type="curve" smooth="yes"/>
      <point x="817" y="-110"/>
      <point x="848" y="-118"/>
      <point x="877" y="-127" type="curve"/>
      <point x="891" y="-62" type="line"/>
      <point x="857" y="-49"/>
      <point x="819" y="-41"/>
      <point x="784" y="-41" type="curve" smooth="yes"/>
      <point x="691" y="-41"/>
      <point x="648" y="-97"/>
      <point x="648" y="-154" type="curve" smooth="yes"/>
      <point x="648" y="-261"/>
      <point x="749" y="-321"/>
    </contour>
    <contour>
      <point x="947" y="-124" type="line"/>
      <point x="1033" y="-124" type="line"/>
      <point x="1033" y="554" type="line"/>
      <point x="947" y="554" type="line"/>
    </contour>
  </outline>
</glyph>
<glyph name="itamil" format="2">
  <advance width="1126"/>
  <unicode hex="0B87"/>
  <outline>
    <contour>
      <point x="256" y="-321" type="curve" smooth="yes"/>
      <point x="347" y="-321"/>
      <point x="435" y="-295"/>
      <point x="520" y="-249" type="curve"/>
      <point x="628" y="-187"/>
      <point x="714" y="-87"/>
      <point x="759" y="35" type="curve"/>
      <point x="792" y="111"/>
      <point x="802" y="195"/>
      <point x="802" y="254" type="curve" smooth="yes"/>
      <point x="802" y="441"/>
      <point x="705" y="566"/>
      <point x="513" y="566" type="curve" smooth="yes"/>
      <point x="386" y="566"/>
      <point x="289" y="512"/>
      <point x="289" y="398" type="curve" smooth="yes"/>
      <point x="289" y="305"/>
      <point x="362" y="244"/>
      <point x="452" y="244" type="curve" smooth="yes"/>
      <point x="557" y="244"/>
      <point x="615" y="305"/>
      <point x="615" y="392" type="curve" smooth="yes"/>
      <point x="615" y="440"/>
      <point x="594" y="481"/>
      <point x="567" y="510" type="curve"/>
      <point x="487" y="515" type="line"/>
      <point x="521" y="479"/>
      <point x="537" y="444"/>
      <point x="537" y="402" type="curve" smooth="yes"/>
      <point x="537" y="344"/>
      <point x="503" y="312"/>
      <point x="454" y="312" type="curve" smooth="yes"/>
      <point x="399" y="312"/>
      <point x="368" y="349"/>
      <point x="368" y="399" type="curve" smooth="yes"/>
      <point x="368" y="465"/>
      <point x="423" y="497"/>
      <point x="495" y="497" type="curve" smooth="yes"/>
      <point x="507" y="497"/>
      <point x="520" y="496"/>
      <point x="530" y="495" type="curve"/>
      <point x="580" y="490" type="line"/>
      <point x="648" y="468"/>
      <point x="715" y="394"/>
      <point x="715" y="250" type="curve" smooth="yes"/>
      <point x="715" y="193"/>
      <point x="706" y="137"/>
      <point x="688" y="83" type="curve"/>
      <point x="655" y="-32"/>
      <point x="554" y="-158"/>
      <point x="431" y="-214" type="curve"/>
      <point x="379" y="-243"/>
      <point x="327" y="-249"/>
      <point x="268" y="-249" type="curve" smooth="yes"/>
      <point x="173" y="-249"/>
      <point x="134" y="-201"/>
      <point x="134" y="-128" type="curve" smooth="yes"/>
      <point x="134" y="-75"/>
      <point x="161" y="-23"/>
      <point x="220" y="16" type="curve"/>
      <point x="276" y="53"/>
      <point x="363" y="79"/>
      <point x="481" y="79" type="curve" smooth="yes"/>
      <point x="565" y="79"/>
      <point x="649" y="64"/>
      <point x="713" y="31" type="curve" smooth="yes"/>
      <point x="778" y="-3"/>
      <point x="824" y="-61"/>
      <point x="824" y="-129" type="curve" smooth="yes"/>
      <point x="824" y="-200"/>
      <point x="787" y="-249"/>
      <point x="689" y="-249" type="curve" smooth="yes"/>
      <point x="621" y="-249"/>
      <point x="563" y="-238"/>
      <point x="506" y="-206" type="curve"/>
      <point x="386" y="-143"/>
      <point x="286" y="-31"/>
      <point x="241" y="67" type="curve"/>
      <point x="190" y="165"/>
      <point x="162" y="251"/>
      <point x="162" y="375" type="curve" smooth="yes"/>
      <point x="162" y="630"/>
      <point x="342" y="768"/>
      <point x="567" y="768" type="curve" smooth="yes"/>
      <point x="694" y="768"/>
      <point x="780" y="736"/>
      <point x="843" y="671" type="curve" smooth="yes"/>
      <point x="920" y="591"/>
      <point x="952" y="463"/>
      <point x="952" y="272" type="curve" smooth="yes"/>
      <point x="952" y="0" type="line"/>
      <point x="1038" y="0" type="line"/>
      <point x="1038" y="322" type="line" smooth="yes"/>
      <point x="1038" y="503"/>
      <point x="1001" y="617"/>
      <point x="925" y="707" type="curve" smooth="yes"/>
      <point x="848" y="798"/>
      <point x="731" y="843"/>
      <point x="567" y="843" type="curve" smooth="yes"/>
      <point x="232" y="843"/>
      <point x="76" y="611"/>
      <point x="76" y="379" type="curve" smooth="yes"/>
      <point x="76" y="249"/>
      <point x="110" y="140"/>
      <point x="171" y="30" type="curve"/>
      <point x="229" y="-80"/>
      <point x="329" y="-194"/>
      <point x="433" y="-243" type="curve"/>
      <point x="516" y="-295"/>
      <point x="605" y="-321"/>
      <point x="698" y="-321" type="curve" smooth="yes"/>
      <point x="835" y="-321"/>
      <point x="910" y="-250"/>
      <point x="910" y="-134" type="curve" smooth="yes"/>
      <point x="910" y="-44"/>
      <point x="854" y="46"/>
      <point x="740" y="100" type="curve" smooth="yes"/>
      <point x="673" y="132"/>
      <point x="586" y="151"/>
      <point x="479" y="151" type="curve" smooth="yes"/>
      <point x="368" y="151"/>
      <point x="262" y="127"/>
      <point x="183" y="81" type="curve" smooth="yes"/>
      <point x="102" y="33"/>
      <point x="49" y="-39"/>
      <point x="49" y="-134" type="curve" smooth="yes"/>
      <point x="49" y="-250"/>
      <point x="126" y="-321"/>
    </contour>
  </outline>
</glyph>
<glyph name="iitamil" format="2">
  <advance width="707"/>
  <unicode hex="0B88"/>
  <outline>
    <contour>
      <point x="88" y="0" type="line"/>
      <point x="174" y="0" type="line"/>
      <point x="174" y="482" type="line"/>
      <point x="397" y="482" type="line"/>
      <point x="397" y="0" type="line"/>
      <point x="483" y="0" type="line"/>
      <point x="483" y="482" type="line"/>
      <point x="682" y="482" type="line"/>
      <point x="682" y="554" type="line"/>
      <point x="88" y="554" type="line"/>
    </contour>
    <contour>
      <point x="286" y="214" type="curve" smooth="yes"/>
      <point x="322" y="214"/>
      <point x="349" y="241"/>
      <point x="349" y="278" type="curve" smooth="yes"/>
      <point x="349" y="314"/>
      <point x="322" y="341"/>
      <point x="286" y="341" type="curve" smooth="yes"/>
      <point x="249" y="341"/>
      <point x="222" y="314"/>
      <point x="222" y="278" type="curve" smooth="yes"/>
      <point x="222" y="241"/>
      <point x="250" y="214"/>
    </contour>
    <contour>
      <point x="594" y="214" type="curve" smooth="yes"/>
      <point x="630" y="214"/>
      <point x="657" y="241"/>
      <point x="657" y="278" type="curve" smooth="yes"/>
      <point x="657" y="314"/>
      <point x="630" y="341"/>
      <point x="594" y="341" type="curve" smooth="yes"/>
      <point x="557" y="341"/>
      <point x="530" y="314"/>
      <point x="530" y="278" type="curve" smooth="yes"/>
      <point x="530" y="241"/>
      <point x="558" y="214"/>
    </contour>
  </outline>
</glyph>
<glyph name="uutamil" format="2">
  <advance width="1540"/>
  <unicode hex="0B8A"/>
  <outline>
    <contour>
      <point x="298" y="566" type="curve" smooth="yes"/>
      <point x="157" y="566"/>
      <point x="57" y="512"/>
      <point x="57" y="398" type="curve" smooth="yes"/>
      <point x="57" y="305"/>
      <point x="130" y="244"/>
      <point x="220" y="244" type="curve" smooth="yes"/>
      <point x="325" y="244"/>
      <point x="383" y="305"/>
      <point x="383" y="392" type="curve" smooth="yes"/>
      <point x="383" y="451"/>
      <point x="353" y="498"/>
      <point x="318" y="527" type="curve"/>
      <point x="258" y="510" type="line"/>
      <point x="292" y="478"/>
      <point x="305" y="440"/>
      <point x="305" y="402" type="curve" smooth="yes"/>
      <point x="305" y="344"/>
      <point x="271" y="312"/>
      <point x="222" y="312" type="curve" smooth="yes"/>
      <point x="167" y="312"/>
      <point x="136" y="349"/>
      <point x="136" y="399" type="curve" smooth="yes"/>
      <point x="136" y="465"/>
      <point x="191" y="497"/>
      <point x="263" y="497" type="curve" smooth="yes"/>
      <point x="270" y="497"/>
      <point x="287" y="497"/>
      <point x="302" y="497" type="curve" smooth="yes"/>
      <point x="330" y="496" type="line" smooth="yes"/>
      <point x="449" y="492"/>
      <point x="516" y="432"/>
      <point x="516" y="349" type="curve" smooth="yes"/>
      <point x="516" y="284"/>
      <point x="485" y="224"/>
      <point x="298" y="205" type="curve" smooth="yes"/>
      <point x="226" y="198" type="line" smooth="yes"/>
      <point x="105" y="186"/>
      <point x="62" y="154"/>
      <point x="62" y="94" type="curve" smooth="yes"/>
      <point x="62" y="41"/>
      <point x="97" y="0"/>
      <point x="191" y="0" type="curve" smooth="yes"/>
      <point x="1494" y="0" type="line"/>
      <point x="1494" y="72" type="line"/>
      <point x="182" y="72" type="line" smooth="yes"/>
      <point x="156" y="72"/>
      <point x="147" y="79"/>
      <point x="147" y="95" type="curve" smooth="yes"/>
      <point x="147" y="112"/>
      <point x="156" y="120"/>
      <point x="229" y="127" type="curve" smooth="yes"/>
      <point x="309" y="135" type="line" smooth="yes"/>
      <point x="483" y="153"/>
      <point x="602" y="193"/>
      <point x="602" y="349" type="curve" smooth="yes"/>
      <point x="602" y="467"/>
      <point x="512" y="566"/>
    </contour>
    <contour>
      <point x="858" y="132" type="curve" smooth="yes"/>
      <point x="944" y="132"/>
      <point x="997" y="184"/>
      <point x="997" y="270" type="curve" smooth="yes"/>
      <point x="997" y="347"/>
      <point x="945" y="398"/>
      <point x="867" y="398" type="curve" smooth="yes"/>
      <point x="814" y="398"/>
      <point x="763" y="365"/>
      <point x="731" y="317" type="curve"/>
      <point x="746" y="259" type="line"/>
      <point x="776" y="306"/>
      <point x="811" y="333"/>
      <point x="850" y="333" type="curve" smooth="yes"/>
      <point x="892" y="333"/>
      <point x="922" y="307"/>
      <point x="922" y="263" type="curve" smooth="yes"/>
      <point x="922" y="220"/>
      <point x="895" y="196"/>
      <point x="858" y="196" type="curve" smooth="yes"/>
      <point x="806" y="196"/>
      <point x="769" y="229"/>
      <point x="769" y="321" type="curve"/>
      <point x="770" y="346" type="line"/>
      <point x="778" y="436"/>
      <point x="841" y="496"/>
      <point x="937" y="496" type="curve" smooth="yes"/>
      <point x="1009" y="496"/>
      <point x="1047" y="465"/>
      <point x="1082" y="423" type="curve"/>
      <point x="1096" y="512" type="line"/>
      <point x="1054" y="544"/>
      <point x="1006" y="566"/>
      <point x="931" y="566" type="curve" smooth="yes"/>
      <point x="811" y="566"/>
      <point x="695" y="492"/>
      <point x="695" y="325" type="curve" smooth="yes"/>
      <point x="695" y="190"/>
      <point x="771" y="132"/>
    </contour>
    <contour>
      <point x="1077" y="144" type="line"/>
      <point x="1159" y="144" type="line"/>
      <point x="1159" y="486" type="line"/>
      <point x="1294" y="486" type="line"/>
      <point x="1294" y="144" type="line"/>
      <point x="1376" y="144" type="line"/>
      <point x="1376" y="486" type="line"/>
      <point x="1494" y="486" type="line"/>
      <point x="1494" y="554" type="line"/>
      <point x="1090" y="554" type="line"/>
      <point x="1090" y="497" type="line"/>
      <point x="1077" y="467" type="line"/>
    </contour>
  </outline>
</glyph>
<glyph name="eetamil" format="2">
  <advance width="801"/>
  <unicode hex="0B8F"/>
  <outline>
    <contour>
      <point x="392" y="-212" type="line"/>
      <point x="614" y="0" type="line"/>
      <point x="614" y="482" type="line"/>
      <point x="784" y="482" type="line"/>
      <point x="784" y="554" type="line"/>
      <point x="494" y="554" type="line"/>
      <point x="492" y="482" type="line"/>
      <point x="528" y="482" type="line"/>
      <point x="528" y="24" type="line"/>
      <point x="335" y="-159" type="line"/>
    </contour>
    <contour>
      <point x="249" y="-12" type="curve" smooth="yes"/>
      <point x="356" y="-12"/>
      <point x="422" y="54"/>
      <point x="422" y="165" type="curve" smooth="yes"/>
      <point x="422" y="265"/>
      <point x="357" y="328"/>
      <point x="261" y="328" type="curve" smooth="yes"/>
      <point x="195" y="328"/>
      <point x="133" y="295"/>
      <point x="93" y="248" type="curve"/>
      <point x="108" y="184" type="line"/>
      <point x="147" y="227"/>
      <point x="194" y="258"/>
      <point x="247" y="258" type="curve" smooth="yes"/>
      <point x="302" y="258"/>
      <point x="340" y="221"/>
      <point x="340" y="155" type="curve" smooth="yes"/>
      <point x="340" y="91"/>
      <point x="305" y="56"/>
      <point x="254" y="56" type="curve" smooth="yes"/>
      <point x="186" y="56"/>
      <point x="136" y="107"/>
      <point x="136" y="232" type="curve" smooth="yes"/>
      <point x="136" y="313"/>
      <point x="163" y="378"/>
      <point x="214" y="423" type="curve" smooth="yes"/>
      <point x="254" y="458"/>
      <point x="310" y="482"/>
      <point x="439" y="482" type="curve" smooth="yes"/>
      <point x="508" y="482" type="line"/>
      <point x="508" y="554" type="line"/>
      <point x="451" y="554" type="line" smooth="yes"/>
      <point x="301" y="554"/>
      <point x="213" y="525"/>
      <point x="150" y="468" type="curve" smooth="yes"/>
      <point x="93" y="417"/>
      <point x="57" y="341"/>
      <point x="57" y="239" type="curve" smooth="yes"/>
      <point x="57" y="63"/>
      <point x="142" y="-12"/>
    </contour>
  </outline>
</glyph>
<glyph name="aitamil" format="2">
  <advance width="1022"/>
  <unicode hex="0B90"/>
  <outline>
    <contour>
      <point x="338" y="-321" type="curve" smooth="yes"/>
      <point x="452" y="-321"/>
      <point x="533" y="-273"/>
      <point x="566" y="-187" type="curve"/>
      <point x="548" y="-191" type="line"/>
      <point x="570" y="-252"/>
      <point x="620" y="-321"/>
      <point x="750" y="-321" type="curve" smooth="yes"/>
      <point x="868" y="-321"/>
      <point x="959" y="-246"/>
      <point x="959" y="-108" type="curve" smooth="yes"/>
      <point x="959" y="-43"/>
      <point x="949" y="0"/>
      <point x="932" y="45" type="curve"/>
      <point x="847" y="16" type="line"/>
      <point x="862" y="-15"/>
      <point x="872" y="-68"/>
      <point x="872" y="-105" type="curve" smooth="yes"/>
      <point x="872" y="-213"/>
      <point x="813" y="-248"/>
      <point x="749" y="-248" type="curve" smooth="yes"/>
      <point x="683" y="-248"/>
      <point x="644" y="-223"/>
      <point x="622" y="-178" type="curve" smooth="yes"/>
      <point x="606" y="-145"/>
      <point x="600" y="-101"/>
      <point x="600" y="-47" type="curve" smooth="yes"/>
      <point x="600" y="-11" type="line"/>
      <point x="513" y="-11" type="line"/>
      <point x="513" y="-73" type="line" smooth="yes"/>
      <point x="513" y="-145"/>
      <point x="501" y="-182"/>
      <point x="467" y="-212" type="curve" smooth="yes"/>
      <point x="437" y="-238"/>
      <point x="396" y="-248"/>
      <point x="340" y="-248" type="curve" smooth="yes"/>
      <point x="235" y="-248"/>
      <point x="151" y="-201"/>
      <point x="151" y="-93" type="curve" smooth="yes"/>
      <point x="151" y="-51"/>
      <point x="161" y="-18"/>
      <point x="187" y="8" type="curve" smooth="yes"/>
      <point x="233" y="54"/>
      <point x="315" y="63"/>
      <point x="448" y="63" type="curve" smooth="yes"/>
      <point x="542" y="63" type="line" smooth="yes"/>
      <point x="680" y="63"/>
      <point x="807" y="77"/>
      <point x="883" y="143" type="curve" smooth="yes"/>
      <point x="931" y="184"/>
      <point x="959" y="245"/>
      <point x="959" y="335" type="curve" smooth="yes"/>
      <point x="959" y="470"/>
      <point x="878" y="566"/>
      <point x="729" y="566" type="curve" smooth="yes"/>
      <point x="633" y="566"/>
      <point x="570" y="516"/>
      <point x="541" y="430" type="curve"/>
      <point x="559" y="439" type="line"/>
      <point x="532" y="500"/>
      <point x="477" y="566"/>
      <point x="331" y="566" type="curve" smooth="yes"/>
      <point x="188" y="566"/>
      <point x="63" y="485"/>
      <point x="63" y="345" type="curve" smooth="yes"/>
      <point x="63" y="254"/>
      <point x="122" y="184"/>
      <point x="235" y="184" type="curve" smooth="yes"/>
      <point x="336" y="184"/>
      <point x="404" y="246"/>
      <point x="404" y="342" type="curve" smooth="yes"/>
      <point x="404" y="430"/>
      <point x="334" y="486"/>
      <point x="242" y="494" type="curve"/>
      <point x="178" y="448" type="line"/>
      <point x="261" y="448"/>
      <point x="322" y="405"/>
      <point x="322" y="335" type="curve" smooth="yes"/>
      <point x="322" y="283"/>
      <point x="286" y="252"/>
      <point x="234" y="252" type="curve" smooth="yes"/>
      <point x="168" y="252"/>
      <point x="142" y="291"/>
      <point x="142" y="348" type="curve" smooth="yes"/>
      <point x="142" y="396"/>
      <point x="162" y="441"/>
      <point x="217" y="470" type="curve"/>
      <point x="252" y="484" type="line"/>
      <point x="279" y="493"/>
      <point x="296" y="496"/>
      <point x="337" y="496" type="curve" smooth="yes"/>
      <point x="469" y="496"/>
      <point x="513" y="417"/>
      <point x="513" y="297" type="curve" smooth="yes"/>
      <point x="513" y="205" type="line"/>
      <point x="600" y="205" type="line"/>
      <point x="600" y="319" type="line" smooth="yes"/>
      <point x="600" y="391"/>
      <point x="609" y="426"/>
      <point x="635" y="457" type="curve" smooth="yes"/>
      <point x="657" y="482"/>
      <point x="687" y="493"/>
      <point x="726" y="493" type="curve" smooth="yes"/>
      <point x="808" y="493"/>
      <point x="871" y="439"/>
      <point x="871" y="334" type="curve" smooth="yes"/>
      <point x="871" y="271"/>
      <point x="856" y="227"/>
      <point x="823" y="196" type="curve" smooth="yes"/>
      <point x="770" y="148"/>
      <point x="672" y="135"/>
      <point x="521" y="135" type="curve" smooth="yes"/>
      <point x="432" y="135" type="line" smooth="yes"/>
      <point x="312" y="135"/>
      <point x="200" y="123"/>
      <point x="131" y="65" type="curve" smooth="yes"/>
      <point x="89" y="30"/>
      <point x="63" y="-22"/>
      <point x="63" y="-95" type="curve" smooth="yes"/>
      <point x="63" y="-218"/>
      <point x="154" y="-321"/>
    </contour>
  </outline>
</glyph>
<glyph name="otamil" format="2">
  <advance width="985"/>
  <unicode hex="0B92"/>
  <outline>
    <contour>
      <point x="766" y="64" type="curve" smooth="yes"/>
      <point x="898" y="64"/>
      <point x="933" y="167"/>
      <point x="933" y="256" type="curve" smooth="yes"/>
      <point x="933" y="318"/>
      <point x="912" y="385"/>
      <point x="866" y="435" type="curve" smooth="yes"/>
      <point x="791" y="517"/>
      <point x="671" y="566"/>
      <point x="502" y="566" type="curve" smooth="yes"/>
      <point x="360" y="566"/>
      <point x="247" y="543"/>
      <point x="158" y="475" type="curve" smooth="yes"/>
      <point x="95" y="427"/>
      <point x="52" y="357"/>
      <point x="52" y="269" type="curve" smooth="yes"/>
      <point x="52" y="135"/>
      <point x="139" y="64"/>
      <point x="234" y="64" type="curve" smooth="yes"/>
      <point x="337" y="64"/>
      <point x="398" y="126"/>
      <point x="398" y="229" type="curve" smooth="yes"/>
      <point x="398" y="327"/>
      <point x="338" y="382"/>
      <point x="250" y="382" type="curve" smooth="yes"/>
      <point x="214" y="382"/>
      <point x="174" y="370"/>
      <point x="143" y="348" type="curve"/>
      <point x="125" y="262" type="line"/>
      <point x="156" y="292"/>
      <point x="192" y="312"/>
      <point x="230" y="312" type="curve" smooth="yes"/>
      <point x="282" y="312"/>
      <point x="316" y="279"/>
      <point x="316" y="221" type="curve" smooth="yes"/>
      <point x="316" y="164"/>
      <point x="285" y="132"/>
      <point x="239" y="132" type="curve" smooth="yes"/>
      <point x="177" y="132"/>
      <point x="131" y="177"/>
      <point x="131" y="268" type="curve" smooth="yes"/>
      <point x="131" y="280"/>
      <point x="133" y="292"/>
      <point x="135" y="305" type="curve"/>
      <point x="146" y="347" type="line"/>
      <point x="193" y="439"/>
      <point x="318" y="490"/>
      <point x="503" y="490" type="curve" smooth="yes"/>
      <point x="710" y="490"/>
      <point x="848" y="399"/>
      <point x="848" y="245" type="curve" smooth="yes"/>
      <point x="848" y="182"/>
      <point x="820" y="135"/>
      <point x="765" y="135" type="curve" smooth="yes"/>
      <point x="700" y="135"/>
      <point x="683" y="174"/>
      <point x="683" y="221" type="curve" smooth="yes"/>
      <point x="683" y="258"/>
      <point x="692" y="285"/>
      <point x="708" y="319" type="curve"/>
      <point x="627" y="358" type="line"/>
      <point x="528" y="307"/>
      <point x="466" y="223"/>
      <point x="466" y="126" type="curve" smooth="yes"/>
      <point x="466" y="32"/>
      <point x="514" y="-55"/>
      <point x="656" y="-94" type="curve"/>
      <point x="685" y="-102"/>
      <point x="720" y="-108"/>
      <point x="790" y="-108" type="curve" smooth="yes"/>
      <point x="876" y="-108" type="line"/>
      <point x="876" y="-37" type="line"/>
      <point x="796" y="-37" type="line" smooth="yes"/>
      <point x="683" y="-37"/>
      <point x="626" y="-20"/>
      <point x="586" y="23" type="curve" smooth="yes"/>
      <point x="561" y="50"/>
      <point x="547" y="86"/>
      <point x="547" y="134" type="curve" smooth="yes"/>
      <point x="547" y="200"/>
      <point x="581" y="256"/>
      <point x="652" y="295" type="curve"/>
      <point x="640" y="299" type="line"/>
      <point x="618" y="276"/>
      <point x="611" y="234"/>
      <point x="611" y="203" type="curve" smooth="yes"/>
      <point x="611" y="104"/>
      <point x="681" y="64"/>
    </contour>
    <contour>
      <point x="409" y="-321" type="curve" smooth="yes"/>
      <point x="546" y="-321"/>
      <point x="619" y="-260"/>
      <point x="674" y="-153" type="curve"/>
      <point x="683" y="-136"/>
      <point x="700" y="-109"/>
      <point x="713" y="-95" type="curve"/>
      <point x="637" y="-64" type="line"/>
      <point x="627" y="-75"/>
      <point x="605" y="-106"/>
      <point x="593" y="-128" type="curve" smooth="yes"/>
      <point x="551" y="-197"/>
      <point x="505" y="-248"/>
      <point x="416" y="-248" type="curve" smooth="yes"/>
      <point x="354" y="-248"/>
      <point x="295" y="-227"/>
      <point x="295" y="-144" type="curve" smooth="yes"/>
      <point x="295" y="-102"/>
      <point x="309" y="-66"/>
      <point x="342" y="-17" type="curve"/>
      <point x="268" y="19" type="line"/>
      <point x="227" y="-32"/>
      <point x="208" y="-92"/>
      <point x="208" y="-145" type="curve" smooth="yes"/>
      <point x="208" y="-267"/>
      <point x="300" y="-321"/>
    </contour>
  </outline>
</glyph>
<glyph name="katamil" format="2">
  <advance width="825"/>
  <unicode hex="0B95"/>
  <outline>
    <contour>
      <point x="261" y="-12" type="curve" smooth="yes"/>
      <point x="345" y="-12"/>
      <point x="411" y="6"/>
      <point x="452" y="57" type="curve" smooth="yes"/>
      <point x="480" y="91"/>
      <point x="496" y="136"/>
      <point x="496" y="226" type="curve" smooth="yes"/>
      <point x="496" y="482" type="line"/>
      <point x="683" y="482" type="line"/>
      <point x="683" y="554" type="line"/>
      <point x="160" y="554" type="line"/>
      <point x="160" y="286" type="line"/>
      <point x="239" y="302" type="line"/>
      <point x="239" y="482" type="line"/>
      <point x="411" y="482" type="line"/>
      <point x="411" y="213" type="line" smooth="yes"/>
      <point x="411" y="93"/>
      <point x="356" y="60"/>
      <point x="269" y="60" type="curve" smooth="yes"/>
      <point x="192" y="60"/>
      <point x="135" y="91"/>
      <point x="135" y="153" type="curve" smooth="yes"/>
      <point x="135" y="191"/>
      <point x="149" y="215"/>
      <point x="178" y="232" type="curve" smooth="yes"/>
      <point x="211" y="251"/>
      <point x="257" y="258"/>
      <point x="325" y="258" type="curve" smooth="yes"/>
      <point x="519" y="258" type="line" smooth="yes"/>
      <point x="602" y="258"/>
      <point x="690" y="247"/>
      <point x="690" y="156" type="curve" smooth="yes"/>
      <point x="690" y="92"/>
      <point x="657" y="62"/>
      <point x="594" y="62" type="curve" smooth="yes"/>
      <point x="568" y="62"/>
      <point x="541" y="66"/>
      <point x="521" y="72" type="curve"/>
      <point x="502" y="5" type="line"/>
      <point x="533" y="-4"/>
      <point x="571" y="-8"/>
      <point x="602" y="-8" type="curve" smooth="yes"/>
      <point x="713" y="-8"/>
      <point x="776" y="50"/>
      <point x="776" y="152" type="curve" smooth="yes"/>
      <point x="776" y="208"/>
      <point x="755" y="252"/>
      <point x="720" y="279" type="curve" smooth="yes"/>
      <point x="674" y="314"/>
      <point x="616" y="328"/>
      <point x="512" y="328" type="curve" smooth="yes"/>
      <point x="332" y="328" type="line" smooth="yes"/>
      <point x="129" y="328"/>
      <point x="49" y="260"/>
      <point x="49" y="152" type="curve" smooth="yes"/>
      <point x="49" y="47"/>
      <point x="140" y="-12"/>
    </contour>
  </outline>
</glyph>
<glyph name="jatamil" format="2">
  <advance width="1022"/>
  <unicode hex="0B9C"/>
  <outline>
    <contour>
      <point x="331" y="566" type="curve" smooth="yes"/>
      <point x="188" y="566"/>
      <point x="63" y="485"/>
      <point x="63" y="345" type="curve" smooth="yes"/>
      <point x="63" y="254"/>
      <point x="122" y="184"/>
      <point x="235" y="184" type="curve" smooth="yes"/>
      <point x="336" y="184"/>
      <point x="404" y="246"/>
      <point x="404" y="342" type="curve" smooth="yes"/>
      <point x="404" y="430"/>
      <point x="334" y="486"/>
      <point x="242" y="494" type="curve"/>
      <point x="178" y="448" type="line"/>
      <point x="261" y="448"/>
      <point x="322" y="405"/>
      <point x="322" y="335" type="curve" smooth="yes"/>
      <point x="322" y="283"/>
      <point x="286" y="252"/>
      <point x="234" y="252" type="curve" smooth="yes"/>
      <point x="168" y="252"/>
      <point x="142" y="291"/>
      <point x="142" y="348" type="curve" smooth="yes"/>
      <point x="142" y="396"/>
      <point x="162" y="441"/>
      <point x="217" y="470" type="curve"/>
      <point x="252" y="484" type="line"/>
      <point x="279" y="493"/>
      <point x="296" y="496"/>
      <point x="337" y="496" type="curve" smooth="yes"/>
      <point x="466" y="496"/>
      <point x="513" y="422"/>
      <point x="513" y="293" type="curve" smooth="yes"/>
      <point x="513" y="205" type="line"/>
      <point x="600" y="205" type="line"/>
      <point x="600" y="319" type="line" smooth="yes"/>
      <point x="600" y="391"/>
      <point x="609" y="426"/>
      <point x="635" y="457" type="curve" smooth="yes"/>
      <point x="657" y="482"/>
      <point x="687" y="493"/>
      <point x="726" y="493" type="curve" smooth="yes"/>
      <point x="808" y="493"/>
      <point x="871" y="439"/>
      <point x="871" y="334" type="curve" smooth="yes"/>
      <point x="871" y="271"/>
      <point x="856" y="227"/>
      <point x="823" y="196" type="curve" smooth="yes"/>
      <point x="771" y="147"/>
      <point x="672" y="135"/>
      <point x="521" y="135" type="curve" smooth="yes"/>
      <point x="432" y="135" type="line" smooth="yes"/>
      <point x="312" y="135"/>
      <point x="200" y="123"/>
      <point x="131" y="65" type="curve" smooth="yes"/>
      <point x="89" y="30"/>
      <point x="63" y="-22"/>
      <point x="63" y="-95" type="curve" smooth="yes"/>
      <point x="63" y="-214"/>
      <point x="132" y="-321"/>
      <point x="297" y="-321" type="curve" smooth="yes"/>
      <point x="413" y="-321"/>
      <point x="482" y="-266"/>
      <point x="549" y="-184" type="curve" smooth="yes"/>
      <point x="588" y="-136"/>
      <point x="629" y="-97"/>
      <point x="675" y="-83" type="curve"/>
      <point x="693" y="-79"/>
      <point x="713" y="-77"/>
      <point x="733" y="-77" type="curve" smooth="yes"/>
      <point x="792" y="-77"/>
      <point x="865" y="-94"/>
      <point x="865" y="-173" type="curve" smooth="yes"/>
      <point x="865" y="-233"/>
      <point x="824" y="-252"/>
      <point x="789" y="-252" type="curve" smooth="yes"/>
      <point x="729" y="-252"/>
      <point x="707" y="-213"/>
      <point x="707" y="-168" type="curve" smooth="yes"/>
      <point x="707" y="-125"/>
      <point x="727" y="-88"/>
      <point x="772" y="-55" type="curve"/>
      <point x="705" y="-41" type="line"/>
      <point x="659" y="-80"/>
      <point x="625" y="-119"/>
      <point x="625" y="-181" type="curve" smooth="yes"/>
      <point x="625" y="-249"/>
      <point x="673" y="-321"/>
      <point x="787" y="-321" type="curve" smooth="yes"/>
      <point x="879" y="-321"/>
      <point x="946" y="-263"/>
      <point x="946" y="-174" type="curve" smooth="yes"/>
      <point x="946" y="-57"/>
      <point x="846" y="-7"/>
      <point x="751" y="-7" type="curve" smooth="yes"/>
      <point x="622" y="-7"/>
      <point x="562" y="-55"/>
      <point x="478" y="-148" type="curve" smooth="yes"/>
      <point x="425" y="-207"/>
      <point x="380" y="-248"/>
      <point x="292" y="-248" type="curve" smooth="yes"/>
      <point x="228" y="-248"/>
      <point x="151" y="-210"/>
      <point x="151" y="-93" type="curve" smooth="yes"/>
      <point x="151" y="-51"/>
      <point x="161" y="-18"/>
      <point x="187" y="8" type="curve" smooth="yes"/>
      <point x="233" y="54"/>
      <point x="315" y="63"/>
      <point x="448" y="63" type="curve" smooth="yes"/>
      <point x="542" y="63" type="line" smooth="yes"/>
      <point x="680" y="63"/>
      <point x="807" y="77"/>
      <point x="883" y="143" type="curve" smooth="yes"/>
      <point x="931" y="184"/>
      <point x="959" y="245"/>
      <point x="959" y="335" type="curve" smooth="yes"/>
      <point x="959" y="470"/>
      <point x="878" y="566"/>
      <point x="729" y="566" type="curve" smooth="yes"/>
      <point x="633" y="566"/>
      <point x="570" y="516"/>
      <point x="541" y="430" type="curve"/>
      <point x="559" y="439" type="line"/>
      <point x="532" y="500"/>
      <point x="477" y="566"/>
    </contour>
  </outline>
</glyph>
<glyph name="nyatamil" format="2">
  <advance width="1210"/>
  <unicode hex="0B9E"/>
  <outline>
    <contour>
      <point x="980" y="319" type="curve" smooth="yes"/>
      <point x="928" y="319"/>
      <point x="888" y="299"/>
      <point x="863" y="281" type="curve"/>
      <point x="862" y="207" type="line"/>
      <point x="890" y="227"/>
      <point x="924" y="247"/>
      <point x="964" y="247" type="curve" smooth="yes"/>
      <point x="1034" y="247"/>
      <point x="1074" y="191"/>
      <point x="1074" y="84" type="curve" smooth="yes"/>
      <point x="1074" y="-142"/>
      <point x="891" y="-244"/>
      <point x="635" y="-244" type="curve" smooth="yes"/>
      <point x="622" y="-244" type="line" smooth="yes"/>
      <point x="292" y="-244"/>
      <point x="154" y="-73"/>
      <point x="154" y="150" type="curve" smooth="yes"/>
      <point x="154" y="163" type="line" smooth="yes"/>
      <point x="154" y="279"/>
      <point x="197" y="396"/>
      <point x="273" y="510" type="curve"/>
      <point x="199" y="554" type="line"/>
      <point x="131" y="454"/>
      <point x="68" y="308"/>
      <point x="68" y="170" type="curve" smooth="yes"/>
      <point x="68" y="149" type="line" smooth="yes"/>
      <point x="68" y="-84"/>
      <point x="200" y="-321"/>
      <point x="613" y="-321" type="curve" smooth="yes"/>
      <point x="640" y="-321" type="line" smooth="yes"/>
      <point x="909" y="-321"/>
      <point x="1162" y="-214"/>
      <point x="1162" y="83" type="curve" smooth="yes"/>
      <point x="1162" y="234"/>
      <point x="1088" y="319"/>
    </contour>
    <contour>
      <point x="503" y="-12" type="curve" smooth="yes"/>
      <point x="610" y="-12"/>
      <point x="676" y="54"/>
      <point x="676" y="165" type="curve" smooth="yes"/>
      <point x="676" y="265"/>
      <point x="611" y="328"/>
      <point x="514" y="328" type="curve" smooth="yes"/>
      <point x="449" y="328"/>
      <point x="387" y="295"/>
      <point x="347" y="248" type="curve"/>
      <point x="362" y="184" type="line"/>
      <point x="400" y="227"/>
      <point x="448" y="258"/>
      <point x="500" y="258" type="curve" smooth="yes"/>
      <point x="555" y="258"/>
      <point x="594" y="221"/>
      <point x="594" y="155" type="curve" smooth="yes"/>
      <point x="594" y="91"/>
      <point x="559" y="56"/>
      <point x="508" y="56" type="curve" smooth="yes"/>
      <point x="439" y="56"/>
      <point x="390" y="107"/>
      <point x="390" y="232" type="curve" smooth="yes"/>
      <point x="390" y="313"/>
      <point x="417" y="378"/>
      <point x="468" y="423" type="curve" smooth="yes"/>
      <point x="508" y="458"/>
      <point x="564" y="482"/>
      <point x="693" y="482" type="curve" smooth="yes"/>
      <point x="762" y="482" type="line"/>
      <point x="762" y="554" type="line"/>
      <point x="705" y="554" type="line" smooth="yes"/>
      <point x="555" y="554"/>
      <point x="467" y="525"/>
      <point x="404" y="468" type="curve" smooth="yes"/>
      <point x="347" y="417"/>
      <point x="311" y="341"/>
      <point x="311" y="239" type="curve" smooth="yes"/>
      <point x="311" y="63"/>
      <point x="397" y="-12"/>
    </contour>
    <contour>
      <point x="782" y="0" type="line"/>
      <point x="868" y="0" type="line"/>
      <point x="868" y="482" type="line"/>
      <point x="1038" y="482" type="line"/>
      <point x="1038" y="554" type="line"/>
      <point x="748" y="554" type="line"/>
      <point x="746" y="482" type="line"/>
      <point x="782" y="482" type="line"/>
    </contour>
  </outline>
</glyph>
<glyph name="ttatamil" format="2">
  <advance width="693"/>
  <unicode hex="0B9F"/>
  <outline>
    <contour>
      <point x="88" y="0" type="line"/>
      <point x="676" y="0" type="line"/>
      <point x="676" y="72" type="line"/>
      <point x="174" y="72" type="line"/>
      <point x="174" y="554" type="line"/>
      <point x="88" y="554" type="line"/>
    </contour>
  </outline>
</glyph>
<glyph name="nnatamil" format="2">
  <advance width="1648"/>
  <unicode hex="0BA3"/>
  <outline>
    <contour>
      <point x="249" y="-12" type="curve" smooth="yes"/>
      <point x="356" y="-12"/>
      <point x="422" y="54"/>
      <point x="422" y="165" type="curve" smooth="yes"/>
      <point x="422" y="265"/>
      <point x="357" y="328"/>
      <point x="261" y="328" type="curve" smooth="yes"/>
      <point x="195" y="328"/>
      <point x="133" y="295"/>
      <point x="93" y="248" type="curve"/>
      <point x="108" y="184" type="line"/>
      <point x="147" y="227"/>
      <point x="194" y="258"/>
      <point x="247" y="258" type="curve" smooth="yes"/>
      <point x="302" y="258"/>
      <point x="340" y="221"/>
      <point x="340" y="155" type="curve" smooth="yes"/>
      <point x="340" y="91"/>
      <point x="307" y="56"/>
      <point x="253" y="56" type="curve" smooth="yes"/>
      <point x="187" y="56"/>
      <point x="136" y="103"/>
      <point x="136" y="233" type="curve" smooth="yes"/>
      <point x="136" y="244"/>
      <point x="137" y="263"/>
      <point x="139" y="283" type="curve"/>
      <point x="158" y="405"/>
      <point x="249" y="492"/>
      <point x="398" y="492" type="curve" smooth="yes"/>
      <point x="483" y="492"/>
      <point x="558" y="477"/>
      <point x="621" y="433" type="curve"/>
      <point x="698" y="373"/>
      <point x="740" y="289"/>
      <point x="740" y="182" type="curve" smooth="yes"/>
      <point x="740" y="121"/>
      <point x="722" y="56"/>
      <point x="660" y="56" type="curve" smooth="yes"/>
      <point x="611" y="56"/>
      <point x="581" y="97"/>
      <point x="581" y="189" type="curve" smooth="yes"/>
      <point x="581" y="277"/>
      <point x="605" y="372"/>
      <point x="672" y="429" type="curve"/>
      <point x="732" y="477"/>
      <point x="793" y="493"/>
      <point x="868" y="493" type="curve" smooth="yes"/>
      <point x="929" y="493"/>
      <point x="991" y="477"/>
      <point x="1047" y="432" type="curve"/>
      <point x="1104" y="390"/>
      <point x="1155" y="296"/>
      <point x="1155" y="182" type="curve" smooth="yes"/>
      <point x="1155" y="121"/>
      <point x="1137" y="56"/>
      <point x="1074" y="56" type="curve" smooth="yes"/>
      <point x="1026" y="56"/>
      <point x="996" y="97"/>
      <point x="996" y="189" type="curve" smooth="yes"/>
      <point x="996" y="291"/>
      <point x="1030" y="388"/>
      <point x="1096" y="430" type="curve"/>
      <point x="1162" y="474"/>
      <point x="1222" y="482"/>
      <point x="1310" y="482" type="curve" smooth="yes"/>
      <point x="1375" y="482" type="line"/>
      <point x="1375" y="0" type="line"/>
      <point x="1461" y="0" type="line"/>
      <point x="1461" y="482" type="line"/>
      <point x="1631" y="482" type="line"/>
      <point x="1631" y="554" type="line"/>
      <point x="1333" y="554" type="line" smooth="yes"/>
      <point x="1187" y="554"/>
      <point x="1124" y="530"/>
      <point x="1065" y="495" type="curve"/>
      <point x="1020" y="458" type="line"/>
      <point x="941" y="375"/>
      <point x="912" y="287"/>
      <point x="912" y="186" type="curve" smooth="yes"/>
      <point x="912" y="72"/>
      <point x="962" y="-12"/>
      <point x="1077" y="-12" type="curve" smooth="yes"/>
      <point x="1178" y="-12"/>
      <point x="1240" y="56"/>
      <point x="1240" y="189" type="curve" smooth="yes"/>
      <point x="1240" y="298"/>
      <point x="1198" y="391"/>
      <point x="1130" y="457" type="curve"/>
      <point x="1084" y="497" type="line"/>
      <point x="1022" y="543"/>
      <point x="955" y="566"/>
      <point x="866" y="566" type="curve" smooth="yes"/>
      <point x="779" y="566"/>
      <point x="706" y="542"/>
      <point x="644" y="495" type="curve"/>
      <point x="596" y="454" type="line"/>
      <point x="529" y="384"/>
      <point x="497" y="291"/>
      <point x="497" y="186" type="curve" smooth="yes"/>
      <point x="497" y="72"/>
      <point x="547" y="-12"/>
      <point x="663" y="-12" type="curve" smooth="yes"/>
      <point x="763" y="-12"/>
      <point x="825" y="56"/>
      <point x="825" y="189" type="curve" smooth="yes"/>
      <point x="825" y="299"/>
      <point x="779" y="390"/>
      <point x="703" y="459" type="curve"/>
      <point x="662" y="495" type="line"/>
      <point x="584" y="545"/>
      <point x="504" y="566"/>
      <point x="408" y="566" type="curve" smooth="yes"/>
      <point x="195" y="566"/>
      <point x="57" y="440"/>
      <point x="57" y="243" type="curve" smooth="yes"/>
      <point x="57" y="63"/>
      <point x="142" y="-12"/>
    </contour>
  </outline>
</glyph>
<glyph name="tatamil" format="2">
  <advance width="825"/>
  <unicode hex="0BA4"/>
  <outline>
    <contour>
      <point x="261" y="-12" type="curve" smooth="yes"/>
      <point x="345" y="-12"/>
      <point x="411" y="6"/>
      <point x="452" y="57" type="curve" smooth="yes"/>
      <point x="480" y="91"/>
      <point x="496" y="136"/>
      <point x="496" y="226" type="curve" smooth="yes"/>
      <point x="496" y="482" type="line"/>
      <point x="683" y="482" type="line"/>
      <point x="683" y="554" type="line"/>
      <point x="160" y="554" type="line"/>
      <point x="160" y="286" type="line"/>
      <point x="239" y="302" type="line"/>
      <point x="239" y="482" type="line"/>
      <point x="411" y="482" type="line"/>
      <point x="411" y="213" type="line" smooth="yes"/>
      <point x="411" y="94"/>
      <point x="356" y="60"/>
      <point x="269" y="60" type="curve" smooth="yes"/>
      <point x="192" y="60"/>
      <point x="135" y="91"/>
      <point x="135" y="153" type="curve" smooth="yes"/>
      <point x="135" y="191"/>
      <point x="149" y="215"/>
      <point x="178" y="232" type="curve" smooth="yes"/>
      <point x="211" y="251"/>
      <point x="257" y="258"/>
      <point x="325" y="258" type="curve" smooth="yes"/>
      <point x="467" y="258" type="line" smooth="yes"/>
      <point x="575" y="258"/>
      <point x="691" y="235"/>
      <point x="691" y="105" type="curve" smooth="yes"/>
      <point x="691" y="55"/>
      <point x="677" y="16"/>
      <point x="650" y="-13" type="curve" smooth="yes"/>
      <point x="604" y="-63"/>
      <point x="532" y="-84"/>
      <point x="354" y="-84" type="curve" smooth="yes"/>
      <point x="245" y="-84" type="line" smooth="yes"/>
      <point x="178" y="-84"/>
      <point x="139" y="-94"/>
      <point x="104" y="-119" type="curve" smooth="yes"/>
      <point x="70" y="-144"/>
      <point x="47" y="-184"/>
      <point x="47" y="-243" type="curve" smooth="yes"/>
      <point x="47" y="-266"/>
      <point x="50" y="-297"/>
      <point x="54" y="-321" type="curve"/>
      <point x="136" y="-317" type="line"/>
      <point x="134" y="-301"/>
      <point x="133" y="-283"/>
      <point x="133" y="-263" type="curve" smooth="yes"/>
      <point x="133" y="-219"/>
      <point x="145" y="-194"/>
      <point x="167" y="-179" type="curve" smooth="yes"/>
      <point x="189" y="-164"/>
      <point x="216" y="-156"/>
      <point x="272" y="-156" type="curve" smooth="yes"/>
      <point x="385" y="-156" type="line" smooth="yes"/>
      <point x="529" y="-156"/>
      <point x="615" y="-141"/>
      <point x="681" y="-94" type="curve" smooth="yes"/>
      <point x="742" y="-49"/>
      <point x="777" y="9"/>
      <point x="777" y="98" type="curve" smooth="yes"/>
      <point x="777" y="271"/>
      <point x="651" y="328"/>
      <point x="477" y="328" type="curve" smooth="yes"/>
      <point x="332" y="328" type="line" smooth="yes"/>
      <point x="129" y="328"/>
      <point x="49" y="260"/>
      <point x="49" y="152" type="curve" smooth="yes"/>
      <point x="49" y="47"/>
      <point x="140" y="-12"/>
    </contour>
  </outline>
</glyph>
<glyph name="natamil" format="2">
  <advance width="789"/>
  <unicode hex="0BA8"/>
  <outline>
    <contour>
      <point x="557" y="362" type="curve" smooth="yes"/>
      <point x="504" y="362"/>
      <point x="462" y="343"/>
      <point x="427" y="322" type="curve"/>
      <point x="430" y="247" type="line"/>
      <point x="458" y="270"/>
      <point x="498" y="289"/>
      <point x="536" y="289" type="curve" smooth="yes"/>
      <point x="613" y="289"/>
      <point x="655" y="234"/>
      <point x="655" y="131" type="curve" smooth="yes"/>
      <point x="655" y="61"/>
      <point x="637" y="15"/>
      <point x="610" y="-14" type="curve" smooth="yes"/>
      <point x="564" y="-64"/>
      <point x="501" y="-84"/>
      <point x="338" y="-84" type="curve" smooth="yes"/>
      <point x="245" y="-84" type="line" smooth="yes"/>
      <point x="178" y="-84"/>
      <point x="139" y="-94"/>
      <point x="104" y="-119" type="curve" smooth="yes"/>
      <point x="70" y="-144"/>
      <point x="47" y="-184"/>
      <point x="47" y="-243" type="curve" smooth="yes"/>
      <point x="47" y="-266"/>
      <point x="50" y="-297"/>
      <point x="54" y="-321" type="curve"/>
      <point x="136" y="-317" type="line"/>
      <point x="134" y="-301"/>
      <point x="133" y="-283"/>
      <point x="133" y="-263" type="curve" smooth="yes"/>
      <point x="133" y="-219"/>
      <point x="145" y="-194"/>
      <point x="167" y="-179" type="curve" smooth="yes"/>
      <point x="189" y="-164"/>
      <point x="216" y="-156"/>
      <point x="272" y="-156" type="curve" smooth="yes"/>
      <point x="347" y="-156" type="line" smooth="yes"/>
      <point x="491" y="-156"/>
      <point x="577" y="-141"/>
      <point x="642" y="-94" type="curve" smooth="yes"/>
      <point x="704" y="-49"/>
      <point x="741" y="14"/>
      <point x="741" y="134" type="curve" smooth="yes"/>
      <point x="741" y="282"/>
      <point x="658" y="362"/>
    </contour>
    <contour>
      <point x="88" y="0" type="line"/>
      <point x="174" y="0" type="line"/>
      <point x="174" y="482" type="line"/>
      <point x="348" y="482" type="line"/>
      <point x="348" y="0" type="line"/>
      <point x="434" y="0" type="line"/>
      <point x="434" y="482" type="line"/>
      <point x="609" y="482" type="line"/>
      <point x="609" y="554" type="line"/>
      <point x="88" y="554" type="line"/>
    </contour>
  </outline>
</glyph>
<glyph name="nnnatamil" format="2">
  <advance width="1234"/>
  <unicode hex="0BA9"/>
  <outline>
    <contour>
      <point x="249" y="-12" type="curve" smooth="yes"/>
      <point x="356" y="-12"/>
      <point x="422" y="54"/>
      <point x="422" y="165" type="curve" smooth="yes"/>
      <point x="422" y="265"/>
      <point x="357" y="328"/>
      <point x="261" y="328" type="curve" smooth="yes"/>
      <point x="195" y="328"/>
      <point x="133" y="295"/>
      <point x="93" y="248" type="curve"/>
      <point x="108" y="184" type="line"/>
      <point x="147" y="227"/>
      <point x="194" y="258"/>
      <point x="247" y="258" type="curve" smooth="yes"/>
      <point x="302" y="258"/>
      <point x="340" y="221"/>
      <point x="340" y="155" type="curve" smooth="yes"/>
      <point x="340" y="91"/>
      <point x="307" y="56"/>
      <point x="253" y="56" type="curve" smooth="yes"/>
      <point x="187" y="56"/>
      <point x="136" y="103"/>
      <point x="136" y="233" type="curve" smooth="yes"/>
      <point x="136" y="244"/>
      <point x="137" y="263"/>
      <point x="139" y="283" type="curve"/>
      <point x="158" y="405"/>
      <point x="249" y="492"/>
      <point x="398" y="492" type="curve" smooth="yes"/>
      <point x="483" y="492"/>
      <point x="558" y="477"/>
      <point x="621" y="433" type="curve"/>
      <point x="698" y="373"/>
      <point x="740" y="287"/>
      <point x="740" y="182" type="curve" smooth="yes"/>
      <point x="740" y="121"/>
      <point x="722" y="56"/>
      <point x="660" y="56" type="curve" smooth="yes"/>
      <point x="611" y="56"/>
      <point x="581" y="97"/>
      <point x="581" y="189" type="curve" smooth="yes"/>
      <point x="581" y="285"/>
      <point x="615" y="388"/>
      <point x="681" y="430" type="curve"/>
      <point x="742" y="472"/>
      <point x="807" y="482"/>
      <point x="895" y="482" type="curve" smooth="yes"/>
      <point x="961" y="482" type="line"/>
      <point x="961" y="0" type="line"/>
      <point x="1047" y="0" type="line"/>
      <point x="1047" y="482" type="line"/>
      <point x="1217" y="482" type="line"/>
      <point x="1217" y="554" type="line"/>
      <point x="918" y="554" type="line" smooth="yes"/>
      <point x="772" y="554"/>
      <point x="709" y="530"/>
      <point x="650" y="495" type="curve"/>
      <point x="600" y="454" type="line"/>
      <point x="531" y="380"/>
      <point x="497" y="291"/>
      <point x="497" y="186" type="curve" smooth="yes"/>
      <point x="497" y="72"/>
      <point x="547" y="-12"/>
      <point x="663" y="-12" type="curve" smooth="yes"/>
      <point x="763" y="-12"/>
      <point x="825" y="56"/>
      <point x="825" y="189" type="curve" smooth="yes"/>
      <point x="825" y="298"/>
      <point x="779" y="390"/>
      <point x="708" y="453" type="curve"/>
      <point x="662" y="495" type="line"/>
      <point x="584" y="545"/>
      <point x="504" y="566"/>
      <point x="408" y="566" type="curve" smooth="yes"/>
      <point x="195" y="566"/>
      <point x="57" y="440"/>
      <point x="57" y="243" type="curve" smooth="yes"/>
      <point x="57" y="63"/>
      <point x="142" y="-12"/>
    </contour>
  </outline>
</glyph>
<glyph name="patamil" format="2">
  <advance width="778"/>
  <unicode hex="0BAA"/>
  <outline>
    <contour>
      <point x="88" y="0" type="line"/>
      <point x="690" y="0" type="line"/>
      <point x="690" y="554" type="line"/>
      <point x="604" y="554" type="line"/>
      <point x="604" y="72" type="line"/>
      <point x="174" y="72" type="line"/>
      <point x="174" y="554" type="line"/>
      <point x="88" y="554" type="line"/>
    </contour>
  </outline>
</glyph>
<glyph name="matamil" format="2">
  <advance width="858"/>
  <unicode hex="0BAE"/>
  <outline>
    <contour>
      <point x="580" y="566" type="curve" smooth="yes"/>
      <point x="516" y="566"/>
      <point x="475" y="548"/>
      <point x="445" y="515" type="curve" smooth="yes"/>
      <point x="415" y="481"/>
      <point x="400" y="437"/>
      <point x="400" y="355" type="curve" smooth="yes"/>
      <point x="400" y="72" type="line"/>
      <point x="174" y="72" type="line"/>
      <point x="174" y="554" type="line"/>
      <point x="88" y="554" type="line"/>
      <point x="88" y="0" type="line"/>
      <point x="512" y="0" type="line" smooth="yes"/>
      <point x="627" y="0"/>
      <point x="687" y="14"/>
      <point x="734" y="60" type="curve" smooth="yes"/>
      <point x="778" y="103"/>
      <point x="797" y="169"/>
      <point x="797" y="262" type="curve" smooth="yes"/>
      <point x="797" y="442"/>
      <point x="729" y="566"/>
    </contour>
    <contour>
      <point x="578" y="494" type="curve" smooth="yes"/>
      <point x="671" y="494"/>
      <point x="709" y="394"/>
      <point x="709" y="267" type="curve" smooth="yes"/>
      <point x="709" y="124"/>
      <point x="668" y="72"/>
      <point x="533" y="72" type="curve" smooth="yes"/>
      <point x="486" y="72" type="line"/>
      <point x="486" y="338" type="line" smooth="yes"/>
      <point x="486" y="420"/>
      <point x="496" y="447"/>
      <point x="518" y="471" type="curve" smooth="yes"/>
      <point x="533" y="487"/>
      <point x="555" y="494"/>
    </contour>
  </outline>
</glyph>
<glyph name="yatamil" format="2">
  <advance width="963"/>
  <unicode hex="0BAF"/>
  <outline>
    <contour>
      <point x="354" y="0" type="line"/>
      <point x="875" y="0" type="line"/>
      <point x="875" y="554" type="line"/>
      <point x="789" y="554" type="line"/>
      <point x="789" y="72" type="line"/>
      <point x="440" y="72" type="line"/>
      <point x="440" y="554" type="line"/>
      <point x="354" y="554" type="line"/>
    </contour>
    <contour>
      <point x="240" y="-11" type="curve" smooth="yes"/>
      <point x="295" y="-11"/>
      <point x="333" y="14"/>
      <point x="358" y="39" type="curve"/>
      <point x="360" y="125" type="line"/>
      <point x="331" y="80"/>
      <point x="297" y="61"/>
      <point x="258" y="61" type="curve" smooth="yes"/>
      <point x="232" y="61"/>
      <point x="215" y="69"/>
      <point x="202" y="82" type="curve" smooth="yes"/>
      <point x="175" y="109"/>
      <point x="174" y="161"/>
      <point x="174" y="223" type="curve" smooth="yes"/>
      <point x="174" y="554" type="line"/>
      <point x="88" y="554" type="line"/>
      <point x="88" y="202" type="line" smooth="yes"/>
      <point x="88" y="100"/>
      <point x="106" y="65"/>
      <point x="129" y="36" type="curve" smooth="yes"/>
      <point x="154" y="6"/>
      <point x="191" y="-11"/>
    </contour>
  </outline>
</glyph>
<glyph name="ratamil" format="2">
  <advance width="640"/>
  <unicode hex="0BB0"/>
  <outline>
    <contour>
      <point x="231" y="-212" type="line"/>
      <point x="453" y="0" type="line"/>
      <point x="453" y="482" type="line"/>
      <point x="623" y="482" type="line"/>
      <point x="623" y="554" type="line"/>
      <point x="88" y="554" type="line"/>
      <point x="88" y="0" type="line"/>
      <point x="174" y="0" type="line"/>
      <point x="174" y="482" type="line"/>
      <point x="367" y="482" type="line"/>
      <point x="367" y="24" type="line"/>
      <point x="174" y="-159" type="line"/>
    </contour>
  </outline>
</glyph>
<glyph name="rratamil" format="2">
  <advance width="869"/>
  <unicode hex="0BB1"/>
  <outline>
    <contour>
      <point x="570" y="566" type="curve" smooth="yes"/>
      <point x="472" y="566"/>
      <point x="412" y="516"/>
      <point x="390" y="450" type="curve"/>
      <point x="411" y="443" type="line"/>
      <point x="384" y="523"/>
      <point x="333" y="566"/>
      <point x="255" y="566" type="curve" smooth="yes"/>
      <point x="205" y="566"/>
      <point x="167" y="552"/>
      <point x="139" y="524" type="curve" smooth="yes"/>
      <point x="98" y="483"/>
      <point x="86" y="438"/>
      <point x="86" y="341" type="curve" smooth="yes"/>
      <point x="86" y="0" type="line"/>
      <point x="172" y="0" type="line"/>
      <point x="172" y="327" type="line" smooth="yes"/>
      <point x="172" y="386"/>
      <point x="176" y="433"/>
      <point x="197" y="463" type="curve" smooth="yes"/>
      <point x="211" y="482"/>
      <point x="231" y="494"/>
      <point x="262" y="494" type="curve" smooth="yes"/>
      <point x="293" y="494"/>
      <point x="314" y="481"/>
      <point x="327" y="461" type="curve" smooth="yes"/>
      <point x="347" y="431"/>
      <point x="352" y="386"/>
      <point x="352" y="321" type="curve" smooth="yes"/>
      <point x="352" y="0" type="line"/>
      <point x="438" y="0" type="line"/>
      <point x="438" y="319" type="line" smooth="yes"/>
      <point x="438" y="391"/>
      <point x="447" y="427"/>
      <point x="474" y="458" type="curve" smooth="yes"/>
      <point x="496" y="483"/>
      <point x="528" y="494"/>
      <point x="563" y="494" type="curve" smooth="yes"/>
      <point x="652" y="494"/>
      <point x="716" y="428"/>
      <point x="716" y="247" type="curve" smooth="yes"/>
      <point x="716" y="-29"/>
      <point x="613" y="-84"/>
      <point x="366" y="-84" type="curve" smooth="yes"/>
      <point x="243" y="-84" type="line" smooth="yes"/>
      <point x="176" y="-84"/>
      <point x="137" y="-94"/>
      <point x="102" y="-119" type="curve" smooth="yes"/>
      <point x="68" y="-144"/>
      <point x="45" y="-184"/>
      <point x="45" y="-243" type="curve" smooth="yes"/>
      <point x="45" y="-266"/>
      <point x="48" y="-297"/>
      <point x="52" y="-321" type="curve"/>
      <point x="134" y="-317" type="line"/>
      <point x="132" y="-301"/>
      <point x="131" y="-283"/>
      <point x="131" y="-263" type="curve" smooth="yes"/>
      <point x="131" y="-219"/>
      <point x="143" y="-194"/>
      <point x="165" y="-179" type="curve" smooth="yes"/>
      <point x="187" y="-164"/>
      <point x="214" y="-156"/>
      <point x="270" y="-156" type="curve" smooth="yes"/>
      <point x="388" y="-156" type="line" smooth="yes"/>
      <point x="505" y="-156"/>
      <point x="613" y="-140"/>
      <point x="690" y="-77" type="curve" smooth="yes"/>
      <point x="761" y="-18"/>
      <point x="805" y="81"/>
      <point x="805" y="244" type="curve" smooth="yes"/>
      <point x="805" y="449"/>
      <point x="722" y="566"/>
    </contour>
  </outline>
</glyph>
<glyph name="latamil" format="2">
  <advance width="1013"/>
  <unicode hex="0BB2"/>
  <outline>
    <contour>
      <point x="249" y="-12" type="curve" smooth="yes"/>
      <point x="356" y="-12"/>
      <point x="422" y="54"/>
      <point x="422" y="165" type="curve" smooth="yes"/>
      <point x="422" y="265"/>
      <point x="357" y="328"/>
      <point x="261" y="328" type="curve" smooth="yes"/>
      <point x="195" y="328"/>
      <point x="133" y="295"/>
      <point x="93" y="248" type="curve"/>
      <point x="108" y="184" type="line"/>
      <point x="147" y="227"/>
      <point x="194" y="258"/>
      <point x="247" y="258" type="curve" smooth="yes"/>
      <point x="302" y="258"/>
      <point x="340" y="221"/>
      <point x="340" y="155" type="curve" smooth="yes"/>
      <point x="340" y="91"/>
      <point x="307" y="56"/>
      <point x="253" y="56" type="curve" smooth="yes"/>
      <point x="187" y="56"/>
      <point x="136" y="103"/>
      <point x="136" y="232" type="curve" smooth="yes"/>
      <point x="136" y="383"/>
      <point x="217" y="492"/>
      <point x="355" y="492" type="curve" smooth="yes"/>
      <point x="409" y="492"/>
      <point x="445" y="479"/>
      <point x="472" y="455" type="curve" smooth="yes"/>
      <point x="523" y="407"/>
      <point x="529" y="322"/>
      <point x="530" y="250" type="curve" smooth="yes"/>
      <point x="531" y="149"/>
      <point x="554" y="78"/>
      <point x="597" y="38" type="curve" smooth="yes"/>
      <point x="631" y="5"/>
      <point x="679" y="-12"/>
      <point x="737" y="-12" type="curve" smooth="yes"/>
      <point x="876" y="-12"/>
      <point x="950" y="74"/>
      <point x="950" y="244" type="curve" smooth="yes"/>
      <point x="950" y="381"/>
      <point x="898" y="495"/>
      <point x="816" y="600" type="curve"/>
      <point x="738" y="547" type="line"/>
      <point x="810" y="469"/>
      <point x="863" y="369"/>
      <point x="863" y="237" type="curve" smooth="yes"/>
      <point x="863" y="103"/>
      <point x="810" y="62"/>
      <point x="744" y="62" type="curve" smooth="yes"/>
      <point x="705" y="62"/>
      <point x="678" y="73"/>
      <point x="658" y="95" type="curve" smooth="yes"/>
      <point x="625" y="130"/>
      <point x="617" y="182"/>
      <point x="617" y="252" type="curve" smooth="yes"/>
      <point x="617" y="373"/>
      <point x="601" y="447"/>
      <point x="545" y="502" type="curve" smooth="yes"/>
      <point x="494" y="553"/>
      <point x="423" y="566"/>
      <point x="359" y="566" type="curve" smooth="yes"/>
      <point x="196" y="566"/>
      <point x="57" y="458"/>
      <point x="57" y="242" type="curve" smooth="yes"/>
      <point x="57" y="63"/>
      <point x="142" y="-12"/>
    </contour>
  </outline>
</glyph>
<glyph name="llatamil" format="2">
  <advance width="1070"/>
  <unicode hex="0BB3"/>
  <outline>
    <contour>
      <point x="249" y="-12" type="curve" smooth="yes"/>
      <point x="356" y="-12"/>
      <point x="422" y="54"/>
      <point x="422" y="165" type="curve" smooth="yes"/>
      <point x="422" y="265"/>
      <point x="357" y="328"/>
      <point x="261" y="328" type="curve" smooth="yes"/>
      <point x="195" y="328"/>
      <point x="133" y="295"/>
      <point x="93" y="248" type="curve"/>
      <point x="108" y="184" type="line"/>
      <point x="147" y="227"/>
      <point x="194" y="258"/>
      <point x="247" y="258" type="curve" smooth="yes"/>
      <point x="302" y="258"/>
      <point x="340" y="221"/>
      <point x="340" y="155" type="curve" smooth="yes"/>
      <point x="340" y="91"/>
      <point x="307" y="56"/>
      <point x="253" y="56" type="curve" smooth="yes"/>
      <point x="187" y="56"/>
      <point x="136" y="103"/>
      <point x="136" y="237" type="curve" smooth="yes"/>
      <point x="136" y="383"/>
      <point x="221" y="492"/>
      <point x="355" y="492" type="curve" smooth="yes"/>
      <point x="439" y="492"/>
      <point x="495" y="460"/>
      <point x="542" y="401" type="curve"/>
      <point x="555" y="497" type="line"/>
      <point x="505" y="538"/>
      <point x="446" y="566"/>
      <point x="358" y="566" type="curve" smooth="yes"/>
      <point x="202" y="566"/>
      <point x="57" y="461"/>
      <point x="57" y="243" type="curve" smooth="yes"/>
      <point x="57" y="63"/>
      <point x="142" y="-12"/>
    </contour>
    <contour>
      <point x="537" y="0" type="line"/>
      <point x="623" y="0" type="line"/>
      <point x="623" y="482" type="line"/>
      <point x="797" y="482" type="line"/>
      <point x="797" y="0" type="line"/>
      <point x="883" y="0" type="line"/>
      <point x="883" y="482" type="line"/>
      <point x="1053" y="482" type="line"/>
      <point x="1053" y="554" type="line"/>
      <point x="549" y="554" type="line"/>
      <point x="549" y="494" type="line"/>
      <point x="537" y="416" type="line"/>
    </contour>
  </outline>
</glyph>
<glyph name="lllatamil" format="2">
  <advance width="858"/>
  <unicode hex="0BB4"/>
  <outline>
    <contour>
      <point x="580" y="566" type="curve" smooth="yes"/>
      <point x="516" y="566"/>
      <point x="475" y="548"/>
      <point x="445" y="515" type="curve" smooth="yes"/>
      <point x="415" y="481"/>
      <point x="400" y="437"/>
      <point x="400" y="355" type="curve" smooth="yes"/>
      <point x="400" y="72" type="line"/>
      <point x="174" y="72" type="line"/>
      <point x="174" y="554" type="line"/>
      <point x="88" y="554" type="line"/>
      <point x="88" y="0" type="line"/>
      <point x="512" y="0" type="line" smooth="yes"/>
      <point x="627" y="0"/>
      <point x="687" y="14"/>
      <point x="734" y="60" type="curve" smooth="yes"/>
      <point x="778" y="103"/>
      <point x="797" y="169"/>
      <point x="797" y="262" type="curve" smooth="yes"/>
      <point x="797" y="442"/>
      <point x="729" y="566"/>
    </contour>
    <contour>
      <point x="578" y="494" type="curve" smooth="yes"/>
      <point x="671" y="494"/>
      <point x="709" y="394"/>
      <point x="709" y="267" type="curve" smooth="yes"/>
      <point x="709" y="124"/>
      <point x="668" y="72"/>
      <point x="533" y="72" type="curve" smooth="yes"/>
      <point x="486" y="72" type="line"/>
      <point x="486" y="338" type="line" smooth="yes"/>
      <point x="486" y="420"/>
      <point x="496" y="447"/>
      <point x="518" y="471" type="curve" smooth="yes"/>
      <point x="533" y="487"/>
      <point x="555" y="494"/>
    </contour>
    <contour>
      <point x="220" y="-61" type="curve" smooth="yes"/>
      <point x="126" y="-61"/>
      <point x="63" y="-109"/>
      <point x="63" y="-186" type="curve" smooth="yes"/>
      <point x="63" y="-232"/>
      <point x="86" y="-264"/>
      <point x="111" y="-282" type="curve" smooth="yes"/>
      <point x="146" y="-306"/>
      <point x="207" y="-321"/>
      <point x="269" y="-321" type="curve" smooth="yes"/>
      <point x="294" y="-321" type="line" smooth="yes"/>
      <point x="449" y="-321"/>
      <point x="508" y="-267"/>
      <point x="552" y="-182" type="curve"/>
      <point x="567" y="-149"/>
      <point x="588" y="-125"/>
      <point x="645" y="-113" type="curve"/>
      <point x="570" y="-101" type="line"/>
      <point x="508" y="-105"/>
      <point x="497" y="-118"/>
      <point x="479" y="-152" type="curve"/>
      <point x="449" y="-214"/>
      <point x="403" y="-251"/>
      <point x="301" y="-251" type="curve" smooth="yes"/>
      <point x="276" y="-251" type="line" smooth="yes"/>
      <point x="218" y="-251"/>
      <point x="149" y="-240"/>
      <point x="149" y="-185" type="curve" smooth="yes"/>
      <point x="149" y="-145"/>
      <point x="184" y="-130"/>
      <point x="233" y="-130" type="curve" smooth="yes"/>
      <point x="253" y="-130"/>
      <point x="268" y="-131"/>
      <point x="282" y="-133" type="curve"/>
      <point x="290" y="-66" type="line"/>
      <point x="268" y="-63"/>
      <point x="242" y="-61"/>
    </contour>
    <contour>
      <point x="549" y="-166" type="line"/>
      <point x="739" y="-166" type="line"/>
      <point x="739" y="-94" type="line"/>
      <point x="611" y="-94" type="line" smooth="yes"/>
      <point x="569" y="-94"/>
      <point x="545" y="-89"/>
      <point x="527" y="-81" type="curve"/>
      <point x="498" y="-66"/>
      <point x="486" y="-39"/>
      <point x="485" y="0" type="curve"/>
      <point x="400" y="0" type="line"/>
      <point x="403" y="-99"/>
      <point x="458" y="-141"/>
      <point x="532" y="-157" type="curve"/>
    </contour>
  </outline>
</glyph>
<glyph name="shatamil" format="2">
  <advance width="1172"/>
  <unicode hex="0BB6"/>
  <outline>
    <contour>
      <point x="301" y="-12" type="curve" smooth="yes"/>
      <point x="371" y="-12"/>
      <point x="426" y="9"/>
      <point x="462" y="47" type="curve" smooth="yes"/>
      <point x="498" y="85"/>
      <point x="516" y="140"/>
      <point x="516" y="231" type="curve" smooth="yes"/>
      <point x="516" y="482" type="line"/>
      <point x="656" y="482" type="line"/>
      <point x="656" y="232" type="line" smooth="yes"/>
      <point x="656" y="140"/>
      <point x="674" y="85"/>
      <point x="710" y="47" type="curve" smooth="yes"/>
      <point x="748" y="8"/>
      <point x="804" y="-12"/>
      <point x="871" y="-12" type="curve" smooth="yes"/>
      <point x="941" y="-12"/>
      <point x="996" y="9"/>
      <point x="1032" y="47" type="curve" smooth="yes"/>
      <point x="1067" y="85"/>
      <point x="1086" y="148"/>
      <point x="1086" y="233" type="curve" smooth="yes"/>
      <point x="1086" y="554" type="line"/>
      <point x="430" y="554" type="line"/>
      <point x="430" y="245" type="line" smooth="yes"/>
      <point x="430" y="154"/>
      <point x="417" y="116"/>
      <point x="391" y="90" type="curve" smooth="yes"/>
      <point x="368" y="68"/>
      <point x="338" y="61"/>
      <point x="301" y="61" type="curve" smooth="yes"/>
      <point x="262" y="61"/>
      <point x="232" y="69"/>
      <point x="211" y="90" type="curve" smooth="yes"/>
      <point x="185" y="116"/>
      <point x="172" y="154"/>
      <point x="172" y="245" type="curve" smooth="yes"/>
      <point x="172" y="554" type="line"/>
      <point x="86" y="554" type="line"/>
      <point x="86" y="229" type="line" smooth="yes"/>
      <point x="86" y="140"/>
      <point x="104" y="85"/>
      <point x="140" y="47" type="curve" smooth="yes"/>
      <point x="178" y="8"/>
      <point x="234" y="-12"/>
    </contour>
    <contour>
      <point x="871" y="61" type="curve" smooth="yes"/>
      <point x="832" y="61"/>
      <point x="802" y="69"/>
      <point x="781" y="90" type="curve" smooth="yes"/>
      <point x="755" y="116"/>
      <point x="742" y="154"/>
      <point x="742" y="245" type="curve" smooth="yes"/>
      <point x="742" y="482" type="line"/>
      <point x="1000" y="482" type="line"/>
      <point x="1000" y="245" type="line" smooth="yes"/>
      <point x="1000" y="154"/>
      <point x="987" y="116"/>
      <point x="960" y="90" type="curve" smooth="yes"/>
      <point x="937" y="68"/>
      <point x="908" y="61"/>
    </contour>
  </outline>
</glyph>
<glyph name="ssatamil" format="2">
  <advance width="1345"/>
  <unicode hex="0BB7"/>
  <outline>
    <contour>
      <point x="909" y="566" type="curve" smooth="yes"/>
      <point x="798" y="566"/>
      <point x="735" y="485"/>
      <point x="735" y="384" type="curve" smooth="yes"/>
      <point x="735" y="246"/>
      <point x="841" y="182"/>
      <point x="984" y="182" type="curve" smooth="yes"/>
      <point x="999" y="182" type="line" smooth="yes"/>
      <point x="1087" y="182"/>
      <point x="1153" y="213"/>
      <point x="1192" y="247" type="curve"/>
      <point x="1189" y="219"/>
      <point x="1188" y="184"/>
      <point x="1188" y="153" type="curve" smooth="yes"/>
      <point x="1188" y="72" type="line"/>
      <point x="798" y="72" type="line"/>
      <point x="780" y="0" type="line"/>
      <point x="1269" y="0" type="line"/>
      <point x="1269" y="328" type="line"/>
      <point x="1188" y="328" type="line"/>
      <point x="1152" y="294"/>
      <point x="1094" y="252"/>
      <point x="1001" y="252" type="curve" smooth="yes"/>
      <point x="984" y="252" type="line" smooth="yes"/>
      <point x="886" y="252"/>
      <point x="818" y="291"/>
      <point x="818" y="382" type="curve" smooth="yes"/>
      <point x="818" y="456"/>
      <point x="854" y="494"/>
      <point x="909" y="494" type="curve" smooth="yes"/>
      <point x="956" y="494"/>
      <point x="982" y="461"/>
      <point x="982" y="403" type="curve" smooth="yes"/>
      <point x="982" y="354"/>
      <point x="974" y="300"/>
      <point x="957" y="230" type="curve" smooth="yes"/>
      <point x="915" y="64" type="line"/>
      <point x="901" y="8" type="line"/>
      <point x="833" y="-262" type="line"/>
      <point x="912" y="-284" type="line"/>
      <point x="1032" y="191" type="line"/>
      <point x="1044" y="239" type="line" smooth="yes"/>
      <point x="1060" y="301"/>
      <point x="1069" y="355"/>
      <point x="1069" y="406" type="curve" smooth="yes"/>
      <point x="1069" y="492"/>
      <point x="1023" y="566"/>
    </contour>
    <contour>
      <point x="249" y="-12" type="curve" smooth="yes"/>
      <point x="356" y="-12"/>
      <point x="422" y="54"/>
      <point x="422" y="165" type="curve" smooth="yes"/>
      <point x="422" y="269"/>
      <point x="357" y="328"/>
      <point x="261" y="328" type="curve" smooth="yes"/>
      <point x="196" y="328"/>
      <point x="133" y="295"/>
      <point x="93" y="248" type="curve"/>
      <point x="108" y="184" type="line"/>
      <point x="147" y="227"/>
      <point x="194" y="258"/>
      <point x="247" y="258" type="curve" smooth="yes"/>
      <point x="302" y="258"/>
      <point x="340" y="221"/>
      <point x="340" y="155" type="curve" smooth="yes"/>
      <point x="340" y="91"/>
      <point x="305" y="56"/>
      <point x="253" y="56" type="curve" smooth="yes"/>
      <point x="187" y="56"/>
      <point x="136" y="103"/>
      <point x="136" y="237" type="curve" smooth="yes"/>
      <point x="136" y="383"/>
      <point x="220" y="492"/>
      <point x="360" y="492" type="curve" smooth="yes"/>
      <point x="484" y="492"/>
      <point x="563" y="411"/>
      <point x="563" y="269" type="curve" smooth="yes"/>
      <point x="563" y="178"/>
      <point x="542" y="109"/>
      <point x="511" y="63" type="curve"/>
      <point x="515" y="0" type="line"/>
      <point x="867" y="0" type="line"/>
      <point x="869" y="72" type="line"/>
      <point x="603" y="72" type="line"/>
      <point x="630" y="131"/>
      <point x="651" y="194"/>
      <point x="651" y="280" type="curve" smooth="yes"/>
      <point x="651" y="437"/>
      <point x="567" y="566"/>
      <point x="364" y="566" type="curve" smooth="yes"/>
      <point x="199" y="566"/>
      <point x="57" y="457"/>
      <point x="57" y="243" type="curve" smooth="yes"/>
      <point x="57" y="63"/>
      <point x="142" y="-12"/>
    </contour>
  </outline>
</glyph>
<glyph name="satamil" format="2">
  <advance width="1285"/>
  <unicode hex="0BB8"/>
  <outline>
    <contour>
      <point x="249" y="-12" type="curve" smooth="yes"/>
      <point x="356" y="-12"/>
      <point x="422" y="54"/>
      <point x="422" y="165" type="curve" smooth="yes"/>
      <point x="422" y="265"/>
      <point x="357" y="328"/>
      <point x="261" y="328" type="curve" smooth="yes"/>
      <point x="196" y="328"/>
      <point x="133" y="295"/>
      <point x="93" y="248" type="curve"/>
      <point x="108" y="184" type="line"/>
      <point x="147" y="227"/>
      <point x="194" y="258"/>
      <point x="247" y="258" type="curve" smooth="yes"/>
      <point x="302" y="258"/>
      <point x="340" y="221"/>
      <point x="340" y="155" type="curve" smooth="yes"/>
      <point x="340" y="91"/>
      <point x="305" y="56"/>
      <point x="253" y="56" type="curve" smooth="yes"/>
      <point x="187" y="56"/>
      <point x="136" y="103"/>
      <point x="136" y="232" type="curve" smooth="yes"/>
      <point x="136" y="383"/>
      <point x="217" y="492"/>
      <point x="355" y="492" type="curve" smooth="yes"/>
      <point x="404" y="492"/>
      <point x="440" y="484"/>
      <point x="477" y="453" type="curve" smooth="yes"/>
      <point x="511" y="424"/>
      <point x="537" y="377"/>
      <point x="537" y="293" type="curve" smooth="yes"/>
      <point x="537" y="0" type="line"/>
      <point x="623" y="0" type="line"/>
      <point x="623" y="351" type="line" smooth="yes"/>
      <point x="623" y="404"/>
      <point x="632" y="437"/>
      <point x="652" y="463" type="curve" smooth="yes"/>
      <point x="665" y="480"/>
      <point x="686" y="494"/>
      <point x="714" y="494" type="curve" smooth="yes"/>
      <point x="745" y="494"/>
      <point x="769" y="481"/>
      <point x="783" y="449" type="curve" smooth="yes"/>
      <point x="796" y="420"/>
      <point x="802" y="375"/>
      <point x="802" y="288" type="curve" smooth="yes"/>
      <point x="802" y="250" type="line" smooth="yes"/>
      <point x="802" y="149"/>
      <point x="826" y="78"/>
      <point x="869" y="38" type="curve" smooth="yes"/>
      <point x="903" y="5"/>
      <point x="951" y="-12"/>
      <point x="1009" y="-12" type="curve" smooth="yes"/>
      <point x="1148" y="-12"/>
      <point x="1222" y="74"/>
      <point x="1222" y="244" type="curve" smooth="yes"/>
      <point x="1222" y="381"/>
      <point x="1170" y="495"/>
      <point x="1087" y="600" type="curve"/>
      <point x="1009" y="547" type="line"/>
      <point x="1082" y="469"/>
      <point x="1135" y="369"/>
      <point x="1135" y="237" type="curve" smooth="yes"/>
      <point x="1135" y="103"/>
      <point x="1082" y="62"/>
      <point x="1015" y="62" type="curve" smooth="yes"/>
      <point x="977" y="62"/>
      <point x="950" y="73"/>
      <point x="930" y="95" type="curve" smooth="yes"/>
      <point x="897" y="130"/>
      <point x="889" y="182"/>
      <point x="889" y="255" type="curve" smooth="yes"/>
      <point x="889" y="343" type="line" smooth="yes"/>
      <point x="889" y="434"/>
      <point x="871" y="485"/>
      <point x="837" y="521" type="curve" smooth="yes"/>
      <point x="808" y="552"/>
      <point x="768" y="566"/>
      <point x="719" y="566" type="curve" smooth="yes"/>
      <point x="629" y="566"/>
      <point x="576" y="503"/>
      <point x="558" y="433" type="curve"/>
      <point x="587" y="430" type="line"/>
      <point x="534" y="524"/>
      <point x="462" y="566"/>
      <point x="359" y="566" type="curve" smooth="yes"/>
      <point x="196" y="566"/>
      <point x="57" y="458"/>
      <point x="57" y="242" type="curve" smooth="yes"/>
      <point x="57" y="63"/>
      <point x="142" y="-12"/>
    </contour>
  </outline>
</glyph>
<glyph name="hatamil" format="2">
  <advance width="1619"/>
  <unicode hex="0BB9"/>
  <outline>
    <contour>
      <point x="1320" y="566" type="curve" smooth="yes"/>
      <point x="1222" y="566"/>
      <point x="1162" y="516"/>
      <point x="1140" y="450" type="curve"/>
      <point x="1161" y="443" type="line"/>
      <point x="1134" y="523"/>
      <point x="1083" y="566"/>
      <point x="1005" y="566" type="curve" smooth="yes"/>
      <point x="955" y="566"/>
      <point x="917" y="552"/>
      <point x="889" y="524" type="curve" smooth="yes"/>
      <point x="848" y="483"/>
      <point x="836" y="438"/>
      <point x="836" y="341" type="curve" smooth="yes"/>
      <point x="836" y="0" type="line"/>
      <point x="922" y="0" type="line"/>
      <point x="922" y="328" type="line" smooth="yes"/>
      <point x="922" y="386"/>
      <point x="926" y="433"/>
      <point x="947" y="463" type="curve" smooth="yes"/>
      <point x="961" y="482"/>
      <point x="981" y="494"/>
      <point x="1012" y="494" type="curve" smooth="yes"/>
      <point x="1043" y="494"/>
      <point x="1064" y="481"/>
      <point x="1077" y="461" type="curve" smooth="yes"/>
      <point x="1097" y="431"/>
      <point x="1102" y="386"/>
      <point x="1102" y="321" type="curve" smooth="yes"/>
      <point x="1102" y="0" type="line"/>
      <point x="1188" y="0" type="line"/>
      <point x="1188" y="319" type="line" smooth="yes"/>
      <point x="1188" y="391"/>
      <point x="1197" y="427"/>
      <point x="1224" y="458" type="curve" smooth="yes"/>
      <point x="1246" y="483"/>
      <point x="1278" y="494"/>
      <point x="1314" y="494" type="curve" smooth="yes"/>
      <point x="1402" y="494"/>
      <point x="1466" y="428"/>
      <point x="1466" y="247" type="curve" smooth="yes"/>
      <point x="1466" y="-29"/>
      <point x="1363" y="-84"/>
      <point x="1116" y="-84" type="curve" smooth="yes"/>
      <point x="245" y="-84" type="line" smooth="yes"/>
      <point x="178" y="-84"/>
      <point x="139" y="-94"/>
      <point x="104" y="-119" type="curve" smooth="yes"/>
      <point x="70" y="-144"/>
      <point x="47" y="-184"/>
      <point x="47" y="-243" type="curve" smooth="yes"/>
      <point x="47" y="-266"/>
      <point x="50" y="-297"/>
      <point x="54" y="-321" type="curve"/>
      <point x="136" y="-317" type="line"/>
      <point x="134" y="-301"/>
      <point x="133" y="-283"/>
      <point x="133" y="-263" type="curve" smooth="yes"/>
      <point x="133" y="-219"/>
      <point x="145" y="-194"/>
      <point x="167" y="-179" type="curve" smooth="yes"/>
      <point x="189" y="-164"/>
      <point x="216" y="-156"/>
      <point x="272" y="-156" type="curve" smooth="yes"/>
      <point x="1138" y="-156" type="line" smooth="yes"/>
      <point x="1255" y="-156"/>
      <point x="1363" y="-140"/>
      <point x="1440" y="-77" type="curve" smooth="yes"/>
      <point x="1511" y="-18"/>
      <point x="1555" y="81"/>
      <point x="1555" y="244" type="curve" smooth="yes"/>
      <point x="1555" y="449"/>
      <point x="1472" y="566"/>
    </contour>
    <contour>
      <point x="249" y="-12" type="curve" smooth="yes"/>
      <point x="356" y="-12"/>
      <point x="422" y="54"/>
      <point x="422" y="165" type="curve" smooth="yes"/>
      <point x="422" y="265"/>
      <point x="357" y="328"/>
      <point x="261" y="328" type="curve" smooth="yes"/>
      <point x="196" y="328"/>
      <point x="133" y="295"/>
      <point x="93" y="248" type="curve"/>
      <point x="108" y="184" type="line"/>
      <point x="147" y="227"/>
      <point x="194" y="258"/>
      <point x="247" y="258" type="curve" smooth="yes"/>
      <point x="302" y="258"/>
      <point x="340" y="221"/>
      <point x="340" y="155" type="curve" smooth="yes"/>
      <point x="340" y="91"/>
      <point x="305" y="56"/>
      <point x="253" y="56" type="curve" smooth="yes"/>
      <point x="187" y="56"/>
      <point x="136" y="103"/>
      <point x="136" y="237" type="curve" smooth="yes"/>
      <point x="136" y="383"/>
      <point x="220" y="492"/>
      <point x="360" y="492" type="curve" smooth="yes"/>
      <point x="484" y="492"/>
      <point x="563" y="411"/>
      <point x="563" y="269" type="curve" smooth="yes"/>
      <point x="563" y="178"/>
      <point x="542" y="109"/>
      <point x="511" y="63" type="curve"/>
      <point x="515" y="0" type="line"/>
      <point x="867" y="0" type="line"/>
      <point x="869" y="72" type="line"/>
      <point x="603" y="72" type="line"/>
      <point x="630" y="131"/>
      <point x="651" y="194"/>
      <point x="651" y="280" type="curve" smooth="yes"/>
      <point x="651" y="437"/>
      <point x="567" y="566"/>
      <point x="364" y="566" type="curve" smooth="yes"/>
      <point x="199" y="566"/>
      <point x="57" y="457"/>
      <point x="57" y="243" type="curve" smooth="yes"/>
      <point x="57" y="63"/>
      <point x="142" y="-12"/>
    </contour>
  </outline>
</glyph>
<glyph name="aavowelsigntamil" format="2">
  <advance width="640"/>
  <unicode hex="0BBE"/>
  <outline>
    <contour>
      <point x="88" y="0" type="line"/>
      <point x="174" y="0" type="line"/>
      <point x="174" y="482" type="line"/>
      <point x="367" y="482" type="line"/>
      <point x="367" y="0" type="line"/>
      <point x="453" y="0" type="line"/>
      <point x="453" y="482" type="line"/>
      <point x="623" y="482" type="line"/>
      <point x="623" y="554" type="line"/>
      <point x="88" y="554" type="line"/>
    </contour>
  </outline>
</glyph>
<glyph name="ivowelsigntamil" format="2">
  <advance width="262"/>
  <unicode hex="0BBF"/>
  <outline>
    <contour>
      <point x="-79" y="843" type="curve" smooth="yes"/>
      <point x="-197" y="843"/>
      <point x="-301" y="779"/>
      <point x="-301" y="636" type="curve" smooth="yes"/>
      <point x="-301" y="594"/>
      <point x="-291" y="555"/>
      <point x="-273" y="515" type="curve"/>
      <point x="-182" y="515" type="line"/>
      <point x="-205" y="554"/>
      <point x="-215" y="600"/>
      <point x="-215" y="637" type="curve" smooth="yes"/>
      <point x="-215" y="714"/>
      <point x="-168" y="768"/>
      <point x="-81" y="768" type="curve" smooth="yes"/>
      <point x="-34" y="768"/>
      <point x="6" y="752"/>
      <point x="34" y="718" type="curve" smooth="yes"/>
      <point x="68" y="678"/>
      <point x="88" y="614"/>
      <point x="88" y="471" type="curve" smooth="yes"/>
      <point x="88" y="0" type="line"/>
      <point x="174" y="0" type="line"/>
      <point x="174" y="489" type="line" smooth="yes"/>
      <point x="174" y="655"/>
      <point x="144" y="727"/>
      <point x="98" y="773" type="curve" smooth="yes"/>
      <point x="53" y="819"/>
      <point x="-7" y="843"/>
    </contour>
  </outline>
</glyph>
<glyph name="iivowelsigntamil" format="2">
  <unicode hex="0BC0"/>
  <outline>
    <contour>
      <point x="-168" y="843" type="curve" smooth="yes"/>
      <point x="-347" y="843"/>
      <point x="-427" y="741"/>
      <point x="-427" y="624" type="curve" smooth="yes"/>
      <point x="-427" y="588"/>
      <point x="-420" y="556"/>
      <point x="-408" y="529" type="curve"/>
      <point x="-324" y="535" type="line"/>
      <point x="-340" y="559"/>
      <point x="-350" y="588"/>
      <point x="-350" y="626" type="curve" smooth="yes"/>
      <point x="-350" y="704"/>
      <point x="-304" y="767"/>
      <point x="-201" y="778" type="curve" smooth="yes"/>
      <point x="-189" y="779"/>
      <point x="-173" y="780"/>
      <point x="-162" y="780" type="curve" smooth="yes"/>
      <point x="-103" y="780"/>
      <point x="-62" y="760"/>
      <point x="-62" y="713" type="curve" smooth="yes"/>
      <point x="-62" y="679"/>
      <point x="-84" y="656"/>
      <point x="-123" y="656" type="curve" smooth="yes"/>
      <point x="-159" y="656"/>
      <point x="-185" y="674"/>
      <point x="-185" y="719" type="curve" smooth="yes"/>
      <point x="-185" y="744"/>
      <point x="-176" y="771"/>
      <point x="-154" y="796" type="curve"/>
      <point x="-205" y="818" type="line"/>
      <point x="-241" y="781"/>
      <point x="-251" y="736"/>
      <point x="-251" y="705" type="curve" smooth="yes"/>
      <point x="-251" y="636"/>
      <point x="-201" y="594"/>
      <point x="-123" y="594" type="curve" smooth="yes"/>
      <point x="-50" y="594"/>
      <point x="8" y="634"/>
      <point x="8" y="718" type="curve" smooth="yes"/>
      <point x="8" y="792"/>
      <point x="-53" y="843"/>
    </contour>
  </outline>
</glyph>
<glyph name="uvowelsigntamil" format="2">
  <advance width="502"/>
  <unicode hex="0BC1"/>
  <outline>
    <contour>
      <point x="294" y="217" type="curve" smooth="yes"/>
      <point x="392" y="217"/>
      <point x="463" y="279"/>
      <point x="463" y="378" type="curve" smooth="yes"/>
      <point x="463" y="439"/>
      <point x="440" y="480"/>
      <point x="405" y="509" type="curve" smooth="yes"/>
      <point x="368" y="540"/>
      <point x="318" y="554"/>
      <point x="228" y="554" type="curve" smooth="yes"/>
      <point x="-219" y="554" type="line"/>
      <point x="-219" y="482" type="line"/>
      <point x="210" y="482" type="line" smooth="yes"/>
      <point x="295" y="482"/>
      <point x="322" y="472"/>
      <point x="344" y="454" type="curve" smooth="yes"/>
      <point x="365" y="437"/>
      <point x="378" y="412"/>
      <point x="378" y="379" type="curve" smooth="yes"/>
      <point x="378" y="328"/>
      <point x="349" y="290"/>
      <point x="290" y="290" type="curve" smooth="yes"/>
      <point x="216" y="290"/>
      <point x="187" y="342"/>
      <point x="187" y="419" type="curve" smooth="yes"/>
      <point x="187" y="463"/>
      <point x="192" y="489"/>
      <point x="200" y="519" type="curve"/>
      <point x="118" y="534" type="line"/>
      <point x="110" y="509"/>
      <point x="102" y="469"/>
      <point x="102" y="416" type="curve" smooth="yes"/>
      <point x="102" y="328"/>
      <point x="140" y="217"/>
    </contour>
  </outline>
</glyph>
<glyph name="uuvowelsigntamil" format="2">
  <advance width="844"/>
  <unicode hex="0BC2"/>
  <outline>
    <contour>
      <point x="402" y="13" type="curve" smooth="yes"/>
      <point x="622" y="13"/>
      <point x="787" y="124"/>
      <point x="787" y="408" type="curve" smooth="yes"/>
      <point x="787" y="620"/>
      <point x="665" y="764"/>
      <point x="453" y="764" type="curve" smooth="yes"/>
      <point x="279" y="764"/>
      <point x="168" y="666"/>
      <point x="132" y="534" type="curve"/>
      <point x="131" y="505" type="line"/>
      <point x="125" y="478"/>
      <point x="122" y="451"/>
      <point x="122" y="424" type="curve" smooth="yes"/>
      <point x="122" y="318"/>
      <point x="174" y="217"/>
      <point x="314" y="217" type="curve" smooth="yes"/>
      <point x="412" y="217"/>
      <point x="483" y="279"/>
      <point x="483" y="378" type="curve" smooth="yes"/>
      <point x="483" y="439"/>
      <point x="460" y="480"/>
      <point x="425" y="509" type="curve" smooth="yes"/>
      <point x="388" y="540"/>
      <point x="338" y="554"/>
      <point x="248" y="554" type="curve" smooth="yes"/>
      <point x="-219" y="554" type="line"/>
      <point x="-219" y="482" type="line"/>
      <point x="230" y="482" type="line" smooth="yes"/>
      <point x="315" y="482"/>
      <point x="342" y="472"/>
      <point x="364" y="454" type="curve" smooth="yes"/>
      <point x="385" y="437"/>
      <point x="398" y="412"/>
      <point x="398" y="379" type="curve" smooth="yes"/>
      <point x="398" y="328"/>
      <point x="368" y="290"/>
      <point x="310" y="290" type="curve" smooth="yes"/>
      <point x="244" y="290"/>
      <point x="207" y="330"/>
      <point x="207" y="419" type="curve" smooth="yes"/>
      <point x="207" y="447"/>
      <point x="210" y="476"/>
      <point x="216" y="503" type="curve"/>
      <point x="219" y="529" type="line"/>
      <point x="243" y="617"/>
      <point x="321" y="689"/>
      <point x="450" y="689" type="curve" smooth="yes"/>
      <point x="614" y="689"/>
      <point x="700" y="571"/>
      <point x="700" y="408" type="curve" smooth="yes"/>
      <point x="700" y="170"/>
      <point x="571" y="86"/>
      <point x="399" y="86" type="curve" smooth="yes"/>
      <point x="273" y="86"/>
      <point x="181" y="129"/>
      <point x="120" y="174" type="curve"/>
      <point x="78" y="105" type="line"/>
      <point x="149" y="56"/>
      <point x="263" y="13"/>
    </contour>
  </outline>
</glyph>
<glyph name="evowelsigntamil" format="2">
  <advance width="901"/>
  <unicode hex="0BC6"/>
  <outline>
    <contour>
      <point x="400" y="-12" type="curve" smooth="yes"/>
      <point x="511" y="-12"/>
      <point x="602" y="42"/>
      <point x="602" y="173" type="curve" smooth="yes"/>
      <point x="602" y="285"/>
      <point x="529" y="349"/>
      <point x="432" y="349" type="curve" smooth="yes"/>
      <point x="314" y="349"/>
      <point x="257" y="276"/>
      <point x="257" y="192" type="curve" smooth="yes"/>
      <point x="257" y="112"/>
      <point x="290" y="61"/>
      <point x="326" y="27" type="curve"/>
      <point x="384" y="43" type="line"/>
      <point x="350" y="77"/>
      <point x="335" y="123"/>
      <point x="335" y="171" type="curve" smooth="yes"/>
      <point x="335" y="238"/>
      <point x="372" y="277"/>
      <point x="430" y="277" type="curve" smooth="yes"/>
      <point x="488" y="277"/>
      <point x="523" y="233"/>
      <point x="523" y="173" type="curve" smooth="yes"/>
      <point x="523" y="95"/>
      <point x="479" y="58"/>
      <point x="411" y="58" type="curve" smooth="yes"/>
      <point x="383" y="58"/>
      <point x="355" y="62"/>
      <point x="329" y="71" type="curve"/>
      <point x="313" y="75" type="line"/>
      <point x="214" y="114"/>
      <point x="143" y="220"/>
      <point x="143" y="385" type="curve" smooth="yes"/>
      <point x="143" y="669"/>
      <point x="338" y="768"/>
      <point x="475" y="768" type="curve" smooth="yes"/>
      <point x="554" y="768"/>
      <point x="610" y="748"/>
      <point x="648" y="709" type="curve" smooth="yes"/>
      <point x="709" y="647"/>
      <point x="727" y="548"/>
      <point x="727" y="365" type="curve" smooth="yes"/>
      <point x="727" y="0" type="line"/>
      <point x="813" y="0" type="line"/>
      <point x="813" y="415" type="line" smooth="yes"/>
      <point x="813" y="608"/>
      <point x="782" y="701"/>
      <point x="707" y="768" type="curve" smooth="yes"/>
      <point x="654" y="815"/>
      <point x="582" y="843"/>
      <point x="475" y="843" type="curve" smooth="yes"/>
      <point x="273" y="843"/>
      <point x="57" y="691"/>
      <point x="57" y="393" type="curve" smooth="yes"/>
      <point x="57" y="149"/>
      <point x="200" y="-12"/>
    </contour>
  </outline>
</glyph>
<glyph name="eevowelsigntamil" format="2">
  <advance width="720"/>
  <unicode hex="0BC7"/>
  <outline>
    <contour>
      <point x="451" y="-12" type="curve" smooth="yes"/>
      <point x="580" y="-12"/>
      <point x="679" y="42"/>
      <point x="679" y="173" type="curve" smooth="yes"/>
      <point x="679" y="285"/>
      <point x="607" y="346"/>
      <point x="510" y="346" type="curve" smooth="yes"/>
      <point x="401" y="346"/>
      <point x="340" y="277"/>
      <point x="340" y="185" type="curve" smooth="yes"/>
      <point x="340" y="112"/>
      <point x="370" y="61"/>
      <point x="406" y="27" type="curve"/>
      <point x="468" y="43" type="line"/>
      <point x="436" y="77"/>
      <point x="420" y="123"/>
      <point x="420" y="171" type="curve" smooth="yes"/>
      <point x="420" y="240"/>
      <point x="458" y="276"/>
      <point x="510" y="276" type="curve" smooth="yes"/>
      <point x="570" y="276"/>
      <point x="598" y="232"/>
      <point x="598" y="173" type="curve" smooth="yes"/>
      <point x="598" y="95"/>
      <point x="543" y="58"/>
      <point x="464" y="58" type="curve" smooth="yes"/>
      <point x="447" y="58"/>
      <point x="423" y="58"/>
      <point x="400" y="63" type="curve" smooth="yes"/>
      <point x="257" y="91"/>
      <point x="142" y="206"/>
      <point x="142" y="418" type="curve" smooth="yes"/>
      <point x="142" y="633"/>
      <point x="273" y="747"/>
      <point x="424" y="770" type="curve"/>
      <point x="445" y="772"/>
      <point x="466" y="772"/>
      <point x="481" y="772" type="curve" smooth="yes"/>
      <point x="555" y="772"/>
      <point x="612" y="739"/>
      <point x="612" y="667" type="curve" smooth="yes"/>
      <point x="612" y="614"/>
      <point x="581" y="574"/>
      <point x="526" y="574" type="curve" smooth="yes"/>
      <point x="477" y="574"/>
      <point x="443" y="605"/>
      <point x="443" y="665" type="curve" smooth="yes"/>
      <point x="443" y="705"/>
      <point x="454" y="740"/>
      <point x="484" y="774" type="curve"/>
      <point x="427" y="792" type="line"/>
      <point x="392" y="762"/>
      <point x="363" y="715"/>
      <point x="363" y="656" type="curve" smooth="yes"/>
      <point x="363" y="567"/>
      <point x="421" y="504"/>
      <point x="524" y="504" type="curve" smooth="yes"/>
      <point x="622" y="504"/>
      <point x="693" y="562"/>
      <point x="693" y="667" type="curve" smooth="yes"/>
      <point x="693" y="792"/>
      <point x="595" y="843"/>
      <point x="475" y="843" type="curve" smooth="yes"/>
      <point x="242" y="843"/>
      <point x="56" y="693"/>
      <point x="56" y="415" type="curve" smooth="yes"/>
      <point x="56" y="137"/>
      <point x="235" y="-12"/>
    </contour>
  </outline>
</glyph>
<glyph name="aivowelsigntamil" format="2">
  <advance width="1160"/>
  <unicode hex="0BC8"/>
  <outline>
    <contour>
      <point x="249" y="-12" type="curve" smooth="yes"/>
      <point x="356" y="-12"/>
      <point x="422" y="54"/>
      <point x="422" y="165" type="curve" smooth="yes"/>
      <point x="422" y="265"/>
      <point x="357" y="328"/>
      <point x="261" y="328" type="curve" smooth="yes"/>
      <point x="196" y="328"/>
      <point x="133" y="295"/>
      <point x="93" y="248" type="curve"/>
      <point x="108" y="184" type="line"/>
      <point x="147" y="227"/>
      <point x="194" y="258"/>
      <point x="247" y="258" type="curve" smooth="yes"/>
      <point x="302" y="258"/>
      <point x="340" y="221"/>
      <point x="340" y="155" type="curve" smooth="yes"/>
      <point x="340" y="91"/>
      <point x="307" y="56"/>
      <point x="254" y="56" type="curve" smooth="yes"/>
      <point x="187" y="56"/>
      <point x="136" y="103"/>
      <point x="136" y="233" type="curve" smooth="yes"/>
      <point x="136" y="244"/>
      <point x="138" y="263"/>
      <point x="139" y="283" type="curve"/>
      <point x="158" y="405"/>
      <point x="249" y="492"/>
      <point x="398" y="492" type="curve" smooth="yes"/>
      <point x="483" y="492"/>
      <point x="558" y="477"/>
      <point x="621" y="433" type="curve"/>
      <point x="698" y="373"/>
      <point x="740" y="289"/>
      <point x="740" y="182" type="curve" smooth="yes"/>
      <point x="740" y="121"/>
      <point x="722" y="56"/>
      <point x="660" y="56" type="curve" smooth="yes"/>
      <point x="611" y="56"/>
      <point x="581" y="97"/>
      <point x="581" y="189" type="curve" smooth="yes"/>
      <point x="581" y="289"/>
      <point x="609" y="372"/>
      <point x="673" y="439" type="curve"/>
      <point x="719" y="477"/>
      <point x="760" y="492"/>
      <point x="821" y="492" type="curve" smooth="yes"/>
      <point x="940" y="492"/>
      <point x="1008" y="407"/>
      <point x="1008" y="276" type="curve" smooth="yes"/>
      <point x="1008" y="164"/>
      <point x="975" y="92"/>
      <point x="933" y="32" type="curve"/>
      <point x="1005" y="-12" type="line"/>
      <point x="1050" y="54"/>
      <point x="1096" y="141"/>
      <point x="1096" y="280" type="curve" smooth="yes"/>
      <point x="1096" y="434"/>
      <point x="1016" y="566"/>
      <point x="828" y="566" type="curve" smooth="yes"/>
      <point x="756" y="566"/>
      <point x="693" y="542"/>
      <point x="640" y="498" type="curve"/>
      <point x="597" y="457" type="line"/>
      <point x="537" y="388"/>
      <point x="497" y="304"/>
      <point x="497" y="186" type="curve" smooth="yes"/>
      <point x="497" y="72"/>
      <point x="547" y="-12"/>
      <point x="663" y="-12" type="curve" smooth="yes"/>
      <point x="763" y="-12"/>
      <point x="825" y="56"/>
      <point x="825" y="189" type="curve" smooth="yes"/>
      <point x="825" y="298"/>
      <point x="779" y="398"/>
      <point x="695" y="466" type="curve"/>
      <point x="659" y="497" type="line"/>
      <point x="584" y="545"/>
      <point x="504" y="566"/>
      <point x="408" y="566" type="curve" smooth="yes"/>
      <point x="195" y="566"/>
      <point x="57" y="440"/>
      <point x="57" y="243" type="curve" smooth="yes"/>
      <point x="57" y="63"/>
      <point x="142" y="-12"/>
    </contour>
  </outline>
</glyph>
<glyph name="viramatamil" format="2">
  <unicode hex="0BCD"/>
  <outline>
    <contour>
      <point x="-278" y="678" type="curve" smooth="yes"/>
      <point x="-240" y="678"/>
      <point x="-211" y="705"/>
      <point x="-211" y="745" type="curve" smooth="yes"/>
      <point x="-211" y="783"/>
      <point x="-239" y="812"/>
      <point x="-278" y="812" type="curve" smooth="yes"/>
      <point x="-317" y="812"/>
      <point x="-345" y="783"/>
      <point x="-345" y="745" type="curve" smooth="yes"/>
      <point x="-345" y="705"/>
      <point x="-317" y="678"/>
    </contour>
  </outline>
</glyph>
<glyph name="ohmsigntamil" format="2">
  <advance width="1141"/>
  <unicode hex="0BD0"/>
  <outline>
    <contour>
      <point x="582" y="566" type="curve" smooth="yes"/>
      <point x="407" y="566"/>
      <point x="254" y="547"/>
      <point x="143" y="458" type="curve" smooth="yes"/>
      <point x="87" y="413"/>
      <point x="52" y="351"/>
      <point x="52" y="274" type="curve" smooth="yes"/>
      <point x="52" y="150"/>
      <point x="139" y="84"/>
      <point x="225" y="84" type="curve" smooth="yes"/>
      <point x="336" y="84"/>
      <point x="397" y="146"/>
      <point x="397" y="249" type="curve" smooth="yes"/>
      <point x="397" y="347"/>
      <point x="338" y="402"/>
      <point x="256" y="402" type="curve" smooth="yes"/>
      <point x="203" y="402"/>
      <point x="163" y="382"/>
      <point x="134" y="356" type="curve"/>
      <point x="125" y="281" type="line"/>
      <point x="155" y="312"/>
      <point x="191" y="332"/>
      <point x="230" y="332" type="curve" smooth="yes"/>
      <point x="281" y="332"/>
      <point x="315" y="299"/>
      <point x="315" y="240" type="curve" smooth="yes"/>
      <point x="315" y="184"/>
      <point x="284" y="152"/>
      <point x="230" y="152" type="curve" smooth="yes"/>
      <point x="179" y="152"/>
      <point x="131" y="188"/>
      <point x="131" y="267" type="curve" smooth="yes"/>
      <point x="131" y="309"/>
      <point x="137" y="337"/>
      <point x="151" y="364" type="curve"/>
      <point x="198" y="426"/>
      <point x="317" y="489"/>
      <point x="584" y="489" type="curve" smooth="yes"/>
      <point x="855" y="489"/>
      <point x="1003" y="400"/>
      <point x="1003" y="245" type="curve" smooth="yes"/>
      <point x="1003" y="182"/>
      <point x="976" y="135"/>
      <point x="921" y="135" type="curve" smooth="yes"/>
      <point x="856" y="135"/>
      <point x="838" y="174"/>
      <point x="838" y="221" type="curve" smooth="yes"/>
      <point x="838" y="263"/>
      <point x="847" y="285"/>
      <point x="863" y="319" type="curve"/>
      <point x="782" y="358" type="line"/>
      <point x="683" y="307"/>
      <point x="621" y="223"/>
      <point x="621" y="126" type="curve" smooth="yes"/>
      <point x="621" y="32"/>
      <point x="669" y="-55"/>
      <point x="811" y="-94" type="curve" smooth="yes"/>
      <point x="840" y="-102"/>
      <point x="875" y="-108"/>
      <point x="945" y="-108" type="curve" smooth="yes"/>
      <point x="1032" y="-108" type="line"/>
      <point x="1032" y="-37" type="line"/>
      <point x="951" y="-37" type="line" smooth="yes"/>
      <point x="838" y="-37"/>
      <point x="781" y="-20"/>
      <point x="741" y="23" type="curve" smooth="yes"/>
      <point x="716" y="50"/>
      <point x="702" y="86"/>
      <point x="702" y="134" type="curve" smooth="yes"/>
      <point x="702" y="200"/>
      <point x="736" y="256"/>
      <point x="807" y="295" type="curve"/>
      <point x="795" y="299" type="line"/>
      <point x="773" y="276"/>
      <point x="766" y="234"/>
      <point x="766" y="203" type="curve" smooth="yes"/>
      <point x="766" y="104"/>
      <point x="836" y="64"/>
      <point x="921" y="64" type="curve" smooth="yes"/>
      <point x="1054" y="64"/>
      <point x="1089" y="167"/>
      <point x="1089" y="256" type="curve" smooth="yes"/>
      <point x="1089" y="321"/>
      <point x="1066" y="375"/>
      <point x="1027" y="419" type="curve" smooth="yes"/>
      <point x="932" y="526"/>
      <point x="779" y="566"/>
    </contour>
    <contour>
      <point x="89" y="-131" type="curve" smooth="yes"/>
      <point x="89" y="-267"/>
      <point x="200" y="-321"/>
      <point x="410" y="-321" type="curve" smooth="yes"/>
      <point x="413" y="-321" type="line" smooth="yes"/>
      <point x="646" y="-321"/>
      <point x="745" y="-286"/>
      <point x="827" y="-133" type="curve" smooth="yes"/>
      <point x="846" y="-99" type="line"/>
      <point x="762" y="-70" type="line"/>
      <point x="692" y="-213"/>
      <point x="628" y="-249"/>
      <point x="413" y="-249" type="curve" smooth="yes"/>
      <point x="272" y="-249"/>
      <point x="171" y="-227"/>
      <point x="171" y="-132" type="curve" smooth="yes"/>
      <point x="171" y="-102"/>
      <point x="179" y="-60"/>
      <point x="210" y="-14" type="curve"/>
      <point x="141" y="21" type="line"/>
      <point x="105" y="-28"/>
      <point x="89" y="-92"/>
    </contour>
    <contour>
      <point x="508" y="49" type="curve" smooth="yes"/>
      <point x="485" y="49"/>
      <point x="468" y="44"/>
      <point x="454" y="35" type="curve" smooth="yes"/>
      <point x="431" y="19"/>
      <point x="423" y="-1"/>
      <point x="423" y="-49" type="curve" smooth="yes"/>
      <point x="423" y="-139" type="line"/>
      <point x="340" y="-139" type="line"/>
      <point x="340" y="42" type="line"/>
      <point x="279" y="42" type="line"/>
      <point x="279" y="-186" type="line"/>
      <point x="495" y="-186" type="line" smooth="yes"/>
      <point x="543" y="-186"/>
      <point x="568" y="-179"/>
      <point x="589" y="-162" type="curve" smooth="yes"/>
      <point x="607" y="-148"/>
      <point x="622" y="-121"/>
      <point x="622" y="-81" type="curve" smooth="yes"/>
      <point x="622" y="-46"/>
      <point x="612" y="-17"/>
      <point x="592" y="9" type="curve" smooth="yes"/>
      <point x="572" y="35"/>
      <point x="543" y="49"/>
    </contour>
    <contour>
      <point x="508" y="0" type="curve" smooth="yes"/>
      <point x="540" y="0"/>
      <point x="561" y="-33"/>
      <point x="561" y="-80" type="curve" smooth="yes"/>
      <point x="561" y="-119"/>
      <point x="550" y="-139"/>
      <point x="511" y="-139" type="curve" smooth="yes"/>
      <point x="483" y="-139" type="line"/>
      <point x="483" y="-30" type="line" smooth="yes"/>
      <point x="483" y="-10"/>
      <point x="492" y="0"/>
    </contour>
    <contour>
      <point x="490" y="94" type="curve" smooth="yes"/>
      <point x="516" y="94"/>
      <point x="535" y="113"/>
      <point x="535" y="138" type="curve" smooth="yes"/>
      <point x="535" y="164"/>
      <point x="516" y="183"/>
      <point x="490" y="183" type="curve" smooth="yes"/>
      <point x="465" y="183"/>
      <point x="446" y="164"/>
      <point x="446" y="138" type="curve" smooth="yes"/>
      <point x="446" y="113"/>
      <point x="465" y="94"/>
    </contour>
  </outline>
</glyph>
<glyph name="twotamil" format="2">
  <advance width="1067"/>
  <unicode hex="0BE8"/>
  <outline>
    <contour>
      <point x="323" y="566" type="curve" smooth="yes"/>
      <point x="162" y="566"/>
      <point x="71" y="486"/>
      <point x="71" y="362" type="curve" smooth="yes"/>
      <point x="71" y="282"/>
      <point x="122" y="202"/>
      <point x="223" y="148" type="curve"/>
      <point x="290" y="183" type="line"/>
      <point x="209" y="221"/>
      <point x="158" y="289"/>
      <point x="158" y="362" type="curve" smooth="yes"/>
      <point x="158" y="443"/>
      <point x="216" y="493"/>
      <point x="328" y="493" type="curve" smooth="yes"/>
      <point x="443" y="493"/>
      <point x="516" y="432"/>
      <point x="516" y="349" type="curve" smooth="yes"/>
      <point x="516" y="284"/>
      <point x="485" y="223"/>
      <point x="303" y="205" type="curve"/>
      <point x="226" y="198" type="line"/>
      <point x="105" y="186"/>
      <point x="62" y="154"/>
      <point x="62" y="94" type="curve" smooth="yes"/>
      <point x="62" y="41"/>
      <point x="97" y="0"/>
      <point x="191" y="0" type="curve" smooth="yes"/>
      <point x="1050" y="0" type="line"/>
      <point x="1050" y="72" type="line"/>
      <point x="182" y="72" type="line" smooth="yes"/>
      <point x="156" y="72"/>
      <point x="146" y="79"/>
      <point x="146" y="95" type="curve" smooth="yes"/>
      <point x="146" y="112"/>
      <point x="156" y="120"/>
      <point x="229" y="127" type="curve" smooth="yes"/>
      <point x="309" y="135" type="line" smooth="yes"/>
      <point x="483" y="153"/>
      <point x="602" y="193"/>
      <point x="602" y="349" type="curve" smooth="yes"/>
      <point x="602" y="467"/>
      <point x="511" y="566"/>
    </contour>
  </outline>
</glyph>
<glyph name="tentamil" format="2">
  <advance width="875"/>
  <unicode hex="0BF0"/>
  <outline>
    <contour>
      <point x="257" y="-12" type="curve" smooth="yes"/>
      <point x="335" y="-12"/>
      <point x="385" y="32"/>
      <point x="412" y="113" type="curve"/>
      <point x="389" y="107" type="line"/>
      <point x="410" y="41"/>
      <point x="473" y="-12"/>
      <point x="560" y="-12" type="curve" smooth="yes"/>
      <point x="720" y="-12"/>
      <point x="807" y="117"/>
      <point x="807" y="390" type="curve" smooth="yes"/>
      <point x="807" y="392" type="line" smooth="yes"/>
      <point x="807" y="628"/>
      <point x="745" y="740"/>
      <point x="654" y="799" type="curve" smooth="yes"/>
      <point x="603" y="832"/>
      <point x="544" y="843"/>
      <point x="489" y="843" type="curve" smooth="yes"/>
      <point x="420" y="843"/>
      <point x="352" y="825"/>
      <point x="294" y="795" type="curve"/>
      <point x="319" y="724" type="line"/>
      <point x="361" y="747"/>
      <point x="419" y="768"/>
      <point x="481" y="768" type="curve" smooth="yes"/>
      <point x="610" y="768"/>
      <point x="720" y="693"/>
      <point x="720" y="390" type="curve" smooth="yes"/>
      <point x="720" y="140"/>
      <point x="655" y="60"/>
      <point x="559" y="60" type="curve" smooth="yes"/>
      <point x="530" y="60"/>
      <point x="498" y="70"/>
      <point x="476" y="96" type="curve" smooth="yes"/>
      <point x="449" y="126"/>
      <point x="440" y="165"/>
      <point x="440" y="236" type="curve" smooth="yes"/>
      <point x="440" y="554" type="line"/>
      <point x="354" y="554" type="line"/>
      <point x="354" y="234" type="line" smooth="yes"/>
      <point x="354" y="169"/>
      <point x="349" y="123"/>
      <point x="329" y="93" type="curve" smooth="yes"/>
      <point x="316" y="73"/>
      <point x="295" y="60"/>
      <point x="264" y="60" type="curve" smooth="yes"/>
      <point x="233" y="60"/>
      <point x="213" y="72"/>
      <point x="199" y="91" type="curve" smooth="yes"/>
      <point x="178" y="121"/>
      <point x="174" y="168"/>
      <point x="174" y="227" type="curve" smooth="yes"/>
      <point x="174" y="554" type="line"/>
      <point x="88" y="554" type="line"/>
      <point x="88" y="213" type="line" smooth="yes"/>
      <point x="88" y="116"/>
      <point x="100" y="71"/>
      <point x="141" y="30" type="curve" smooth="yes"/>
      <point x="169" y="2"/>
      <point x="207" y="-12"/>
    </contour>
  </outline>
</glyph>
<glyph name="hundredtamil" format="2">
  <advance width="887"/>
  <unicode hex="0BF1"/>
  <outline>
    <contour>
      <point x="354" y="0" type="line"/>
      <point x="440" y="0" type="line"/>
      <point x="440" y="482" type="line"/>
      <point x="614" y="482" type="line"/>
      <point x="614" y="0" type="line"/>
      <point x="700" y="0" type="line"/>
      <point x="700" y="482" type="line"/>
      <point x="870" y="482" type="line"/>
      <point x="870" y="554" type="line"/>
      <point x="354" y="554" type="line"/>
    </contour>
    <contour>
      <point x="240" y="565" type="curve" smooth="yes"/>
      <point x="191" y="565"/>
      <point x="154" y="548"/>
      <point x="129" y="518" type="curve" smooth="yes"/>
      <point x="106" y="489"/>
      <point x="88" y="454"/>
      <point x="88" y="352" type="curve" smooth="yes"/>
      <point x="88" y="0" type="line"/>
      <point x="174" y="0" type="line"/>
      <point x="174" y="331" type="line" smooth="yes"/>
      <point x="174" y="393"/>
      <point x="175" y="445"/>
      <point x="202" y="472" type="curve" smooth="yes"/>
      <point x="215" y="485"/>
      <point x="232" y="493"/>
      <point x="258" y="493" type="curve" smooth="yes"/>
      <point x="297" y="493"/>
      <point x="331" y="474"/>
      <point x="360" y="429" type="curve"/>
      <point x="358" y="515" type="line"/>
      <point x="333" y="540"/>
      <point x="295" y="565"/>
    </contour>
  </outline>
</glyph>
<glyph name="daysigntamil" format="2">
  <advance width="985"/>
  <unicode hex="0BF3"/>
  <outline>
    <contour>
      <point x="249" y="-12" type="curve" smooth="yes"/>
      <point x="356" y="-12"/>
      <point x="422" y="54"/>
      <point x="422" y="165" type="curve" smooth="yes"/>
      <point x="422" y="265"/>
      <point x="357" y="328"/>
      <point x="261" y="328" type="curve" smooth="yes"/>
      <point x="196" y="328"/>
      <point x="133" y="295"/>
      <point x="93" y="248" type="curve"/>
      <point x="108" y="184" type="line"/>
      <point x="147" y="227"/>
      <point x="194" y="258"/>
      <point x="247" y="258" type="curve" smooth="yes"/>
      <point x="302" y="258"/>
      <point x="340" y="221"/>
      <point x="340" y="155" type="curve" smooth="yes"/>
      <point x="340" y="91"/>
      <point x="305" y="56"/>
      <point x="253" y="56" type="curve" smooth="yes"/>
      <point x="187" y="56"/>
      <point x="136" y="103"/>
      <point x="136" y="237" type="curve" smooth="yes"/>
      <point x="136" y="383"/>
      <point x="220" y="492"/>
      <point x="360" y="492" type="curve" smooth="yes"/>
      <point x="484" y="492"/>
      <point x="563" y="411"/>
      <point x="563" y="269" type="curve" smooth="yes"/>
      <point x="563" y="178"/>
      <point x="542" y="109"/>
      <point x="511" y="63" type="curve"/>
      <point x="515" y="0" type="line"/>
      <point x="968" y="0" type="line"/>
      <point x="968" y="72" type="line"/>
      <point x="603" y="72" type="line"/>
      <point x="630" y="131"/>
      <point x="651" y="194"/>
      <point x="651" y="280" type="curve" smooth="yes"/>
      <point x="651" y="437"/>
      <point x="567" y="566"/>
      <point x="364" y="566" type="curve" smooth="yes"/>
      <point x="199" y="566"/>
      <point x="57" y="457"/>
      <point x="57" y="243" type="curve" smooth="yes"/>
      <point x="57" y="63"/>
      <point x="142" y="-12"/>
    </contour>
  </outline>
</glyph>
<glyph name="monthsigntamil" format="2">
  <advance width="1268"/>
  <unicode hex="0BF4"/>
  <outline>
    <contour>
      <point x="580" y="566" type="curve" smooth="yes"/>
      <point x="516" y="566"/>
      <point x="475" y="548"/>
      <point x="445" y="515" type="curve" smooth="yes"/>
      <point x="415" y="481"/>
      <point x="400" y="437"/>
      <point x="400" y="355" type="curve" smooth="yes"/>
      <point x="400" y="72" type="line"/>
      <point x="174" y="72" type="line"/>
      <point x="174" y="554" type="line"/>
      <point x="88" y="554" type="line"/>
      <point x="88" y="0" type="line"/>
      <point x="512" y="0" type="line" smooth="yes"/>
      <point x="627" y="0"/>
      <point x="687" y="14"/>
      <point x="734" y="60" type="curve" smooth="yes"/>
      <point x="778" y="103"/>
      <point x="797" y="169"/>
      <point x="797" y="262" type="curve" smooth="yes"/>
      <point x="797" y="442"/>
      <point x="729" y="566"/>
    </contour>
    <contour>
      <point x="578" y="494" type="curve" smooth="yes"/>
      <point x="671" y="494"/>
      <point x="709" y="394"/>
      <point x="709" y="267" type="curve" smooth="yes"/>
      <point x="709" y="124"/>
      <point x="668" y="72"/>
      <point x="533" y="72" type="curve" smooth="yes"/>
      <point x="486" y="72" type="line"/>
      <point x="486" y="338" type="line" smooth="yes"/>
      <point x="486" y="420"/>
      <point x="496" y="447"/>
      <point x="518" y="471" type="curve" smooth="yes"/>
      <point x="533" y="487"/>
      <point x="555" y="494"/>
    </contour>
    <contour>
      <point x="853" y="494" type="curve" smooth="yes"/>
      <point x="916" y="494"/>
      <point x="964" y="534"/>
      <point x="964" y="602" type="curve" smooth="yes"/>
      <point x="964" y="638"/>
      <point x="953" y="663"/>
      <point x="933" y="680" type="curve" smooth="yes"/>
      <point x="909" y="700"/>
      <point x="880" y="709"/>
      <point x="822" y="709" type="curve" smooth="yes"/>
      <point x="795" y="709" type="line" smooth="yes"/>
      <point x="674" y="709"/>
      <point x="604" y="653"/>
      <point x="597" y="554" type="curve"/>
      <point x="663" y="526" type="line"/>
      <point x="663" y="548" type="line" smooth="yes"/>
      <point x="663" y="614"/>
      <point x="698" y="654"/>
      <point x="774" y="654" type="curve" smooth="yes"/>
      <point x="816" y="654" type="line" smooth="yes"/>
      <point x="849" y="654"/>
      <point x="867" y="651"/>
      <point x="881" y="643" type="curve" smooth="yes"/>
      <point x="895" y="635"/>
      <point x="902" y="621"/>
      <point x="902" y="600" type="curve" smooth="yes"/>
      <point x="902" y="566"/>
      <point x="879" y="553"/>
      <point x="850" y="553" type="curve" smooth="yes"/>
      <point x="806" y="553"/>
      <point x="787" y="583"/>
      <point x="787" y="640" type="curve" smooth="yes"/>
      <point x="787" y="659"/>
      <point x="789" y="676"/>
      <point x="793" y="690" type="curve" smooth="yes"/>
      <point x="813" y="758"/>
      <point x="873" y="784"/>
      <point x="935" y="784" type="curve" smooth="yes"/>
      <point x="1014" y="784"/>
      <point x="1060" y="734"/>
      <point x="1060" y="658" type="curve" smooth="yes"/>
      <point x="1060" y="605"/>
      <point x="1047" y="571"/>
      <point x="1026" y="534" type="curve"/>
      <point x="1026" y="496" type="line"/>
      <point x="1251" y="496" type="line"/>
      <point x="1251" y="554" type="line"/>
      <point x="1077" y="554" type="line"/>
      <point x="1105" y="549" type="line"/>
      <point x="1126" y="585"/>
      <point x="1135" y="630"/>
      <point x="1135" y="669" type="curve" smooth="yes"/>
      <point x="1135" y="772"/>
      <point x="1062" y="843"/>
      <point x="933" y="843" type="curve" smooth="yes"/>
      <point x="841" y="843"/>
      <point x="746" y="793"/>
      <point x="727" y="684" type="curve" smooth="yes"/>
      <point x="724" y="670"/>
      <point x="724" y="657"/>
      <point x="724" y="642" type="curve" smooth="yes"/>
      <point x="724" y="542"/>
      <point x="780" y="494"/>
    </contour>
  </outline>
</glyph>
<glyph name="yearsigntamil" format="2">
  <advance width="2223"/>
  <unicode hex="0BF5"/>
  <outline>
    <contour>
      <point x="946" y="766" type="curve" smooth="yes"/>
      <point x="1245" y="766"/>
      <point x="1445" y="731"/>
      <point x="1570" y="646" type="curve" smooth="yes"/>
      <point x="1690" y="563"/>
      <point x="1740" y="441"/>
      <point x="1740" y="244" type="curve" smooth="yes"/>
      <point x="1740" y="152"/>
      <point x="1764" y="78"/>
      <point x="1807" y="38" type="curve" smooth="yes"/>
      <point x="1841" y="5"/>
      <point x="1889" y="-12"/>
      <point x="1947" y="-12" type="curve" smooth="yes"/>
      <point x="2086" y="-12"/>
      <point x="2160" y="74"/>
      <point x="2160" y="244" type="curve" smooth="yes"/>
      <point x="2160" y="381"/>
      <point x="2108" y="495"/>
      <point x="2026" y="600" type="curve"/>
      <point x="1948" y="547" type="line"/>
      <point x="2020" y="469"/>
      <point x="2073" y="369"/>
      <point x="2073" y="237" type="curve" smooth="yes"/>
      <point x="2073" y="103"/>
      <point x="2020" y="62"/>
      <point x="1954" y="62" type="curve" smooth="yes"/>
      <point x="1915" y="62"/>
      <point x="1888" y="73"/>
      <point x="1868" y="95" type="curve" smooth="yes"/>
      <point x="1835" y="130"/>
      <point x="1827" y="182"/>
      <point x="1827" y="261" type="curve" smooth="yes"/>
      <point x="1827" y="402"/>
      <point x="1812" y="573"/>
      <point x="1648" y="693" type="curve" smooth="yes"/>
      <point x="1526" y="782"/>
      <point x="1323" y="843"/>
      <point x="982" y="843" type="curve" smooth="yes"/>
      <point x="927" y="843" type="line" smooth="yes"/>
      <point x="278" y="843"/>
      <point x="68" y="582"/>
      <point x="68" y="283" type="curve" smooth="yes"/>
      <point x="68" y="246" type="line" smooth="yes"/>
      <point x="68" y="-80"/>
      <point x="308" y="-321"/>
      <point x="907" y="-321" type="curve" smooth="yes"/>
      <point x="941" y="-321" type="line" smooth="yes"/>
      <point x="1341" y="-321"/>
      <point x="1651" y="-209"/>
      <point x="1651" y="105" type="curve" smooth="yes"/>
      <point x="1651" y="219"/>
      <point x="1585" y="319"/>
      <point x="1469" y="319" type="curve" smooth="yes"/>
      <point x="1437" y="319"/>
      <point x="1411" y="312"/>
      <point x="1389" y="302" type="curve"/>
      <point x="1389" y="482" type="line"/>
      <point x="1548" y="482" type="line"/>
      <point x="1548" y="554" type="line"/>
      <point x="1057" y="554" type="line"/>
      <point x="1057" y="0" type="line"/>
      <point x="1143" y="0" type="line"/>
      <point x="1143" y="482" type="line"/>
      <point x="1303" y="482" type="line"/>
      <point x="1303" y="0" type="line"/>
      <point x="1389" y="0" type="line"/>
      <point x="1389" y="230" type="line"/>
      <point x="1408" y="240"/>
      <point x="1430" y="247"/>
      <point x="1454" y="247" type="curve" smooth="yes"/>
      <point x="1523" y="247"/>
      <point x="1563" y="183"/>
      <point x="1563" y="100" type="curve" smooth="yes"/>
      <point x="1563" y="-148"/>
      <point x="1323" y="-244"/>
      <point x="933" y="-244" type="curve" smooth="yes"/>
      <point x="913" y="-244" type="line" smooth="yes"/>
      <point x="346" y="-244"/>
      <point x="156" y="-26"/>
      <point x="156" y="259" type="curve" smooth="yes"/>
      <point x="156" y="271" type="line" smooth="yes"/>
      <point x="156" y="610"/>
      <point x="429" y="766"/>
    </contour>
    <contour>
      <point x="504" y="-12" type="curve" smooth="yes"/>
      <point x="611" y="-12"/>
      <point x="677" y="54"/>
      <point x="677" y="165" type="curve" smooth="yes"/>
      <point x="677" y="265"/>
      <point x="612" y="328"/>
      <point x="516" y="328" type="curve" smooth="yes"/>
      <point x="451" y="328"/>
      <point x="388" y="295"/>
      <point x="348" y="248" type="curve"/>
      <point x="363" y="184" type="line"/>
      <point x="402" y="227"/>
      <point x="449" y="258"/>
      <point x="501" y="258" type="curve" smooth="yes"/>
      <point x="557" y="258"/>
      <point x="595" y="221"/>
      <point x="595" y="155" type="curve" smooth="yes"/>
      <point x="595" y="91"/>
      <point x="560" y="56"/>
      <point x="508" y="56" type="curve" smooth="yes"/>
      <point x="443" y="56"/>
      <point x="391" y="103"/>
      <point x="391" y="237" type="curve" smooth="yes"/>
      <point x="391" y="383"/>
      <point x="475" y="492"/>
      <point x="615" y="492" type="curve" smooth="yes"/>
      <point x="739" y="492"/>
      <point x="818" y="411"/>
      <point x="818" y="269" type="curve" smooth="yes"/>
      <point x="818" y="178"/>
      <point x="797" y="109"/>
      <point x="766" y="63" type="curve"/>
      <point x="770" y="0" type="line"/>
      <point x="1077" y="0" type="line"/>
      <point x="1077" y="72" type="line"/>
      <point x="858" y="72" type="line"/>
      <point x="886" y="131"/>
      <point x="906" y="194"/>
      <point x="906" y="280" type="curve" smooth="yes"/>
      <point x="906" y="437"/>
      <point x="822" y="566"/>
      <point x="619" y="566" type="curve" smooth="yes"/>
      <point x="454" y="566"/>
      <point x="312" y="457"/>
      <point x="312" y="243" type="curve" smooth="yes"/>
      <point x="312" y="63"/>
      <point x="397" y="-12"/>
    </contour>
  </outline>
</glyph>
<glyph name="debitsigntamil" format="2">
  <advance width="871"/>
  <unicode hex="0BF6"/>
  <outline>
    <contour>
      <point x="236" y="-321" type="curve" smooth="yes"/>
      <point x="366" y="-321"/>
      <point x="454" y="-262"/>
      <point x="502" y="-149" type="curve"/>
      <point x="518" y="-90" type="line"/>
      <point x="524" y="-62"/>
      <point x="528" y="-26"/>
      <point x="528" y="21" type="curve" smooth="yes"/>
      <point x="528" y="108" type="line"/>
      <point x="442" y="77" type="line"/>
      <point x="442" y="23" type="line" smooth="yes"/>
      <point x="442" y="-31"/>
      <point x="438" y="-63"/>
      <point x="432" y="-89" type="curve"/>
      <point x="414" y="-149" type="line"/>
      <point x="376" y="-218"/>
      <point x="323" y="-249"/>
      <point x="236" y="-249" type="curve" smooth="yes"/>
      <point x="162" y="-249"/>
      <point x="121" y="-219"/>
      <point x="121" y="-180" type="curve" smooth="yes"/>
      <point x="121" y="-162"/>
      <point x="136" y="-156"/>
      <point x="159" y="-156" type="curve" smooth="yes"/>
      <point x="426" y="-156" type="line"/>
      <point x="473" y="-156" type="line"/>
      <point x="783" y="-156" type="line"/>
      <point x="783" y="328" type="line"/>
      <point x="697" y="328" type="line"/>
      <point x="697" y="-84" type="line"/>
      <point x="165" y="-84" type="line" smooth="yes"/>
      <point x="107" y="-84"/>
      <point x="87" y="-90"/>
      <point x="69" y="-103" type="curve" smooth="yes"/>
      <point x="49" y="-116"/>
      <point x="38" y="-138"/>
      <point x="38" y="-167" type="curve" smooth="yes"/>
      <point x="38" y="-263"/>
      <point x="123" y="-321"/>
    </contour>
    <contour>
      <point x="328" y="-11" type="curve" smooth="yes"/>
      <point x="383" y="-11"/>
      <point x="421" y="14"/>
      <point x="446" y="39" type="curve"/>
      <point x="448" y="125" type="line"/>
      <point x="419" y="80"/>
      <point x="385" y="61"/>
      <point x="346" y="61" type="curve" smooth="yes"/>
      <point x="320" y="61"/>
      <point x="303" y="69"/>
      <point x="290" y="82" type="curve" smooth="yes"/>
      <point x="263" y="109"/>
      <point x="262" y="161"/>
      <point x="262" y="223" type="curve" smooth="yes"/>
      <point x="262" y="554" type="line"/>
      <point x="176" y="554" type="line"/>
      <point x="176" y="202" type="line" smooth="yes"/>
      <point x="176" y="100"/>
      <point x="194" y="65"/>
      <point x="217" y="36" type="curve" smooth="yes"/>
      <point x="242" y="6"/>
      <point x="279" y="-11"/>
    </contour>
    <contour>
      <point x="528" y="554" type="line"/>
      <point x="442" y="554" type="line"/>
      <point x="442" y="62" type="line"/>
      <point x="528" y="88" type="line"/>
    </contour>
  </outline>
</glyph>
<glyph name="creditsigntamil" format="2">
  <advance width="1328"/>
  <unicode hex="0BF7"/>
  <outline>
    <contour>
      <point x="249" y="-12" type="curve" smooth="yes"/>
      <point x="356" y="-12"/>
      <point x="422" y="54"/>
      <point x="422" y="165" type="curve" smooth="yes"/>
      <point x="422" y="265"/>
      <point x="357" y="328"/>
      <point x="261" y="328" type="curve" smooth="yes"/>
      <point x="195" y="328"/>
      <point x="133" y="295"/>
      <point x="93" y="248" type="curve"/>
      <point x="108" y="184" type="line"/>
      <point x="147" y="227"/>
      <point x="194" y="258"/>
      <point x="247" y="258" type="curve" smooth="yes"/>
      <point x="302" y="258"/>
      <point x="340" y="221"/>
      <point x="340" y="155" type="curve" smooth="yes"/>
      <point x="340" y="91"/>
      <point x="307" y="56"/>
      <point x="253" y="56" type="curve" smooth="yes"/>
      <point x="187" y="56"/>
      <point x="136" y="103"/>
      <point x="136" y="232" type="curve" smooth="yes"/>
      <point x="136" y="313"/>
      <point x="163" y="378"/>
      <point x="214" y="423" type="curve" smooth="yes"/>
      <point x="254" y="458"/>
      <point x="310" y="482"/>
      <point x="439" y="482" type="curve" smooth="yes"/>
      <point x="508" y="482" type="line"/>
      <point x="508" y="554" type="line"/>
      <point x="451" y="554" type="line" smooth="yes"/>
      <point x="301" y="554"/>
      <point x="213" y="525"/>
      <point x="150" y="468" type="curve" smooth="yes"/>
      <point x="93" y="417"/>
      <point x="57" y="341"/>
      <point x="57" y="239" type="curve" smooth="yes"/>
      <point x="57" y="63"/>
      <point x="142" y="-12"/>
    </contour>
    <contour>
      <point x="528" y="0" type="line"/>
      <point x="614" y="0" type="line"/>
      <point x="614" y="482" type="line"/>
      <point x="784" y="482" type="line"/>
      <point x="784" y="554" type="line"/>
      <point x="494" y="554" type="line"/>
      <point x="492" y="482" type="line"/>
      <point x="528" y="482" type="line"/>
    </contour>
    <contour>
      <point x="833" y="-3" type="curve" smooth="yes"/>
      <point x="896" y="-3"/>
      <point x="945" y="36"/>
      <point x="945" y="107" type="curve" smooth="yes"/>
      <point x="945" y="146"/>
      <point x="933" y="173"/>
      <point x="905" y="191" type="curve" smooth="yes"/>
      <point x="883" y="205"/>
      <point x="857" y="214"/>
      <point x="806" y="214" type="curve" smooth="yes"/>
      <point x="605" y="214" type="line"/>
      <point x="611" y="158" type="line"/>
      <point x="797" y="158" type="line" smooth="yes"/>
      <point x="830" y="158"/>
      <point x="848" y="155"/>
      <point x="861" y="147" type="curve" smooth="yes"/>
      <point x="876" y="139"/>
      <point x="882" y="125"/>
      <point x="882" y="104" type="curve" smooth="yes"/>
      <point x="882" y="70"/>
      <point x="859" y="56"/>
      <point x="831" y="56" type="curve" smooth="yes"/>
      <point x="787" y="56"/>
      <point x="768" y="86"/>
      <point x="768" y="144" type="curve" smooth="yes"/>
      <point x="768" y="164"/>
      <point x="771" y="181"/>
      <point x="775" y="196" type="curve" smooth="yes"/>
      <point x="795" y="263"/>
      <point x="854" y="288"/>
      <point x="916" y="288" type="curve" smooth="yes"/>
      <point x="995" y="288"/>
      <point x="1041" y="238"/>
      <point x="1041" y="162" type="curve" smooth="yes"/>
      <point x="1041" y="109"/>
      <point x="1027" y="75"/>
      <point x="1006" y="38" type="curve"/>
      <point x="1006" y="0" type="line"/>
      <point x="1311" y="0" type="line"/>
      <point x="1311" y="59" type="line"/>
      <point x="1067" y="59" type="line"/>
      <point x="1083" y="50" type="line"/>
      <point x="1107" y="86"/>
      <point x="1116" y="134"/>
      <point x="1116" y="173" type="curve" smooth="yes"/>
      <point x="1116" y="276"/>
      <point x="1043" y="348"/>
      <point x="914" y="348" type="curve" smooth="yes"/>
      <point x="826" y="348"/>
      <point x="734" y="301"/>
      <point x="709" y="201" type="curve"/>
      <point x="706" y="185"/>
      <point x="704" y="166"/>
      <point x="704" y="146" type="curve" smooth="yes"/>
      <point x="704" y="44"/>
      <point x="764" y="-3"/>
    </contour>
  </outline>
</glyph>
<glyph name="asabovesigntamil" format="2">
  <advance width="1965"/>
  <unicode hex="0BF8"/>
  <outline>
    <contour>
      <point x="400" y="-12" type="curve" smooth="yes"/>
      <point x="511" y="-12"/>
      <point x="602" y="42"/>
      <point x="602" y="173" type="curve" smooth="yes"/>
      <point x="602" y="285"/>
      <point x="529" y="349"/>
      <point x="432" y="349" type="curve" smooth="yes"/>
      <point x="315" y="349"/>
      <point x="257" y="276"/>
      <point x="257" y="192" type="curve" smooth="yes"/>
      <point x="257" y="135"/>
      <point x="272" y="100"/>
      <point x="295" y="62" type="curve"/>
      <point x="374" y="55" type="line"/>
      <point x="347" y="86"/>
      <point x="335" y="128"/>
      <point x="335" y="171" type="curve" smooth="yes"/>
      <point x="335" y="238"/>
      <point x="372" y="277"/>
      <point x="430" y="277" type="curve" smooth="yes"/>
      <point x="488" y="277"/>
      <point x="523" y="232"/>
      <point x="523" y="173" type="curve" smooth="yes"/>
      <point x="523" y="95"/>
      <point x="479" y="58"/>
      <point x="411" y="58" type="curve" smooth="yes"/>
      <point x="394" y="58"/>
      <point x="377" y="59"/>
      <point x="361" y="62" type="curve"/>
      <point x="297" y="82" type="line"/>
      <point x="208" y="126"/>
      <point x="146" y="228"/>
      <point x="146" y="375" type="curve" smooth="yes"/>
      <point x="146" y="647"/>
      <point x="334" y="768"/>
      <point x="520" y="768" type="curve" smooth="yes"/>
      <point x="718" y="768"/>
      <point x="828" y="674"/>
      <point x="900" y="551" type="curve"/>
      <point x="923" y="499" type="line"/>
      <point x="944" y="449"/>
      <point x="958" y="385"/>
      <point x="958" y="321" type="curve" smooth="yes"/>
      <point x="958" y="223"/>
      <point x="926" y="159"/>
      <point x="855" y="159" type="curve" smooth="yes"/>
      <point x="799" y="159"/>
      <point x="763" y="197"/>
      <point x="763" y="282" type="curve" smooth="yes"/>
      <point x="763" y="398"/>
      <point x="826" y="478"/>
      <point x="934" y="495" type="curve"/>
      <point x="1010" y="497" type="line"/>
      <point x="1115" y="484"/>
      <point x="1183" y="405"/>
      <point x="1183" y="269" type="curve" smooth="yes"/>
      <point x="1183" y="178"/>
      <point x="1162" y="109"/>
      <point x="1131" y="63" type="curve"/>
      <point x="1135" y="0" type="line"/>
      <point x="1478" y="0" type="line"/>
      <point x="1496" y="72" type="line"/>
      <point x="1223" y="72" type="line"/>
      <point x="1250" y="131"/>
      <point x="1271" y="194"/>
      <point x="1271" y="280" type="curve" smooth="yes"/>
      <point x="1271" y="438"/>
      <point x="1187" y="566"/>
      <point x="981" y="566" type="curve" smooth="yes"/>
      <point x="955" y="566"/>
      <point x="929" y="563"/>
      <point x="903" y="559" type="curve"/>
      <point x="779" y="532"/>
      <point x="677" y="436"/>
      <point x="677" y="285" type="curve" smooth="yes"/>
      <point x="677" y="144"/>
      <point x="765" y="91"/>
      <point x="855" y="91" type="curve" smooth="yes"/>
      <point x="983" y="91"/>
      <point x="1044" y="179"/>
      <point x="1044" y="321" type="curve" smooth="yes"/>
      <point x="1044" y="383"/>
      <point x="1035" y="445"/>
      <point x="1015" y="502" type="curve"/>
      <point x="994" y="561" type="line"/>
      <point x="915" y="735"/>
      <point x="746" y="843"/>
      <point x="528" y="843" type="curve" smooth="yes"/>
      <point x="267" y="843"/>
      <point x="57" y="680"/>
      <point x="57" y="383" type="curve" smooth="yes"/>
      <point x="57" y="149"/>
      <point x="200" y="-12"/>
    </contour>
    <contour>
      <point x="1529" y="566" type="curve" smooth="yes"/>
      <point x="1418" y="566"/>
      <point x="1355" y="485"/>
      <point x="1355" y="384" type="curve" smooth="yes"/>
      <point x="1355" y="246"/>
      <point x="1461" y="182"/>
      <point x="1604" y="182" type="curve" smooth="yes"/>
      <point x="1619" y="182" type="line" smooth="yes"/>
      <point x="1707" y="182"/>
      <point x="1773" y="213"/>
      <point x="1812" y="247" type="curve"/>
      <point x="1809" y="219"/>
      <point x="1808" y="184"/>
      <point x="1808" y="153" type="curve" smooth="yes"/>
      <point x="1808" y="72" type="line"/>
      <point x="1418" y="72" type="line"/>
      <point x="1400" y="0" type="line"/>
      <point x="1889" y="0" type="line"/>
      <point x="1889" y="328" type="line"/>
      <point x="1808" y="328" type="line"/>
      <point x="1772" y="294"/>
      <point x="1714" y="252"/>
      <point x="1621" y="252" type="curve" smooth="yes"/>
      <point x="1604" y="252" type="line" smooth="yes"/>
      <point x="1506" y="252"/>
      <point x="1438" y="291"/>
      <point x="1438" y="382" type="curve" smooth="yes"/>
      <point x="1438" y="456"/>
      <point x="1474" y="494"/>
      <point x="1529" y="494" type="curve" smooth="yes"/>
      <point x="1576" y="494"/>
      <point x="1602" y="461"/>
      <point x="1602" y="403" type="curve" smooth="yes"/>
      <point x="1602" y="354"/>
      <point x="1594" y="300"/>
      <point x="1577" y="230" type="curve" smooth="yes"/>
      <point x="1535" y="64" type="line"/>
      <point x="1521" y="8" type="line"/>
      <point x="1453" y="-262" type="line"/>
      <point x="1532" y="-284" type="line"/>
      <point x="1652" y="191" type="line"/>
      <point x="1664" y="239" type="line" smooth="yes"/>
      <point x="1680" y="301"/>
      <point x="1689" y="355"/>
      <point x="1689" y="406" type="curve" smooth="yes"/>
      <point x="1689" y="492"/>
      <point x="1643" y="566"/>
    </contour>
  </outline>
</glyph>
<glyph name="rupeesigntamil" format="2">
  <advance width="1050"/>
  <unicode hex="0BF9"/>
  <outline>
    <contour>
      <point x="820" y="299" type="curve" smooth="yes"/>
      <point x="768" y="299"/>
      <point x="729" y="280"/>
      <point x="704" y="261" type="curve"/>
      <point x="703" y="189" type="line"/>
      <point x="730" y="208"/>
      <point x="765" y="227"/>
      <point x="805" y="227" type="curve" smooth="yes"/>
      <point x="875" y="227"/>
      <point x="914" y="173"/>
      <point x="914" y="71" type="curve" smooth="yes"/>
      <point x="914" y="-146"/>
      <point x="774" y="-244"/>
      <point x="557" y="-244" type="curve" smooth="yes"/>
      <point x="546" y="-244" type="line" smooth="yes"/>
      <point x="271" y="-244"/>
      <point x="154" y="-55"/>
      <point x="154" y="176" type="curve" smooth="yes"/>
      <point x="154" y="197" type="line" smooth="yes"/>
      <point x="154" y="404"/>
      <point x="250" y="591"/>
      <point x="383" y="660" type="curve"/>
      <point x="393" y="735" type="line"/>
      <point x="197" y="674"/>
      <point x="68" y="451"/>
      <point x="68" y="199" type="curve" smooth="yes"/>
      <point x="68" y="174" type="line" smooth="yes"/>
      <point x="68" y="-84"/>
      <point x="205" y="-321"/>
      <point x="539" y="-321" type="curve" smooth="yes"/>
      <point x="559" y="-321" type="line" smooth="yes"/>
      <point x="792" y="-321"/>
      <point x="1002" y="-210"/>
      <point x="1002" y="68" type="curve" smooth="yes"/>
      <point x="1002" y="212"/>
      <point x="928" y="299"/>
    </contour>
    <contour>
      <point x="361" y="0" type="line"/>
      <point x="447" y="0" type="line"/>
      <point x="447" y="443" type="line"/>
      <point x="622" y="443" type="line"/>
      <point x="622" y="0" type="line"/>
      <point x="708" y="0" type="line"/>
      <point x="708" y="443" type="line"/>
      <point x="883" y="443" type="line"/>
      <point x="883" y="515" type="line"/>
      <point x="361" y="515" type="line"/>
    </contour>
    <contour>
      <point x="499" y="551" type="curve" smooth="yes"/>
      <point x="562" y="551"/>
      <point x="608" y="586"/>
      <point x="608" y="652" type="curve" smooth="yes"/>
      <point x="608" y="702"/>
      <point x="573" y="748"/>
      <point x="499" y="748" type="curve" smooth="yes"/>
      <point x="477" y="748"/>
      <point x="459" y="745"/>
      <point x="446" y="740" type="curve"/>
      <point x="428" y="682" type="line"/>
      <point x="448" y="689"/>
      <point x="469" y="693"/>
      <point x="490" y="693" type="curve" smooth="yes"/>
      <point x="524" y="693"/>
      <point x="545" y="676"/>
      <point x="545" y="648" type="curve" smooth="yes"/>
      <point x="545" y="621"/>
      <point x="525" y="608"/>
      <point x="497" y="608" type="curve" smooth="yes"/>
      <point x="460" y="608"/>
      <point x="440" y="630"/>
      <point x="440" y="679" type="curve" smooth="yes"/>
      <point x="440" y="689"/>
      <point x="442" y="700"/>
      <point x="443" y="705" type="curve"/>
      <point x="453" y="733" type="line"/>
      <point x="478" y="761"/>
      <point x="519" y="784"/>
      <point x="581" y="784" type="curve" smooth="yes"/>
      <point x="667" y="784"/>
      <point x="703" y="745"/>
      <point x="703" y="686" type="curve" smooth="yes"/>
      <point x="703" y="644"/>
      <point x="688" y="617"/>
      <point x="667" y="588" type="curve"/>
      <point x="667" y="558" type="line"/>
      <point x="881" y="558" type="line"/>
      <point x="881" y="615" type="line"/>
      <point x="725" y="615" type="line"/>
      <point x="744" y="604" type="line"/>
      <point x="766" y="633"/>
      <point x="774" y="667"/>
      <point x="774" y="702" type="curve" smooth="yes"/>
      <point x="774" y="784"/>
      <point x="714" y="843"/>
      <point x="579" y="843" type="curve" smooth="yes"/>
      <point x="495" y="843"/>
      <point x="385" y="795"/>
      <point x="379" y="686" type="curve"/>
      <point x="379" y="606"/>
      <point x="416" y="551"/>
    </contour>
  </outline>
</glyph>
<glyph name="numsigntamil" format="2">
  <advance width="1214"/>
  <unicode hex="0BFA"/>
  <outline>
    <contour>
      <point x="557" y="362" type="curve" smooth="yes"/>
      <point x="504" y="362"/>
      <point x="462" y="343"/>
      <point x="427" y="322" type="curve"/>
      <point x="430" y="247" type="line"/>
      <point x="458" y="270"/>
      <point x="498" y="289"/>
      <point x="536" y="289" type="curve" smooth="yes"/>
      <point x="613" y="289"/>
      <point x="655" y="234"/>
      <point x="655" y="131" type="curve" smooth="yes"/>
      <point x="655" y="61"/>
      <point x="637" y="15"/>
      <point x="610" y="-14" type="curve" smooth="yes"/>
      <point x="564" y="-64"/>
      <point x="501" y="-84"/>
      <point x="338" y="-84" type="curve" smooth="yes"/>
      <point x="245" y="-84" type="line" smooth="yes"/>
      <point x="178" y="-84"/>
      <point x="139" y="-94"/>
      <point x="104" y="-119" type="curve" smooth="yes"/>
      <point x="70" y="-144"/>
      <point x="47" y="-184"/>
      <point x="47" y="-243" type="curve" smooth="yes"/>
      <point x="47" y="-266"/>
      <point x="50" y="-297"/>
      <point x="54" y="-321" type="curve"/>
      <point x="136" y="-317" type="line"/>
      <point x="134" y="-301"/>
      <point x="133" y="-283"/>
      <point x="133" y="-263" type="curve" smooth="yes"/>
      <point x="133" y="-219"/>
      <point x="145" y="-194"/>
      <point x="167" y="-179" type="curve" smooth="yes"/>
      <point x="189" y="-164"/>
      <point x="216" y="-156"/>
      <point x="272" y="-156" type="curve" smooth="yes"/>
      <point x="347" y="-156" type="line" smooth="yes"/>
      <point x="491" y="-156"/>
      <point x="577" y="-141"/>
      <point x="642" y="-94" type="curve" smooth="yes"/>
      <point x="704" y="-49"/>
      <point x="741" y="14"/>
      <point x="741" y="134" type="curve" smooth="yes"/>
      <point x="741" y="283"/>
      <point x="658" y="362"/>
    </contour>
    <contour>
      <point x="88" y="0" type="line"/>
      <point x="174" y="0" type="line"/>
      <point x="174" y="482" type="line"/>
      <point x="348" y="482" type="line"/>
      <point x="348" y="0" type="line"/>
      <point x="434" y="0" type="line"/>
      <point x="434" y="482" type="line"/>
      <point x="609" y="482" type="line"/>
      <point x="609" y="554" type="line"/>
      <point x="88" y="554" type="line"/>
    </contour>
    <contour>
      <point x="799" y="494" type="curve" smooth="yes"/>
      <point x="862" y="494"/>
      <point x="910" y="534"/>
      <point x="910" y="602" type="curve" smooth="yes"/>
      <point x="910" y="638"/>
      <point x="899" y="663"/>
      <point x="879" y="680" type="curve" smooth="yes"/>
      <point x="855" y="700"/>
      <point x="826" y="709"/>
      <point x="768" y="709" type="curve" smooth="yes"/>
      <point x="741" y="709" type="line" smooth="yes"/>
      <point x="620" y="709"/>
      <point x="550" y="653"/>
      <point x="543" y="554" type="curve"/>
      <point x="609" y="537" type="line"/>
      <point x="609" y="548" type="line"/>
      <point x="609" y="614"/>
      <point x="644" y="654"/>
      <point x="720" y="654" type="curve" smooth="yes"/>
      <point x="762" y="654" type="line" smooth="yes"/>
      <point x="795" y="654"/>
      <point x="813" y="651"/>
      <point x="827" y="643" type="curve" smooth="yes"/>
      <point x="841" y="635"/>
      <point x="848" y="621"/>
      <point x="848" y="600" type="curve" smooth="yes"/>
      <point x="848" y="566"/>
      <point x="825" y="553"/>
      <point x="796" y="553" type="curve" smooth="yes"/>
      <point x="752" y="553"/>
      <point x="733" y="583"/>
      <point x="733" y="640" type="curve" smooth="yes"/>
      <point x="733" y="659"/>
      <point x="735" y="676"/>
      <point x="739" y="690" type="curve"/>
      <point x="759" y="758"/>
      <point x="819" y="784"/>
      <point x="881" y="784" type="curve" smooth="yes"/>
      <point x="960" y="784"/>
      <point x="1006" y="734"/>
      <point x="1006" y="658" type="curve" smooth="yes"/>
      <point x="1006" y="605"/>
      <point x="993" y="571"/>
      <point x="972" y="534" type="curve"/>
      <point x="972" y="496" type="line"/>
      <point x="1197" y="496" type="line"/>
      <point x="1197" y="554" type="line"/>
      <point x="1023" y="554" type="line"/>
      <point x="1051" y="549" type="line"/>
      <point x="1072" y="585"/>
      <point x="1081" y="630"/>
      <point x="1081" y="669" type="curve" smooth="yes"/>
      <point x="1081" y="772"/>
      <point x="1008" y="843"/>
      <point x="879" y="843" type="curve" smooth="yes"/>
      <point x="787" y="843"/>
      <point x="692" y="793"/>
      <point x="673" y="684" type="curve"/>
      <point x="670" y="670"/>
      <point x="670" y="657"/>
      <point x="670" y="642" type="curve" smooth="yes"/>
      <point x="670" y="542"/>
      <point x="726" y="494"/>
    </contour>
  </outline>
</glyph>
<glyph name="uni1CDA" format="2">
  <unicode hex="1CDA"/>
  <outline>
    <contour>
      <point x="-377" y="870" type="line"/>
      <point x="-377" y="659" type="line"/>
      <point x="-309" y="659" type="line"/>
      <point x="-309" y="870" type="line"/>
    </contour>
    <contour>
      <point x="-247" y="870" type="line"/>
      <point x="-247" y="659" type="line"/>
      <point x="-179" y="659" type="line"/>
      <point x="-179" y="870" type="line"/>
    </contour>
  </outline>
</glyph>
<glyph name="quoteleft.tamil" format="2">
  <advance width="232"/>
  <unicode hex="2018"/>
  <outline>
    <contour>
      <point x="46" y="555" type="line"/>
      <point x="144" y="555" type="line"/>
      <point x="154" y="624"/>
      <point x="173" y="720"/>
      <point x="192" y="800" type="curve"/>
      <point x="126" y="800" type="line"/>
      <point x="93" y="727"/>
      <point x="58" y="637"/>
      <point x="40" y="566" type="curve"/>
    </contour>
  </outline>
</glyph>
<glyph name="quoteright.tamil" format="2">
  <advance width="232"/>
  <unicode hex="2019"/>
  <outline>
    <contour>
      <point x="186" y="800" type="line"/>
      <point x="88" y="800" type="line"/>
      <point x="78" y="731"/>
      <point x="58" y="633"/>
      <point x="40" y="555" type="curve"/>
      <point x="107" y="555" type="line"/>
      <point x="139" y="628"/>
      <point x="174" y="718"/>
      <point x="192" y="789" type="curve"/>
    </contour>
  </outline>
</glyph>
<glyph name="quotedblleft.tamil" format="2">
  <advance width="420"/>
  <unicode hex="201C"/>
  <outline>
    <contour>
      <point x="234" y="555" type="line"/>
      <point x="332" y="555" type="line"/>
      <point x="342" y="624"/>
      <point x="361" y="720"/>
      <point x="380" y="800" type="curve"/>
      <point x="314" y="800" type="line"/>
      <point x="281" y="727"/>
      <point x="246" y="637"/>
      <point x="228" y="566" type="curve"/>
    </contour>
    <contour>
      <point x="46" y="555" type="line"/>
      <point x="144" y="555" type="line"/>
      <point x="154" y="624"/>
      <point x="173" y="720"/>
      <point x="192" y="800" type="curve"/>
      <point x="126" y="800" type="line"/>
      <point x="93" y="727"/>
      <point x="58" y="637"/>
      <point x="40" y="566" type="curve"/>
    </contour>
  </outline>
</glyph>
<glyph name="quotedblright.tamil" format="2">
  <advance width="420"/>
  <unicode hex="201D"/>
  <outline>
    <contour>
      <point x="374" y="800" type="line"/>
      <point x="276" y="800" type="line"/>
      <point x="266" y="731"/>
      <point x="246" y="633"/>
      <point x="228" y="555" type="curve"/>
      <point x="295" y="555" type="line"/>
      <point x="327" y="628"/>
      <point x="362" y="718"/>
      <point x="380" y="789" type="curve"/>
    </contour>
    <contour>
      <point x="186" y="800" type="line"/>
      <point x="88" y="800" type="line"/>
      <point x="78" y="731"/>
      <point x="58" y="633"/>
      <point x="40" y="555" type="curve"/>
      <point x="107" y="555" type="line"/>
      <point x="139" y="628"/>
      <point x="174" y="718"/>
      <point x="192" y="789" type="curve"/>
    </contour>
  </outline>
</glyph>
<glyph name="uni2074" format="2">
  <advance width="360"/>
  <unicode hex="2074"/>
  <outline>
    <contour>
      <point x="210" y="369" type="line"/>
      <point x="285" y="369" type="line"/>
      <point x="285" y="465" type="line"/>
      <point x="346" y="465" type="line"/>
      <point x="346" y="525" type="line"/>
      <point x="285" y="525" type="line"/>
      <point x="285" y="800" type="line"/>
      <point x="212" y="800" type="line"/>
      <point x="15" y="517" type="line"/>
      <point x="15" y="465" type="line"/>
      <point x="210" y="465" type="line"/>
    </contour>
    <contour>
      <point x="85" y="525" type="line"/>
      <point x="165" y="642" type="line" smooth="yes"/>
      <point x="180" y="664"/>
      <point x="206" y="704"/>
      <point x="213" y="719" type="curve"/>
      <point x="211" y="687"/>
      <point x="210" y="646"/>
      <point x="210" y="618" type="curve" smooth="yes"/>
      <point x="210" y="525" type="line"/>
    </contour>
  </outline>
</glyph>
<glyph name="uniA8F3" format="2">
  <advance width="479"/>
  <unicode hex="A8F3"/>
  <outline>
    <contour>
      <point x="239" y="292" type="curve" smooth="yes"/>
      <point x="372" y="292"/>
      <point x="441" y="363"/>
      <point x="441" y="469" type="curve" smooth="yes"/>
      <point x="441" y="496"/>
      <point x="437" y="523"/>
      <point x="432" y="541" type="curve"/>
      <point x="354" y="528" type="line"/>
      <point x="357" y="512"/>
      <point x="360" y="492"/>
      <point x="360" y="476" type="curve" smooth="yes"/>
      <point x="360" y="392"/>
      <point x="308" y="364"/>
      <point x="239" y="364" type="curve" smooth="yes"/>
      <point x="172" y="364"/>
      <point x="119" y="392"/>
      <point x="119" y="476" type="curve" smooth="yes"/>
      <point x="119" y="489"/>
      <point x="121" y="512"/>
      <point x="125" y="528" type="curve"/>
      <point x="46" y="541" type="line"/>
      <point x="41" y="523"/>
      <point x="38" y="496"/>
      <point x="38" y="469" type="curve" smooth="yes"/>
      <point x="38" y="363"/>
      <point x="107" y="292"/>
    </contour>
    <contour>
      <point x="239" y="414" type="curve" smooth="yes"/>
      <point x="275" y="414"/>
      <point x="302" y="439"/>
      <point x="302" y="476" type="curve" smooth="yes"/>
      <point x="302" y="512"/>
      <point x="275" y="539"/>
      <point x="239" y="539" type="curve" smooth="yes"/>
      <point x="203" y="539"/>
      <point x="177" y="512"/>
      <point x="177" y="476" type="curve" smooth="yes"/>
      <point x="177" y="439"/>
      <point x="203" y="414"/>
    </contour>
    <contour>
      <point x="440" y="69" type="line"/>
      <point x="190" y="250" type="line"/>
      <point x="140" y="184" type="line"/>
      <point x="391" y="2" type="line"/>
    </contour>
  </outline>
</glyph>
<glyph name="u11301" format="2">
  <unicode hex="11301"/>
  <outline>
    <contour>
      <point x="-278" y="660" type="curve" smooth="yes"/>
      <point x="-170" y="660"/>
      <point x="-104" y="718"/>
      <point x="-104" y="815" type="curve" smooth="yes"/>
      <point x="-104" y="832"/>
      <point x="-107" y="854"/>
      <point x="-111" y="870" type="curve"/>
      <point x="-180" y="856" type="line"/>
      <point x="-176" y="842"/>
      <point x="-175" y="829"/>
      <point x="-175" y="819" type="curve" smooth="yes"/>
      <point x="-175" y="749"/>
      <point x="-223" y="725"/>
      <point x="-278" y="725" type="curve" smooth="yes"/>
      <point x="-331" y="725"/>
      <point x="-381" y="745"/>
      <point x="-381" y="817" type="curve" smooth="yes"/>
      <point x="-381" y="828"/>
      <point x="-380" y="842"/>
      <point x="-376" y="856" type="curve"/>
      <point x="-444" y="870" type="line"/>
      <point x="-449" y="854"/>
      <point x="-452" y="834"/>
      <point x="-452" y="815" type="curve" smooth="yes"/>
      <point x="-452" y="716"/>
      <point x="-390" y="660"/>
    </contour>
    <contour>
      <point x="-279" y="767" type="curve" smooth="yes"/>
      <point x="-250" y="767"/>
      <point x="-228" y="787"/>
      <point x="-228" y="818" type="curve" smooth="yes"/>
      <point x="-228" y="846"/>
      <point x="-250" y="868"/>
      <point x="-279" y="868" type="curve" smooth="yes"/>
      <point x="-308" y="868"/>
      <point x="-329" y="846"/>
      <point x="-329" y="818" type="curve" smooth="yes"/>
      <point x="-329" y="787"/>
      <point x="-308" y="767"/>
    </contour>
  </outline>
</glyph>
<glyph name="u11303" format="2">
  <advance width="363"/>
  <unicode hex="11303"/>
  <outline>
    <contour>
      <point x="46" y="117" type="curve" smooth="yes"/>
      <point x="46" y="43"/>
      <point x="99" y="-12"/>
      <point x="181" y="-12" type="curve" smooth="yes"/>
      <point x="264" y="-12"/>
      <point x="317" y="43"/>
      <point x="317" y="117" type="curve" smooth="yes"/>
      <point x="317" y="191"/>
      <point x="263" y="247"/>
      <point x="181" y="247" type="curve" smooth="yes"/>
      <point x="100" y="247"/>
      <point x="46" y="190"/>
    </contour>
    <contour>
      <point x="117" y="118" type="curve" smooth="yes"/>
      <point x="117" y="154"/>
      <point x="140" y="182"/>
      <point x="181" y="182" type="curve" smooth="yes"/>
      <point x="223" y="182"/>
      <point x="246" y="154"/>
      <point x="246" y="118" type="curve" smooth="yes"/>
      <point x="246" y="81"/>
      <point x="224" y="53"/>
      <point x="181" y="53" type="curve" smooth="yes"/>
      <point x="139" y="53"/>
      <point x="117" y="81"/>
    </contour>
    <contour>
      <point x="46" y="436" type="curve" smooth="yes"/>
      <point x="46" y="363"/>
      <point x="99" y="307"/>
      <point x="181" y="307" type="curve" smooth="yes"/>
      <point x="264" y="307"/>
      <point x="317" y="362"/>
      <point x="317" y="436" type="curve" smooth="yes"/>
      <point x="317" y="510"/>
      <point x="263" y="566"/>
      <point x="181" y="566" type="curve" smooth="yes"/>
      <point x="100" y="566"/>
      <point x="46" y="510"/>
    </contour>
    <contour>
      <point x="117" y="437" type="curve" smooth="yes"/>
      <point x="117" y="474"/>
      <point x="140" y="501"/>
      <point x="181" y="501" type="curve" smooth="yes"/>
      <point x="223" y="501"/>
      <point x="246" y="474"/>
      <point x="246" y="437" type="curve" smooth="yes"/>
      <point x="246" y="400"/>
      <point x="224" y="372"/>
      <point x="181" y="372" type="curve" smooth="yes"/>
      <point x="139" y="372"/>
      <point x="117" y="400"/>
    </contour>
  </outline>
</glyph>
<glyph name="u1133B" format="2">
  <unicode hex="1133B"/>
  <outline>
    <contour>
      <point x="-278" y="-210" type="curve" smooth="yes"/>
      <point x="-242" y="-210"/>
      <point x="-214" y="-184"/>
      <point x="-214" y="-146" type="curve" smooth="yes"/>
      <point x="-214" y="-110"/>
      <point x="-241" y="-82"/>
      <point x="-278" y="-82" type="curve" smooth="yes"/>
      <point x="-315" y="-82"/>
      <point x="-342" y="-110"/>
      <point x="-342" y="-146" type="curve" smooth="yes"/>
      <point x="-342" y="-184"/>
      <point x="-315" y="-210"/>
    </contour>
  </outline>
</glyph>
<glyph name="u1133C" format="2">
  <unicode hex="1133C"/>
  <outline>
    <contour>
      <point x="-430" y="-146" type="curve" smooth="yes"/>
      <point x="-430" y="-179"/>
      <point x="-404" y="-206"/>
      <point x="-373" y="-206" type="curve" smooth="yes"/>
      <point x="-341" y="-206"/>
      <point x="-315" y="-179"/>
      <point x="-315" y="-146" type="curve" smooth="yes"/>
      <point x="-315" y="-112"/>
      <point x="-341" y="-85"/>
      <point x="-373" y="-85" type="curve" smooth="yes"/>
      <point x="-404" y="-85"/>
      <point x="-430" y="-112"/>
    </contour>
    <contour>
      <point x="-242" y="-146" type="curve" smooth="yes"/>
      <point x="-242" y="-179"/>
      <point x="-216" y="-206"/>
      <point x="-185" y="-206" type="curve" smooth="yes"/>
      <point x="-153" y="-206"/>
      <point x="-127" y="-179"/>
      <point x="-127" y="-146" type="curve" smooth="yes"/>
      <point x="-127" y="-112"/>
      <point x="-153" y="-85"/>
      <point x="-185" y="-85" type="curve" smooth="yes"/>
      <point x="-216" y="-85"/>
      <point x="-242" y="-112"/>
    </contour>
  </outline>
</glyph>
<glyph name="cauuvowelsigntamil" format="2">
  <advance width="1195"/>
  <outline>
    <contour>
      <point x="1034" y="174" type="curve" smooth="yes"/>
      <point x="991" y="174"/>
      <point x="956" y="160"/>
      <point x="932" y="144" type="curve"/>
      <point x="932" y="81" type="line"/>
      <point x="953" y="95"/>
      <point x="978" y="108"/>
      <point x="1006" y="108" type="curve" smooth="yes"/>
      <point x="1057" y="108"/>
      <point x="1090" y="68"/>
      <point x="1090" y="5" type="curve" smooth="yes"/>
      <point x="1090" y="-161"/>
      <point x="911" y="-244"/>
      <point x="644" y="-244" type="curve" smooth="yes"/>
      <point x="629" y="-244" type="line" smooth="yes"/>
      <point x="282" y="-244"/>
      <point x="154" y="-67"/>
      <point x="154" y="141" type="curve" smooth="yes"/>
      <point x="154" y="160" type="line" smooth="yes"/>
      <point x="154" y="281"/>
      <point x="200" y="399"/>
      <point x="280" y="510" type="curve"/>
      <point x="206" y="554" type="line"/>
      <point x="137" y="451"/>
      <point x="68" y="323"/>
      <point x="68" y="160" type="curve" smooth="yes"/>
      <point x="68" y="135" type="line" smooth="yes"/>
      <point x="68" y="21"/>
      <point x="106" y="-102"/>
      <point x="206" y="-191" type="curve" smooth="yes"/>
      <point x="292" y="-269"/>
      <point x="425" y="-321"/>
      <point x="625" y="-321" type="curve" smooth="yes"/>
      <point x="647" y="-321" type="line" smooth="yes"/>
      <point x="923" y="-321"/>
      <point x="1178" y="-229"/>
      <point x="1178" y="5" type="curve" smooth="yes"/>
      <point x="1178" y="114"/>
      <point x="1113" y="174"/>
    </contour>
    <contour>
      <point x="498" y="-12" type="curve" smooth="yes"/>
      <point x="582" y="-12"/>
      <point x="648" y="6"/>
      <point x="689" y="57" type="curve" smooth="yes"/>
      <point x="717" y="91"/>
      <point x="733" y="137"/>
      <point x="733" y="226" type="curve" smooth="yes"/>
      <point x="733" y="482" type="line"/>
      <point x="920" y="482" type="line"/>
      <point x="920" y="554" type="line"/>
      <point x="397" y="554" type="line"/>
      <point x="397" y="286" type="line"/>
      <point x="476" y="302" type="line"/>
      <point x="476" y="482" type="line"/>
      <point x="648" y="482" type="line"/>
      <point x="648" y="213" type="line" smooth="yes"/>
      <point x="648" y="94"/>
      <point x="593" y="60"/>
      <point x="506" y="60" type="curve" smooth="yes"/>
      <point x="430" y="60"/>
      <point x="372" y="91"/>
      <point x="372" y="153" type="curve" smooth="yes"/>
      <point x="372" y="191"/>
      <point x="386" y="215"/>
      <point x="415" y="232" type="curve" smooth="yes"/>
      <point x="448" y="251"/>
      <point x="494" y="258"/>
      <point x="562" y="258" type="curve" smooth="yes"/>
      <point x="1081" y="258" type="line"/>
      <point x="1081" y="328" type="line"/>
      <point x="569" y="328" type="line" smooth="yes"/>
      <point x="367" y="328"/>
      <point x="286" y="259"/>
      <point x="286" y="152" type="curve" smooth="yes"/>
      <point x="286" y="47"/>
      <point x="377" y="-12"/>
    </contour>
    <contour>
      <point x="869" y="0" type="line"/>
      <point x="952" y="0" type="line"/>
      <point x="952" y="267" type="line"/>
      <point x="869" y="275" type="line"/>
    </contour>
  </outline>
</glyph>
<glyph name="ivowelsign1tamil" format="2">
  <advance width="262"/>
  <outline>
    <contour>
      <point x="-89" y="843" type="curve" smooth="yes"/>
      <point x="-219" y="843"/>
      <point x="-326" y="779"/>
      <point x="-326" y="637" type="curve" smooth="yes"/>
      <point x="-326" y="594"/>
      <point x="-314" y="547"/>
      <point x="-297" y="515" type="curve"/>
      <point x="-206" y="515" type="line"/>
      <point x="-231" y="556"/>
      <point x="-240" y="602"/>
      <point x="-240" y="637" type="curve" smooth="yes"/>
      <point x="-240" y="714"/>
      <point x="-193" y="768"/>
      <point x="-95" y="768" type="curve" smooth="yes"/>
      <point x="-42" y="768"/>
      <point x="2" y="754"/>
      <point x="32" y="720" type="curve" smooth="yes"/>
      <point x="68" y="678"/>
      <point x="88" y="620"/>
      <point x="88" y="464" type="curve" smooth="yes"/>
      <point x="88" y="0" type="line"/>
      <point x="174" y="0" type="line"/>
      <point x="174" y="481" type="line" smooth="yes"/>
      <point x="174" y="657"/>
      <point x="144" y="725"/>
      <point x="97" y="773" type="curve" smooth="yes"/>
      <point x="52" y="820"/>
      <point x="-14" y="843"/>
    </contour>
  </outline>
</glyph>
<glyph name="ivowelsign2tamil" format="2">
  <advance width="262"/>
  <outline>
    <contour>
      <point x="-148" y="843" type="curve" smooth="yes"/>
      <point x="-293" y="843"/>
      <point x="-427" y="778"/>
      <point x="-427" y="619" type="curve" smooth="yes"/>
      <point x="-427" y="585"/>
      <point x="-418" y="543"/>
      <point x="-405" y="515" type="curve"/>
      <point x="-318" y="515" type="line"/>
      <point x="-333" y="547"/>
      <point x="-341" y="580"/>
      <point x="-341" y="615" type="curve" smooth="yes"/>
      <point x="-341" y="720"/>
      <point x="-266" y="768"/>
      <point x="-146" y="768" type="curve" smooth="yes"/>
      <point x="-94" y="768"/>
      <point x="-46" y="756"/>
      <point x="-8" y="728" type="curve" smooth="yes"/>
      <point x="55" y="681"/>
      <point x="88" y="593"/>
      <point x="88" y="442" type="curve" smooth="yes"/>
      <point x="88" y="0" type="line"/>
      <point x="174" y="0" type="line"/>
      <point x="174" y="451" type="line" smooth="yes"/>
      <point x="174" y="632"/>
      <point x="135" y="716"/>
      <point x="59" y="780" type="curve" smooth="yes"/>
      <point x="2" y="829"/>
      <point x="-74" y="843"/>
    </contour>
  </outline>
</glyph>
<glyph name="ivowelsign3tamil" format="2">
  <advance width="262"/>
  <outline>
    <contour>
      <point x="-130" y="843" type="curve" smooth="yes"/>
      <point x="-271" y="843"/>
      <point x="-385" y="768"/>
      <point x="-385" y="621" type="curve" smooth="yes"/>
      <point x="-385" y="481"/>
      <point x="-287" y="404"/>
      <point x="-162" y="390" type="curve"/>
      <point x="-162" y="461" type="line"/>
      <point x="-246" y="474"/>
      <point x="-299" y="524"/>
      <point x="-299" y="620" type="curve" smooth="yes"/>
      <point x="-299" y="711"/>
      <point x="-236" y="768"/>
      <point x="-128" y="768" type="curve" smooth="yes"/>
      <point x="-76" y="768"/>
      <point x="-23" y="752"/>
      <point x="15" y="718" type="curve" smooth="yes"/>
      <point x="61" y="678"/>
      <point x="88" y="619"/>
      <point x="88" y="461" type="curve" smooth="yes"/>
      <point x="88" y="0" type="line"/>
      <point x="174" y="0" type="line"/>
      <point x="174" y="489" type="line" smooth="yes"/>
      <point x="174" y="656"/>
      <point x="133" y="728"/>
      <point x="78" y="774" type="curve" smooth="yes"/>
      <point x="22" y="821"/>
      <point x="-46" y="843"/>
    </contour>
  </outline>
</glyph>
<glyph name="kauvowelsigntamil" format="2">
  <advance width="1062"/>
  <outline>
    <contour>
      <point x="499" y="-12" type="curve" smooth="yes"/>
      <point x="582" y="-12"/>
      <point x="648" y="6"/>
      <point x="689" y="57" type="curve" smooth="yes"/>
      <point x="717" y="91"/>
      <point x="733" y="137"/>
      <point x="733" y="226" type="curve" smooth="yes"/>
      <point x="733" y="482" type="line"/>
      <point x="920" y="482" type="line"/>
      <point x="920" y="554" type="line"/>
      <point x="397" y="554" type="line"/>
      <point x="397" y="286" type="line"/>
      <point x="476" y="302" type="line"/>
      <point x="476" y="482" type="line"/>
      <point x="648" y="482" type="line"/>
      <point x="648" y="213" type="line" smooth="yes"/>
      <point x="648" y="94"/>
      <point x="593" y="60"/>
      <point x="506" y="60" type="curve" smooth="yes"/>
      <point x="429" y="60"/>
      <point x="372" y="91"/>
      <point x="372" y="153" type="curve" smooth="yes"/>
      <point x="372" y="191"/>
      <point x="386" y="215"/>
      <point x="415" y="232" type="curve" smooth="yes"/>
      <point x="448" y="251"/>
      <point x="494" y="258"/>
      <point x="562" y="258" type="curve" smooth="yes"/>
      <point x="686" y="258" type="line" smooth="yes"/>
      <point x="824" y="258"/>
      <point x="926" y="190"/>
      <point x="926" y="41" type="curve" smooth="yes"/>
      <point x="926" y="-149"/>
      <point x="786" y="-244"/>
      <point x="560" y="-244" type="curve" smooth="yes"/>
      <point x="548" y="-244" type="line" smooth="yes"/>
      <point x="268" y="-244"/>
      <point x="154" y="-69"/>
      <point x="154" y="131" type="curve" smooth="yes"/>
      <point x="154" y="150" type="line" smooth="yes"/>
      <point x="154" y="274"/>
      <point x="200" y="397"/>
      <point x="280" y="510" type="curve"/>
      <point x="207" y="554" type="line"/>
      <point x="137" y="450"/>
      <point x="68" y="314"/>
      <point x="68" y="151" type="curve" smooth="yes"/>
      <point x="68" y="130" type="line" smooth="yes"/>
      <point x="68" y="-79"/>
      <point x="182" y="-321"/>
      <point x="537" y="-321" type="curve" smooth="yes"/>
      <point x="566" y="-321" type="line"/>
      <point x="793" y="-321"/>
      <point x="1014" y="-227"/>
      <point x="1014" y="40" type="curve" smooth="yes"/>
      <point x="1014" y="187"/>
      <point x="926" y="328"/>
      <point x="694" y="328" type="curve" smooth="yes"/>
      <point x="569" y="328" type="line" smooth="yes"/>
      <point x="367" y="328"/>
      <point x="286" y="259"/>
      <point x="286" y="152" type="curve" smooth="yes"/>
      <point x="286" y="47"/>
      <point x="377" y="-12"/>
    </contour>
  </outline>
</glyph>
